<svg width="92" height="110" fill="none" xmlns="http://www.w3.org/2000/svg"><path fill="#E6DEFF" d="M1 1h90v108H1z"/><path fill="#6D43F2" fill-opacity=".87" d="M1 109.014V64.032h89.965v44.982z"/><path fill-rule="evenodd" clip-rule="evenodd" d="M45.982 73c-19.89 0-36.014 16.124-36.014 36.014v.044-.044h72.029C81.996 89.124 65.871 73 45.981 73z" fill="#E6DEFF"/><path fill-rule="evenodd" clip-rule="evenodd" d="M45.982 86.523c-12.421 0-22.49 10.07-22.49 22.491h44.981c0-12.421-10.07-22.491-22.49-22.491z" fill="#fff"/><rect x="31.75" y="26.75" width="20.627" height="40.5" rx="1.25" fill="#26296F" stroke="#26296F" stroke-width="1.5"/><path d="M31 29h6a2 2 0 012 2v37h-8V29z" fill="#171A5B"/><rect x="33" y="28.017" width="7" height="3.025" rx="1.513" fill="#202020"/><ellipse cx="41.5" cy="29.529" rx=".5" ry=".504" fill="#E3E1E1"/><rect x="16.75" y="29.885" width="20.627" height="40.366" rx="1.25" fill="url(#paint0_linear)" stroke="#26296F" stroke-width="1.5"/><rect x="21.206" y="29.134" width="11.714" height="3.244" rx="1" fill="#26296F"/><rect x="88" y="6" width="15" height="15" rx="7.5" transform="rotate(90 88 6)" fill="#562BE0"/><rect x="84" y="10" width="7" height="7" rx="3.5" transform="rotate(90 84 10)" fill="#fff"/><rect x="64" y="12" width="4" height="4" rx="2" transform="rotate(90 64 12)" stroke="#fff"/><rect x="44" y="13" width="2" height="2" rx="1" transform="rotate(90 44 13)" fill="#fff"/><path stroke="#fff" d="M1 1h90v108H1z"/><path stroke="#5119FF" stroke-dasharray="3 3 3 3" d="M2 14h20v-1H2z"/><defs><linearGradient id="paint0_linear" x1="50.492" y1="10.993" x2="-3.219" y2="87.808" gradientUnits="userSpaceOnUse"><stop stop-color="#FF3D00"/><stop offset="1" stop-color="#77178E"/></linearGradient></defs></svg>