<svg width="92" height="110" viewBox="0 0 92 110" fill="none" xmlns="http://www.w3.org/2000/svg">
<rect x="1" y="1" width="90" height="108" fill="#E6DEFF"/>
<path d="M61.537 18.5L91 34L91 0.999998L29 1L61.537 18.5Z" fill="#562BE0"/>
<path d="M44.963 108.5L1 108.5L1 94.9998L59 94.9998L44.963 108.5Z" fill="#8A65FF"/>
<path d="M56 102.13L49 109L63 109L63 95L56 102.13Z" fill="#8A65FF"/>
<path d="M84 102.13L77 109L91 109L91 95L84 102.13Z" fill="#8A65FF"/>
<path d="M70 101.87L63 95L77 95L77 109L70 101.87Z" fill="#8A65FF"/>
<path d="M70 86.8704L63 80L77 80L77 94L70 86.8704Z" fill="#5119FF"/>
<path d="M70 71.8704L63 65L77 65L77 79L70 71.8704Z" fill="#5119FF"/>
<rect x="16.75" y="47.9229" width="21.1727" height="41.1779" rx="1.25" transform="rotate(-90 16.75 47.9229)" fill="url(#paint0_linear)" stroke="#26296F" stroke-width="1.5"/>
<rect x="30.6707" y="55.3413" width="13.3369" height="2.66737" rx="1" fill="#26296F"/>
<rect x="36.0054" y="56.6748" width="9.3358" height="2.66737" rx="1" transform="rotate(-90 36.0054 56.6748)" fill="#26296F"/>
<circle cx="39.8722" cy="41.8701" r="8.8358" transform="rotate(-45 39.8722 41.8701)" fill="white" stroke="#0F00B9"/>
<rect x="44.7522" y="49.2451" width="2.66737" height="12.0193" rx="1" transform="rotate(-45 44.7522 49.2451)" fill="#0F00B9"/>
<rect x="1" y="1" width="90" height="108" stroke="white"/>
<mask id="mask0" mask-type="alpha" maskUnits="userSpaceOnUse" x="67" y="14" width="20" height="20">
<rect x="67" y="14" width="20" height="19.8157" rx="9.90784" fill="white"/>
</mask>
<g mask="url(#mask0)">
<ellipse cx="67.2222" cy="14.2202" rx="0.222222" ry="0.220174" fill="#A6A6A6"/>
<ellipse cx="68.1111" cy="14.2207" rx="0.222222" ry="0.220174" fill="#A6A6A6"/>
<ellipse cx="69.0001" cy="14.2207" rx="0.222222" ry="0.220174" fill="#A6A6A6"/>
<ellipse cx="69.8887" cy="14.2207" rx="0.222222" ry="0.220174" fill="#A6A6A6"/>
<ellipse cx="70.7776" cy="14.2207" rx="0.222222" ry="0.220174" fill="#A6A6A6"/>
<ellipse cx="71.6666" cy="14.2207" rx="0.222222" ry="0.220174" fill="#A6A6A6"/>
<ellipse cx="72.5557" cy="14.2207" rx="0.222222" ry="0.220174" fill="#A6A6A6"/>
<ellipse cx="73.4444" cy="14.2207" rx="0.222222" ry="0.220174" fill="#A6A6A6"/>
<ellipse cx="74.3335" cy="14.2207" rx="0.222222" ry="0.220174" fill="#A6A6A6"/>
<ellipse cx="75.222" cy="14.2207" rx="0.222222" ry="0.220174" fill="#A6A6A6"/>
<ellipse cx="76.1111" cy="14.2207" rx="0.222222" ry="0.220174" fill="#A6A6A6"/>
<ellipse cx="67.2222" cy="15.101" rx="0.222222" ry="0.220174" fill="#A6A6A6"/>
<ellipse cx="68.1111" cy="15.101" rx="0.222222" ry="0.220174" fill="#A6A6A6"/>
<ellipse cx="69.0001" cy="15.101" rx="0.222222" ry="0.220174" fill="#A6A6A6"/>
<ellipse cx="69.8887" cy="15.101" rx="0.222222" ry="0.220174" fill="#A6A6A6"/>
<ellipse cx="70.7776" cy="15.101" rx="0.222222" ry="0.220174" fill="#A6A6A6"/>
<ellipse cx="71.6666" cy="15.101" rx="0.222222" ry="0.220174" fill="#A6A6A6"/>
<ellipse cx="72.5557" cy="15.101" rx="0.222222" ry="0.220174" fill="#A6A6A6"/>
<ellipse cx="73.4444" cy="15.101" rx="0.222222" ry="0.220174" fill="#A6A6A6"/>
<ellipse cx="74.3335" cy="15.101" rx="0.222222" ry="0.220174" fill="#A6A6A6"/>
<ellipse cx="75.222" cy="15.101" rx="0.222222" ry="0.220174" fill="#A6A6A6"/>
<ellipse cx="76.1111" cy="15.101" rx="0.222222" ry="0.220174" fill="#A6A6A6"/>
<ellipse cx="67.2222" cy="15.9819" rx="0.222222" ry="0.220174" fill="#A6A6A6"/>
<ellipse cx="68.1111" cy="15.9819" rx="0.222222" ry="0.220174" fill="#A6A6A6"/>
<ellipse cx="69.0001" cy="15.9819" rx="0.222222" ry="0.220174" fill="#A6A6A6"/>
<ellipse cx="69.8887" cy="15.9819" rx="0.222222" ry="0.220174" fill="#A6A6A6"/>
<ellipse cx="70.7776" cy="15.9819" rx="0.222222" ry="0.220174" fill="#A6A6A6"/>
<ellipse cx="71.6666" cy="15.9819" rx="0.222222" ry="0.220174" fill="#A6A6A6"/>
<ellipse cx="72.5557" cy="15.9819" rx="0.222222" ry="0.220174" fill="#A6A6A6"/>
<ellipse cx="73.4444" cy="15.9819" rx="0.222222" ry="0.220174" fill="#A6A6A6"/>
<ellipse cx="74.3335" cy="15.9819" rx="0.222222" ry="0.220174" fill="#A6A6A6"/>
<ellipse cx="75.222" cy="15.9819" rx="0.222222" ry="0.220174" fill="#A6A6A6"/>
<ellipse cx="76.1111" cy="15.9819" rx="0.222222" ry="0.220174" fill="#A6A6A6"/>
<ellipse cx="67.2222" cy="16.8628" rx="0.222222" ry="0.220174" fill="#A6A6A6"/>
<ellipse cx="68.1111" cy="16.8628" rx="0.222222" ry="0.220174" fill="#A6A6A6"/>
<ellipse cx="69.0001" cy="16.8628" rx="0.222222" ry="0.220174" fill="#A6A6A6"/>
<ellipse cx="69.8887" cy="16.8628" rx="0.222222" ry="0.220174" fill="#A6A6A6"/>
<ellipse cx="70.7776" cy="16.8628" rx="0.222222" ry="0.220174" fill="#A6A6A6"/>
<ellipse cx="71.6666" cy="16.8628" rx="0.222222" ry="0.220174" fill="#A6A6A6"/>
<ellipse cx="72.5557" cy="16.8628" rx="0.222222" ry="0.220174" fill="#A6A6A6"/>
<ellipse cx="73.4444" cy="16.8628" rx="0.222222" ry="0.220174" fill="#A6A6A6"/>
<ellipse cx="74.3335" cy="16.8628" rx="0.222222" ry="0.220174" fill="#A6A6A6"/>
<ellipse cx="75.2222" cy="16.8628" rx="0.222222" ry="0.220174" fill="#A6A6A6"/>
<ellipse cx="76.1111" cy="16.8628" rx="0.222222" ry="0.220174" fill="#A6A6A6"/>
<ellipse cx="67.2222" cy="17.7436" rx="0.222222" ry="0.220174" fill="#A6A6A6"/>
<ellipse cx="68.1111" cy="17.7436" rx="0.222222" ry="0.220174" fill="#A6A6A6"/>
<ellipse cx="69.0001" cy="17.7436" rx="0.222222" ry="0.220174" fill="#A6A6A6"/>
<ellipse cx="69.8887" cy="17.7436" rx="0.222222" ry="0.220174" fill="#A6A6A6"/>
<ellipse cx="70.7776" cy="17.7436" rx="0.222222" ry="0.220174" fill="#A6A6A6"/>
<ellipse cx="71.6666" cy="17.7436" rx="0.222222" ry="0.220174" fill="#A6A6A6"/>
<ellipse cx="72.5557" cy="17.7436" rx="0.222222" ry="0.220174" fill="#A6A6A6"/>
<ellipse cx="73.4444" cy="17.7436" rx="0.222222" ry="0.220174" fill="#A6A6A6"/>
<ellipse cx="74.3335" cy="17.7436" rx="0.222222" ry="0.220174" fill="#A6A6A6"/>
<ellipse cx="75.222" cy="17.7436" rx="0.222222" ry="0.220174" fill="#A6A6A6"/>
<ellipse cx="76.1111" cy="17.7436" rx="0.222222" ry="0.220174" fill="#A6A6A6"/>
<ellipse cx="67.2222" cy="18.624" rx="0.222222" ry="0.220174" fill="#A6A6A6"/>
<ellipse cx="68.1111" cy="18.624" rx="0.222222" ry="0.220174" fill="#A6A6A6"/>
<ellipse cx="69.0001" cy="18.624" rx="0.222222" ry="0.220174" fill="#A6A6A6"/>
<ellipse cx="69.8887" cy="18.624" rx="0.222222" ry="0.220174" fill="#A6A6A6"/>
<ellipse cx="70.7776" cy="18.624" rx="0.222222" ry="0.220174" fill="#A6A6A6"/>
<ellipse cx="71.6666" cy="18.624" rx="0.222222" ry="0.220174" fill="#A6A6A6"/>
<ellipse cx="72.5557" cy="18.624" rx="0.222222" ry="0.220174" fill="#A6A6A6"/>
<ellipse cx="73.4444" cy="18.624" rx="0.222222" ry="0.220174" fill="#A6A6A6"/>
<ellipse cx="74.3335" cy="18.624" rx="0.222222" ry="0.220174" fill="#A6A6A6"/>
<ellipse cx="75.222" cy="18.624" rx="0.222222" ry="0.220174" fill="#A6A6A6"/>
<ellipse cx="76.1111" cy="18.624" rx="0.222222" ry="0.220174" fill="#A6A6A6"/>
<ellipse cx="67.2222" cy="19.5048" rx="0.222222" ry="0.220174" fill="#A6A6A6"/>
<ellipse cx="68.1111" cy="19.5048" rx="0.222222" ry="0.220174" fill="#A6A6A6"/>
<ellipse cx="69.0001" cy="19.5048" rx="0.222222" ry="0.220174" fill="#A6A6A6"/>
<ellipse cx="69.8887" cy="19.5048" rx="0.222222" ry="0.220174" fill="#A6A6A6"/>
<ellipse cx="70.7776" cy="19.5048" rx="0.222222" ry="0.220174" fill="#A6A6A6"/>
<ellipse cx="71.6666" cy="19.5048" rx="0.222222" ry="0.220174" fill="#A6A6A6"/>
<ellipse cx="72.5557" cy="19.5048" rx="0.222222" ry="0.220174" fill="#A6A6A6"/>
<ellipse cx="73.4444" cy="19.5048" rx="0.222222" ry="0.220174" fill="#A6A6A6"/>
<ellipse cx="74.3335" cy="19.5048" rx="0.222222" ry="0.220174" fill="#A6A6A6"/>
<ellipse cx="75.2222" cy="19.5048" rx="0.222222" ry="0.220174" fill="#A6A6A6"/>
<ellipse cx="76.1111" cy="19.5048" rx="0.222222" ry="0.220174" fill="#A6A6A6"/>
<ellipse cx="67.2222" cy="20.3857" rx="0.222222" ry="0.220174" fill="#A6A6A6"/>
<ellipse cx="68.1111" cy="20.3857" rx="0.222222" ry="0.220174" fill="#A6A6A6"/>
<ellipse cx="69.0001" cy="20.3857" rx="0.222222" ry="0.220174" fill="#A6A6A6"/>
<ellipse cx="69.8887" cy="20.3857" rx="0.222222" ry="0.220174" fill="#A6A6A6"/>
<ellipse cx="70.7776" cy="20.3857" rx="0.222222" ry="0.220174" fill="#A6A6A6"/>
<ellipse cx="71.6666" cy="20.3857" rx="0.222222" ry="0.220174" fill="#A6A6A6"/>
<ellipse cx="72.5557" cy="20.3857" rx="0.222222" ry="0.220174" fill="#A6A6A6"/>
<ellipse cx="73.4444" cy="20.3857" rx="0.222222" ry="0.220174" fill="#A6A6A6"/>
<ellipse cx="74.3335" cy="20.3857" rx="0.222222" ry="0.220174" fill="#A6A6A6"/>
<ellipse cx="75.222" cy="20.3857" rx="0.222222" ry="0.220174" fill="#A6A6A6"/>
<ellipse cx="76.1111" cy="20.3857" rx="0.222222" ry="0.220174" fill="#A6A6A6"/>
<ellipse cx="67.2222" cy="21.2661" rx="0.222222" ry="0.220174" fill="#A6A6A6"/>
<ellipse cx="68.1111" cy="21.2661" rx="0.222222" ry="0.220174" fill="#A6A6A6"/>
<ellipse cx="69.0001" cy="21.2661" rx="0.222222" ry="0.220174" fill="#A6A6A6"/>
<ellipse cx="69.8887" cy="21.2661" rx="0.222222" ry="0.220174" fill="#A6A6A6"/>
<ellipse cx="70.7776" cy="21.2661" rx="0.222222" ry="0.220174" fill="#A6A6A6"/>
<ellipse cx="71.6666" cy="21.2661" rx="0.222222" ry="0.220174" fill="#A6A6A6"/>
<ellipse cx="72.5557" cy="21.2661" rx="0.222222" ry="0.220174" fill="#A6A6A6"/>
<ellipse cx="73.4444" cy="21.2661" rx="0.222222" ry="0.220174" fill="#A6A6A6"/>
<ellipse cx="74.3335" cy="21.2661" rx="0.222222" ry="0.220174" fill="#A6A6A6"/>
<ellipse cx="75.222" cy="21.2661" rx="0.222222" ry="0.220174" fill="#A6A6A6"/>
<ellipse cx="76.1111" cy="21.2661" rx="0.222222" ry="0.220174" fill="#A6A6A6"/>
<ellipse cx="67.2222" cy="22.1469" rx="0.222222" ry="0.220174" fill="#A6A6A6"/>
<ellipse cx="68.1111" cy="22.1469" rx="0.222222" ry="0.220174" fill="#A6A6A6"/>
<ellipse cx="69.0001" cy="22.1469" rx="0.222222" ry="0.220174" fill="#A6A6A6"/>
<ellipse cx="69.8887" cy="22.1469" rx="0.222222" ry="0.220174" fill="#A6A6A6"/>
<ellipse cx="70.7776" cy="22.1469" rx="0.222222" ry="0.220174" fill="#A6A6A6"/>
<ellipse cx="71.6666" cy="22.1469" rx="0.222222" ry="0.220174" fill="#A6A6A6"/>
<ellipse cx="72.5557" cy="22.1469" rx="0.222222" ry="0.220174" fill="#A6A6A6"/>
<ellipse cx="73.4444" cy="22.1469" rx="0.222222" ry="0.220174" fill="#A6A6A6"/>
<ellipse cx="74.3335" cy="22.1469" rx="0.222222" ry="0.220174" fill="#A6A6A6"/>
<ellipse cx="75.2222" cy="22.1469" rx="0.222222" ry="0.220174" fill="#A6A6A6"/>
<ellipse cx="76.1111" cy="22.1469" rx="0.222222" ry="0.220174" fill="#A6A6A6"/>
<ellipse cx="67.2222" cy="23.0273" rx="0.222222" ry="0.220174" fill="#A6A6A6"/>
<ellipse cx="68.1111" cy="23.0273" rx="0.222222" ry="0.220174" fill="#A6A6A6"/>
<ellipse cx="69.0001" cy="23.0273" rx="0.222222" ry="0.220174" fill="#A6A6A6"/>
<ellipse cx="69.8887" cy="23.0273" rx="0.222222" ry="0.220174" fill="#A6A6A6"/>
<ellipse cx="70.7776" cy="23.0273" rx="0.222222" ry="0.220174" fill="#A6A6A6"/>
<ellipse cx="71.6666" cy="23.0273" rx="0.222222" ry="0.220174" fill="#A6A6A6"/>
<ellipse cx="72.5557" cy="23.0273" rx="0.222222" ry="0.220174" fill="#A6A6A6"/>
<ellipse cx="73.4444" cy="23.0273" rx="0.222222" ry="0.220174" fill="#A6A6A6"/>
<ellipse cx="74.3335" cy="23.0273" rx="0.222222" ry="0.220174" fill="#A6A6A6"/>
<ellipse cx="75.222" cy="23.0273" rx="0.222222" ry="0.220174" fill="#A6A6A6"/>
<ellipse cx="76.1111" cy="23.0273" rx="0.222222" ry="0.220174" fill="#A6A6A6"/>
<ellipse cx="67.2222" cy="23.9082" rx="0.222222" ry="0.220174" fill="#A6A6A6"/>
<ellipse cx="68.1111" cy="23.9082" rx="0.222222" ry="0.220174" fill="#A6A6A6"/>
<ellipse cx="69.0001" cy="23.9082" rx="0.222222" ry="0.220174" fill="#A6A6A6"/>
<ellipse cx="69.8887" cy="23.9082" rx="0.222222" ry="0.220174" fill="#A6A6A6"/>
<ellipse cx="70.7776" cy="23.9082" rx="0.222222" ry="0.220174" fill="#A6A6A6"/>
<ellipse cx="71.6666" cy="23.9082" rx="0.222222" ry="0.220174" fill="#A6A6A6"/>
<ellipse cx="72.5557" cy="23.9082" rx="0.222222" ry="0.220174" fill="#A6A6A6"/>
<ellipse cx="73.4444" cy="23.9082" rx="0.222222" ry="0.220174" fill="#A6A6A6"/>
<ellipse cx="74.3335" cy="23.9082" rx="0.222222" ry="0.220174" fill="#A6A6A6"/>
<ellipse cx="75.222" cy="23.9082" rx="0.222222" ry="0.220174" fill="#A6A6A6"/>
<ellipse cx="76.1111" cy="23.9082" rx="0.222222" ry="0.220174" fill="#A6A6A6"/>
<ellipse cx="67.2222" cy="24.789" rx="0.222222" ry="0.220174" fill="#A6A6A6"/>
<ellipse cx="68.1111" cy="24.789" rx="0.222222" ry="0.220174" fill="#A6A6A6"/>
<ellipse cx="69.0001" cy="24.789" rx="0.222222" ry="0.220174" fill="#A6A6A6"/>
<ellipse cx="69.8887" cy="24.789" rx="0.222222" ry="0.220174" fill="#A6A6A6"/>
<ellipse cx="70.7776" cy="24.789" rx="0.222222" ry="0.220174" fill="#A6A6A6"/>
<ellipse cx="71.6666" cy="24.789" rx="0.222222" ry="0.220174" fill="#A6A6A6"/>
<ellipse cx="72.5557" cy="24.789" rx="0.222222" ry="0.220174" fill="#A6A6A6"/>
<ellipse cx="73.4444" cy="24.789" rx="0.222222" ry="0.220174" fill="#A6A6A6"/>
<ellipse cx="74.3335" cy="24.789" rx="0.222222" ry="0.220174" fill="#A6A6A6"/>
<ellipse cx="75.2222" cy="24.789" rx="0.222222" ry="0.220174" fill="#A6A6A6"/>
<ellipse cx="76.1111" cy="24.789" rx="0.222222" ry="0.220174" fill="#A6A6A6"/>
<ellipse cx="67.2222" cy="25.6699" rx="0.222222" ry="0.220174" fill="#A6A6A6"/>
<ellipse cx="68.1111" cy="25.6699" rx="0.222222" ry="0.220174" fill="#A6A6A6"/>
<ellipse cx="69.0001" cy="25.6699" rx="0.222222" ry="0.220174" fill="#A6A6A6"/>
<ellipse cx="69.8887" cy="25.6699" rx="0.222222" ry="0.220174" fill="#A6A6A6"/>
<ellipse cx="70.7776" cy="25.6699" rx="0.222222" ry="0.220174" fill="#A6A6A6"/>
<ellipse cx="71.6666" cy="25.6699" rx="0.222222" ry="0.220174" fill="#A6A6A6"/>
<ellipse cx="72.5557" cy="25.6699" rx="0.222222" ry="0.220174" fill="#A6A6A6"/>
<ellipse cx="73.4444" cy="25.6699" rx="0.222222" ry="0.220174" fill="#A6A6A6"/>
<ellipse cx="74.3335" cy="25.6699" rx="0.222222" ry="0.220174" fill="#A6A6A6"/>
<ellipse cx="75.222" cy="25.6699" rx="0.222222" ry="0.220174" fill="#A6A6A6"/>
<ellipse cx="76.1111" cy="25.6699" rx="0.222222" ry="0.220174" fill="#A6A6A6"/>
<ellipse cx="67.2222" cy="26.5503" rx="0.222222" ry="0.220174" fill="#A6A6A6"/>
<ellipse cx="68.1111" cy="26.5503" rx="0.222222" ry="0.220174" fill="#A6A6A6"/>
<ellipse cx="69.0001" cy="26.5503" rx="0.222222" ry="0.220174" fill="#A6A6A6"/>
<ellipse cx="69.8887" cy="26.5503" rx="0.222222" ry="0.220174" fill="#A6A6A6"/>
<ellipse cx="70.7776" cy="26.5503" rx="0.222222" ry="0.220174" fill="#A6A6A6"/>
<ellipse cx="71.6666" cy="26.5503" rx="0.222222" ry="0.220174" fill="#A6A6A6"/>
<ellipse cx="72.5557" cy="26.5503" rx="0.222222" ry="0.220174" fill="#A6A6A6"/>
<ellipse cx="73.4444" cy="26.5503" rx="0.222222" ry="0.220174" fill="#A6A6A6"/>
<ellipse cx="74.3335" cy="26.5503" rx="0.222222" ry="0.220174" fill="#A6A6A6"/>
<ellipse cx="75.222" cy="26.5503" rx="0.222222" ry="0.220174" fill="#A6A6A6"/>
<ellipse cx="76.1111" cy="26.5503" rx="0.222222" ry="0.220174" fill="#A6A6A6"/>
<ellipse cx="67.2222" cy="27.4311" rx="0.222222" ry="0.220174" fill="#A6A6A6"/>
<ellipse cx="68.1111" cy="27.4311" rx="0.222222" ry="0.220174" fill="#A6A6A6"/>
<ellipse cx="69.0001" cy="27.4311" rx="0.222222" ry="0.220174" fill="#A6A6A6"/>
<ellipse cx="69.8887" cy="27.4311" rx="0.222222" ry="0.220174" fill="#A6A6A6"/>
<ellipse cx="70.7776" cy="27.4311" rx="0.222222" ry="0.220174" fill="#A6A6A6"/>
<ellipse cx="71.6666" cy="27.4311" rx="0.222222" ry="0.220174" fill="#A6A6A6"/>
<ellipse cx="72.5557" cy="27.4311" rx="0.222222" ry="0.220174" fill="#A6A6A6"/>
<ellipse cx="73.4444" cy="27.4311" rx="0.222222" ry="0.220174" fill="#A6A6A6"/>
<ellipse cx="74.3335" cy="27.4311" rx="0.222222" ry="0.220174" fill="#A6A6A6"/>
<ellipse cx="75.2222" cy="27.4311" rx="0.222222" ry="0.220174" fill="#A6A6A6"/>
<ellipse cx="76.1111" cy="27.4311" rx="0.222222" ry="0.220174" fill="#A6A6A6"/>
<ellipse cx="67.2222" cy="28.3115" rx="0.222222" ry="0.220174" fill="#A6A6A6"/>
<ellipse cx="68.1111" cy="28.3115" rx="0.222222" ry="0.220174" fill="#A6A6A6"/>
<ellipse cx="69.0001" cy="28.3115" rx="0.222222" ry="0.220174" fill="#A6A6A6"/>
<ellipse cx="69.8887" cy="28.3115" rx="0.222222" ry="0.220174" fill="#A6A6A6"/>
<ellipse cx="70.7776" cy="28.3115" rx="0.222222" ry="0.220174" fill="#A6A6A6"/>
<ellipse cx="71.6666" cy="28.3115" rx="0.222222" ry="0.220174" fill="#A6A6A6"/>
<ellipse cx="72.5557" cy="28.3115" rx="0.222222" ry="0.220174" fill="#A6A6A6"/>
<ellipse cx="73.4444" cy="28.3115" rx="0.222222" ry="0.220174" fill="#A6A6A6"/>
<ellipse cx="74.3335" cy="28.3115" rx="0.222222" ry="0.220174" fill="#A6A6A6"/>
<ellipse cx="75.2222" cy="28.3115" rx="0.222222" ry="0.220174" fill="#A6A6A6"/>
<ellipse cx="76.1111" cy="28.3115" rx="0.222222" ry="0.220174" fill="#A6A6A6"/>
<ellipse cx="67.2222" cy="29.1923" rx="0.222222" ry="0.220174" fill="#A6A6A6"/>
<ellipse cx="68.1111" cy="29.1923" rx="0.222222" ry="0.220174" fill="#A6A6A6"/>
<ellipse cx="69.0001" cy="29.1923" rx="0.222222" ry="0.220174" fill="#A6A6A6"/>
<ellipse cx="69.8887" cy="29.1923" rx="0.222222" ry="0.220174" fill="#A6A6A6"/>
<ellipse cx="70.7776" cy="29.1923" rx="0.222222" ry="0.220174" fill="#A6A6A6"/>
<ellipse cx="71.6666" cy="29.1923" rx="0.222222" ry="0.220174" fill="#A6A6A6"/>
<ellipse cx="72.5557" cy="29.1923" rx="0.222222" ry="0.220174" fill="#A6A6A6"/>
<ellipse cx="73.4444" cy="29.1923" rx="0.222222" ry="0.220174" fill="#A6A6A6"/>
<ellipse cx="74.3335" cy="29.1923" rx="0.222222" ry="0.220174" fill="#A6A6A6"/>
<ellipse cx="75.222" cy="29.1923" rx="0.222222" ry="0.220174" fill="#A6A6A6"/>
<ellipse cx="76.1111" cy="29.1923" rx="0.222222" ry="0.220174" fill="#A6A6A6"/>
<ellipse cx="67.2222" cy="30.0732" rx="0.222222" ry="0.220174" fill="#A6A6A6"/>
<ellipse cx="68.1111" cy="30.0732" rx="0.222222" ry="0.220174" fill="#A6A6A6"/>
<ellipse cx="69.0001" cy="30.0732" rx="0.222222" ry="0.220174" fill="#A6A6A6"/>
<ellipse cx="69.8887" cy="30.0732" rx="0.222222" ry="0.220174" fill="#A6A6A6"/>
<ellipse cx="70.7776" cy="30.0732" rx="0.222222" ry="0.220174" fill="#A6A6A6"/>
<ellipse cx="71.6666" cy="30.0732" rx="0.222222" ry="0.220174" fill="#A6A6A6"/>
<ellipse cx="72.5557" cy="30.0732" rx="0.222222" ry="0.220174" fill="#A6A6A6"/>
<ellipse cx="73.4444" cy="30.0732" rx="0.222222" ry="0.220174" fill="#A6A6A6"/>
<ellipse cx="74.3335" cy="30.0732" rx="0.222222" ry="0.220174" fill="#A6A6A6"/>
<ellipse cx="75.222" cy="30.0732" rx="0.222222" ry="0.220174" fill="#A6A6A6"/>
<ellipse cx="76.1111" cy="30.0732" rx="0.222222" ry="0.220174" fill="#A6A6A6"/>
<ellipse cx="67.2222" cy="30.9541" rx="0.222222" ry="0.220174" fill="#A6A6A6"/>
<ellipse cx="68.1111" cy="30.9541" rx="0.222222" ry="0.220174" fill="#A6A6A6"/>
<ellipse cx="69.0001" cy="30.9541" rx="0.222222" ry="0.220174" fill="#A6A6A6"/>
<ellipse cx="69.8887" cy="30.9541" rx="0.222222" ry="0.220174" fill="#A6A6A6"/>
<ellipse cx="70.7776" cy="30.9541" rx="0.222222" ry="0.220174" fill="#A6A6A6"/>
<ellipse cx="71.6666" cy="30.9541" rx="0.222222" ry="0.220174" fill="#A6A6A6"/>
<ellipse cx="72.5557" cy="30.9541" rx="0.222222" ry="0.220174" fill="#A6A6A6"/>
<ellipse cx="73.4444" cy="30.9541" rx="0.222222" ry="0.220174" fill="#A6A6A6"/>
<ellipse cx="74.3335" cy="30.9541" rx="0.222222" ry="0.220174" fill="#A6A6A6"/>
<ellipse cx="75.2222" cy="30.9541" rx="0.222222" ry="0.220174" fill="#A6A6A6"/>
<ellipse cx="76.1111" cy="30.9541" rx="0.222222" ry="0.220174" fill="#A6A6A6"/>
<ellipse cx="67.2222" cy="31.8344" rx="0.222222" ry="0.220174" fill="#A6A6A6"/>
<ellipse cx="68.1111" cy="31.8344" rx="0.222222" ry="0.220174" fill="#A6A6A6"/>
<ellipse cx="69.0001" cy="31.8344" rx="0.222222" ry="0.220174" fill="#A6A6A6"/>
<ellipse cx="69.8887" cy="31.8344" rx="0.222222" ry="0.220174" fill="#A6A6A6"/>
<ellipse cx="70.7776" cy="31.8344" rx="0.222222" ry="0.220174" fill="#A6A6A6"/>
<ellipse cx="71.6666" cy="31.8344" rx="0.222222" ry="0.220174" fill="#A6A6A6"/>
<ellipse cx="72.5557" cy="31.8344" rx="0.222222" ry="0.220174" fill="#A6A6A6"/>
<ellipse cx="73.4444" cy="31.8344" rx="0.222222" ry="0.220174" fill="#A6A6A6"/>
<ellipse cx="74.3335" cy="31.8344" rx="0.222222" ry="0.220174" fill="#A6A6A6"/>
<ellipse cx="75.222" cy="31.8344" rx="0.222222" ry="0.220174" fill="#A6A6A6"/>
<ellipse cx="76.1111" cy="31.8344" rx="0.222222" ry="0.220174" fill="#A6A6A6"/>
<ellipse cx="67.2222" cy="32.7153" rx="0.222222" ry="0.220174" fill="#A6A6A6"/>
<ellipse cx="68.1111" cy="32.7153" rx="0.222222" ry="0.220174" fill="#A6A6A6"/>
<ellipse cx="69.0001" cy="32.7153" rx="0.222222" ry="0.220174" fill="#A6A6A6"/>
<ellipse cx="69.8887" cy="32.7153" rx="0.222222" ry="0.220174" fill="#A6A6A6"/>
<ellipse cx="70.7776" cy="32.7153" rx="0.222222" ry="0.220174" fill="#A6A6A6"/>
<ellipse cx="71.6666" cy="32.7153" rx="0.222222" ry="0.220174" fill="#A6A6A6"/>
<ellipse cx="72.5557" cy="32.7153" rx="0.222222" ry="0.220174" fill="#A6A6A6"/>
<ellipse cx="73.4444" cy="32.7153" rx="0.222222" ry="0.220174" fill="#A6A6A6"/>
<ellipse cx="74.3335" cy="32.7153" rx="0.222222" ry="0.220174" fill="#A6A6A6"/>
<ellipse cx="75.222" cy="32.7153" rx="0.222222" ry="0.220174" fill="#A6A6A6"/>
<ellipse cx="76.1111" cy="32.7153" rx="0.222222" ry="0.220174" fill="#A6A6A6"/>
<ellipse cx="77.0005" cy="14.2212" rx="0.222222" ry="0.220174" fill="#A6A6A6"/>
<ellipse cx="77.889" cy="14.2202" rx="0.222222" ry="0.220174" fill="#A6A6A6"/>
<ellipse cx="78.7779" cy="14.2202" rx="0.222222" ry="0.220174" fill="#A6A6A6"/>
<ellipse cx="79.6666" cy="14.2202" rx="0.222222" ry="0.220174" fill="#A6A6A6"/>
<ellipse cx="80.5555" cy="14.2202" rx="0.222222" ry="0.220174" fill="#A6A6A6"/>
<ellipse cx="81.4444" cy="14.2202" rx="0.222222" ry="0.220174" fill="#A6A6A6"/>
<ellipse cx="82.3333" cy="14.2202" rx="0.222222" ry="0.220174" fill="#A6A6A6"/>
<ellipse cx="83.2222" cy="14.2202" rx="0.222222" ry="0.220174" fill="#A6A6A6"/>
<ellipse cx="84.1109" cy="14.2202" rx="0.222222" ry="0.220174" fill="#A6A6A6"/>
<ellipse cx="85.0001" cy="14.2202" rx="0.222222" ry="0.220174" fill="#A6A6A6"/>
<ellipse cx="85.889" cy="14.2202" rx="0.222222" ry="0.220174" fill="#A6A6A6"/>
<ellipse cx="77.0001" cy="15.101" rx="0.222222" ry="0.220174" fill="#A6A6A6"/>
<ellipse cx="77.889" cy="15.101" rx="0.222222" ry="0.220174" fill="#A6A6A6"/>
<ellipse cx="78.7779" cy="15.101" rx="0.222222" ry="0.220174" fill="#A6A6A6"/>
<ellipse cx="79.6666" cy="15.101" rx="0.222222" ry="0.220174" fill="#A6A6A6"/>
<ellipse cx="80.5555" cy="15.101" rx="0.222222" ry="0.220174" fill="#A6A6A6"/>
<ellipse cx="81.4444" cy="15.101" rx="0.222222" ry="0.220174" fill="#A6A6A6"/>
<ellipse cx="82.3333" cy="15.101" rx="0.222222" ry="0.220174" fill="#A6A6A6"/>
<ellipse cx="83.2222" cy="15.101" rx="0.222222" ry="0.220174" fill="#A6A6A6"/>
<ellipse cx="84.1109" cy="15.101" rx="0.222222" ry="0.220174" fill="#A6A6A6"/>
<ellipse cx="85.0001" cy="15.101" rx="0.222222" ry="0.220174" fill="#A6A6A6"/>
<ellipse cx="85.889" cy="15.101" rx="0.222222" ry="0.220174" fill="#A6A6A6"/>
<ellipse cx="77.0001" cy="15.9814" rx="0.222222" ry="0.220174" fill="#A6A6A6"/>
<ellipse cx="77.889" cy="15.9814" rx="0.222222" ry="0.220174" fill="#A6A6A6"/>
<ellipse cx="78.7779" cy="15.9814" rx="0.222222" ry="0.220174" fill="#A6A6A6"/>
<ellipse cx="79.6666" cy="15.9814" rx="0.222222" ry="0.220174" fill="#A6A6A6"/>
<ellipse cx="80.5555" cy="15.9814" rx="0.222222" ry="0.220174" fill="#A6A6A6"/>
<ellipse cx="81.4444" cy="15.9814" rx="0.222222" ry="0.220174" fill="#A6A6A6"/>
<ellipse cx="82.3333" cy="15.9814" rx="0.222222" ry="0.220174" fill="#A6A6A6"/>
<ellipse cx="83.2222" cy="15.9814" rx="0.222222" ry="0.220174" fill="#A6A6A6"/>
<ellipse cx="84.1109" cy="15.9814" rx="0.222222" ry="0.220174" fill="#A6A6A6"/>
<ellipse cx="85.0001" cy="15.9814" rx="0.222222" ry="0.220174" fill="#A6A6A6"/>
<ellipse cx="85.889" cy="15.9814" rx="0.222222" ry="0.220174" fill="#A6A6A6"/>
<ellipse cx="77.0001" cy="16.8623" rx="0.222222" ry="0.220174" fill="#A6A6A6"/>
<ellipse cx="77.889" cy="16.8623" rx="0.222222" ry="0.220174" fill="#A6A6A6"/>
<ellipse cx="78.7779" cy="16.8623" rx="0.222222" ry="0.220174" fill="#A6A6A6"/>
<ellipse cx="79.6666" cy="16.8623" rx="0.222222" ry="0.220174" fill="#A6A6A6"/>
<ellipse cx="80.5555" cy="16.8623" rx="0.222222" ry="0.220174" fill="#A6A6A6"/>
<ellipse cx="81.4444" cy="16.8623" rx="0.222222" ry="0.220174" fill="#A6A6A6"/>
<ellipse cx="82.3333" cy="16.8623" rx="0.222222" ry="0.220174" fill="#A6A6A6"/>
<ellipse cx="83.2222" cy="16.8623" rx="0.222222" ry="0.220174" fill="#A6A6A6"/>
<ellipse cx="84.1109" cy="16.8623" rx="0.222222" ry="0.220174" fill="#A6A6A6"/>
<ellipse cx="85.0001" cy="16.8623" rx="0.222222" ry="0.220174" fill="#A6A6A6"/>
<ellipse cx="85.889" cy="16.8623" rx="0.222222" ry="0.220174" fill="#A6A6A6"/>
<ellipse cx="77.0001" cy="17.7431" rx="0.222222" ry="0.220174" fill="#A6A6A6"/>
<ellipse cx="77.889" cy="17.7431" rx="0.222222" ry="0.220174" fill="#A6A6A6"/>
<ellipse cx="78.7779" cy="17.7431" rx="0.222222" ry="0.220174" fill="#A6A6A6"/>
<ellipse cx="79.6666" cy="17.7431" rx="0.222222" ry="0.220174" fill="#A6A6A6"/>
<ellipse cx="80.5555" cy="17.7431" rx="0.222222" ry="0.220174" fill="#A6A6A6"/>
<ellipse cx="81.4444" cy="17.7431" rx="0.222222" ry="0.220174" fill="#A6A6A6"/>
<ellipse cx="82.3333" cy="17.7431" rx="0.222222" ry="0.220174" fill="#A6A6A6"/>
<ellipse cx="83.2222" cy="17.7431" rx="0.222222" ry="0.220174" fill="#A6A6A6"/>
<ellipse cx="84.1109" cy="17.7431" rx="0.222222" ry="0.220174" fill="#A6A6A6"/>
<ellipse cx="85.0001" cy="17.7431" rx="0.222222" ry="0.220174" fill="#A6A6A6"/>
<ellipse cx="85.889" cy="17.7431" rx="0.222222" ry="0.220174" fill="#A6A6A6"/>
<ellipse cx="77.0001" cy="18.624" rx="0.222222" ry="0.220174" fill="#A6A6A6"/>
<ellipse cx="77.889" cy="18.624" rx="0.222222" ry="0.220174" fill="#A6A6A6"/>
<ellipse cx="78.7779" cy="18.624" rx="0.222222" ry="0.220174" fill="#A6A6A6"/>
<ellipse cx="79.6666" cy="18.624" rx="0.222222" ry="0.220174" fill="#A6A6A6"/>
<ellipse cx="80.5555" cy="18.624" rx="0.222222" ry="0.220174" fill="#A6A6A6"/>
<ellipse cx="81.4444" cy="18.624" rx="0.222222" ry="0.220174" fill="#A6A6A6"/>
<ellipse cx="82.3333" cy="18.624" rx="0.222222" ry="0.220174" fill="#A6A6A6"/>
<ellipse cx="83.2222" cy="18.624" rx="0.222222" ry="0.220174" fill="#A6A6A6"/>
<ellipse cx="84.1109" cy="18.624" rx="0.222222" ry="0.220174" fill="#A6A6A6"/>
<ellipse cx="85.0001" cy="18.624" rx="0.222222" ry="0.220174" fill="#A6A6A6"/>
<ellipse cx="85.889" cy="18.624" rx="0.222222" ry="0.220174" fill="#A6A6A6"/>
<ellipse cx="77.0001" cy="19.5044" rx="0.222222" ry="0.220174" fill="#A6A6A6"/>
<ellipse cx="77.889" cy="19.5044" rx="0.222222" ry="0.220174" fill="#A6A6A6"/>
<ellipse cx="78.7779" cy="19.5044" rx="0.222222" ry="0.220174" fill="#A6A6A6"/>
<ellipse cx="79.6666" cy="19.5044" rx="0.222222" ry="0.220174" fill="#A6A6A6"/>
<ellipse cx="80.5555" cy="19.5044" rx="0.222222" ry="0.220174" fill="#A6A6A6"/>
<ellipse cx="81.4444" cy="19.5044" rx="0.222222" ry="0.220174" fill="#A6A6A6"/>
<ellipse cx="82.3333" cy="19.5044" rx="0.222222" ry="0.220174" fill="#A6A6A6"/>
<ellipse cx="83.2222" cy="19.5044" rx="0.222222" ry="0.220174" fill="#A6A6A6"/>
<ellipse cx="84.1109" cy="19.5044" rx="0.222222" ry="0.220174" fill="#A6A6A6"/>
<ellipse cx="85.0001" cy="19.5044" rx="0.222222" ry="0.220174" fill="#A6A6A6"/>
<ellipse cx="85.889" cy="19.5044" rx="0.222222" ry="0.220174" fill="#A6A6A6"/>
<ellipse cx="77.0001" cy="20.3852" rx="0.222222" ry="0.220174" fill="#A6A6A6"/>
<ellipse cx="77.889" cy="20.3852" rx="0.222222" ry="0.220174" fill="#A6A6A6"/>
<ellipse cx="78.7779" cy="20.3852" rx="0.222222" ry="0.220174" fill="#A6A6A6"/>
<ellipse cx="79.6666" cy="20.3852" rx="0.222222" ry="0.220174" fill="#A6A6A6"/>
<ellipse cx="80.5555" cy="20.3852" rx="0.222222" ry="0.220174" fill="#A6A6A6"/>
<ellipse cx="81.4444" cy="20.3852" rx="0.222222" ry="0.220174" fill="#A6A6A6"/>
<ellipse cx="82.3333" cy="20.3852" rx="0.222222" ry="0.220174" fill="#A6A6A6"/>
<ellipse cx="83.2222" cy="20.3852" rx="0.222222" ry="0.220174" fill="#A6A6A6"/>
<ellipse cx="84.1109" cy="20.3852" rx="0.222222" ry="0.220174" fill="#A6A6A6"/>
<ellipse cx="85.0001" cy="20.3852" rx="0.222222" ry="0.220174" fill="#A6A6A6"/>
<ellipse cx="85.889" cy="20.3852" rx="0.222222" ry="0.220174" fill="#A6A6A6"/>
<ellipse cx="77.0001" cy="21.2656" rx="0.222222" ry="0.220174" fill="#A6A6A6"/>
<ellipse cx="77.889" cy="21.2656" rx="0.222222" ry="0.220174" fill="#A6A6A6"/>
<ellipse cx="78.7779" cy="21.2656" rx="0.222222" ry="0.220174" fill="#A6A6A6"/>
<ellipse cx="79.6666" cy="21.2656" rx="0.222222" ry="0.220174" fill="#A6A6A6"/>
<ellipse cx="80.5555" cy="21.2656" rx="0.222222" ry="0.220174" fill="#A6A6A6"/>
<ellipse cx="81.4444" cy="21.2656" rx="0.222222" ry="0.220174" fill="#A6A6A6"/>
<ellipse cx="82.3333" cy="21.2656" rx="0.222222" ry="0.220174" fill="#A6A6A6"/>
<ellipse cx="83.2222" cy="21.2656" rx="0.222222" ry="0.220174" fill="#A6A6A6"/>
<ellipse cx="84.1109" cy="21.2656" rx="0.222222" ry="0.220174" fill="#A6A6A6"/>
<ellipse cx="85.0001" cy="21.2656" rx="0.222222" ry="0.220174" fill="#A6A6A6"/>
<ellipse cx="85.889" cy="21.2656" rx="0.222222" ry="0.220174" fill="#A6A6A6"/>
<ellipse cx="77.0001" cy="22.1464" rx="0.222222" ry="0.220174" fill="#A6A6A6"/>
<ellipse cx="77.889" cy="22.1464" rx="0.222222" ry="0.220174" fill="#A6A6A6"/>
<ellipse cx="78.7779" cy="22.1464" rx="0.222222" ry="0.220174" fill="#A6A6A6"/>
<ellipse cx="79.6666" cy="22.1464" rx="0.222222" ry="0.220174" fill="#A6A6A6"/>
<ellipse cx="80.5555" cy="22.1464" rx="0.222222" ry="0.220174" fill="#A6A6A6"/>
<ellipse cx="81.4444" cy="22.1464" rx="0.222222" ry="0.220174" fill="#A6A6A6"/>
<ellipse cx="82.3333" cy="22.1464" rx="0.222222" ry="0.220174" fill="#A6A6A6"/>
<ellipse cx="83.2222" cy="22.1464" rx="0.222222" ry="0.220174" fill="#A6A6A6"/>
<ellipse cx="84.1109" cy="22.1464" rx="0.222222" ry="0.220174" fill="#A6A6A6"/>
<ellipse cx="85.0001" cy="22.1464" rx="0.222222" ry="0.220174" fill="#A6A6A6"/>
<ellipse cx="85.889" cy="22.1464" rx="0.222222" ry="0.220174" fill="#A6A6A6"/>
<ellipse cx="77.0001" cy="23.0268" rx="0.222222" ry="0.220174" fill="#A6A6A6"/>
<ellipse cx="77.889" cy="23.0268" rx="0.222222" ry="0.220174" fill="#A6A6A6"/>
<ellipse cx="78.7779" cy="23.0268" rx="0.222222" ry="0.220174" fill="#A6A6A6"/>
<ellipse cx="79.6666" cy="23.0268" rx="0.222222" ry="0.220174" fill="#A6A6A6"/>
<ellipse cx="80.5555" cy="23.0268" rx="0.222222" ry="0.220174" fill="#A6A6A6"/>
<ellipse cx="81.4444" cy="23.0268" rx="0.222222" ry="0.220174" fill="#A6A6A6"/>
<ellipse cx="82.3333" cy="23.0268" rx="0.222222" ry="0.220174" fill="#A6A6A6"/>
<ellipse cx="83.2222" cy="23.0268" rx="0.222222" ry="0.220174" fill="#A6A6A6"/>
<ellipse cx="84.1109" cy="23.0268" rx="0.222222" ry="0.220174" fill="#A6A6A6"/>
<ellipse cx="85.0001" cy="23.0268" rx="0.222222" ry="0.220174" fill="#A6A6A6"/>
<ellipse cx="85.889" cy="23.0268" rx="0.222222" ry="0.220174" fill="#A6A6A6"/>
<ellipse cx="77.0001" cy="23.9077" rx="0.222222" ry="0.220174" fill="#A6A6A6"/>
<ellipse cx="77.889" cy="23.9077" rx="0.222222" ry="0.220174" fill="#A6A6A6"/>
<ellipse cx="78.7779" cy="23.9077" rx="0.222222" ry="0.220174" fill="#A6A6A6"/>
<ellipse cx="79.6666" cy="23.9077" rx="0.222222" ry="0.220174" fill="#A6A6A6"/>
<ellipse cx="80.5555" cy="23.9077" rx="0.222222" ry="0.220174" fill="#A6A6A6"/>
<ellipse cx="81.4444" cy="23.9077" rx="0.222222" ry="0.220174" fill="#A6A6A6"/>
<ellipse cx="82.3333" cy="23.9077" rx="0.222222" ry="0.220174" fill="#A6A6A6"/>
<ellipse cx="83.2222" cy="23.9077" rx="0.222222" ry="0.220174" fill="#A6A6A6"/>
<ellipse cx="84.1109" cy="23.9077" rx="0.222222" ry="0.220174" fill="#A6A6A6"/>
<ellipse cx="85.0001" cy="23.9077" rx="0.222222" ry="0.220174" fill="#A6A6A6"/>
<ellipse cx="85.889" cy="23.9077" rx="0.222222" ry="0.220174" fill="#A6A6A6"/>
<ellipse cx="77.0001" cy="24.789" rx="0.222222" ry="0.220174" fill="#A6A6A6"/>
<ellipse cx="77.889" cy="24.789" rx="0.222222" ry="0.220174" fill="#A6A6A6"/>
<ellipse cx="78.7779" cy="24.789" rx="0.222222" ry="0.220174" fill="#A6A6A6"/>
<ellipse cx="79.6666" cy="24.789" rx="0.222222" ry="0.220174" fill="#A6A6A6"/>
<ellipse cx="80.5555" cy="24.789" rx="0.222222" ry="0.220174" fill="#A6A6A6"/>
<ellipse cx="81.4444" cy="24.789" rx="0.222222" ry="0.220174" fill="#A6A6A6"/>
<ellipse cx="82.3333" cy="24.789" rx="0.222222" ry="0.220174" fill="#A6A6A6"/>
<ellipse cx="83.2222" cy="24.789" rx="0.222222" ry="0.220174" fill="#A6A6A6"/>
<ellipse cx="84.1109" cy="24.789" rx="0.222222" ry="0.220174" fill="#A6A6A6"/>
<ellipse cx="85.0001" cy="24.789" rx="0.222222" ry="0.220174" fill="#A6A6A6"/>
<ellipse cx="85.889" cy="24.789" rx="0.222222" ry="0.220174" fill="#A6A6A6"/>
<ellipse cx="77.0001" cy="25.6694" rx="0.222222" ry="0.220174" fill="#A6A6A6"/>
<ellipse cx="77.889" cy="25.6694" rx="0.222222" ry="0.220174" fill="#A6A6A6"/>
<ellipse cx="78.7779" cy="25.6694" rx="0.222222" ry="0.220174" fill="#A6A6A6"/>
<ellipse cx="79.6666" cy="25.6694" rx="0.222222" ry="0.220174" fill="#A6A6A6"/>
<ellipse cx="80.5555" cy="25.6694" rx="0.222222" ry="0.220174" fill="#A6A6A6"/>
<ellipse cx="81.4444" cy="25.6694" rx="0.222222" ry="0.220174" fill="#A6A6A6"/>
<ellipse cx="82.3333" cy="25.6694" rx="0.222222" ry="0.220174" fill="#A6A6A6"/>
<ellipse cx="83.2222" cy="25.6694" rx="0.222222" ry="0.220174" fill="#A6A6A6"/>
<ellipse cx="84.1109" cy="25.6694" rx="0.222222" ry="0.220174" fill="#A6A6A6"/>
<ellipse cx="85.0001" cy="25.6694" rx="0.222222" ry="0.220174" fill="#A6A6A6"/>
<ellipse cx="85.889" cy="25.6694" rx="0.222222" ry="0.220174" fill="#A6A6A6"/>
<ellipse cx="77.0001" cy="26.5498" rx="0.222222" ry="0.220174" fill="#A6A6A6"/>
<ellipse cx="77.889" cy="26.5498" rx="0.222222" ry="0.220174" fill="#A6A6A6"/>
<ellipse cx="78.7779" cy="26.5498" rx="0.222222" ry="0.220174" fill="#A6A6A6"/>
<ellipse cx="79.6666" cy="26.5498" rx="0.222222" ry="0.220174" fill="#A6A6A6"/>
<ellipse cx="80.5555" cy="26.5498" rx="0.222222" ry="0.220174" fill="#A6A6A6"/>
<ellipse cx="81.4444" cy="26.5498" rx="0.222222" ry="0.220174" fill="#A6A6A6"/>
<ellipse cx="82.3333" cy="26.5498" rx="0.222222" ry="0.220174" fill="#A6A6A6"/>
<ellipse cx="83.2222" cy="26.5498" rx="0.222222" ry="0.220174" fill="#A6A6A6"/>
<ellipse cx="84.1109" cy="26.5498" rx="0.222222" ry="0.220174" fill="#A6A6A6"/>
<ellipse cx="85.0001" cy="26.5498" rx="0.222222" ry="0.220174" fill="#A6A6A6"/>
<ellipse cx="85.889" cy="26.5498" rx="0.222222" ry="0.220174" fill="#A6A6A6"/>
<ellipse cx="77.0001" cy="27.4306" rx="0.222222" ry="0.220174" fill="#A6A6A6"/>
<ellipse cx="77.889" cy="27.4306" rx="0.222222" ry="0.220174" fill="#A6A6A6"/>
<ellipse cx="78.7779" cy="27.4306" rx="0.222222" ry="0.220174" fill="#A6A6A6"/>
<ellipse cx="79.6666" cy="27.4306" rx="0.222222" ry="0.220174" fill="#A6A6A6"/>
<ellipse cx="80.5555" cy="27.4306" rx="0.222222" ry="0.220174" fill="#A6A6A6"/>
<ellipse cx="81.4444" cy="27.4306" rx="0.222222" ry="0.220174" fill="#A6A6A6"/>
<ellipse cx="82.3333" cy="27.4306" rx="0.222222" ry="0.220174" fill="#A6A6A6"/>
<ellipse cx="83.2222" cy="27.4306" rx="0.222222" ry="0.220174" fill="#A6A6A6"/>
<ellipse cx="84.1109" cy="27.4306" rx="0.222222" ry="0.220174" fill="#A6A6A6"/>
<ellipse cx="85.0001" cy="27.4306" rx="0.222222" ry="0.220174" fill="#A6A6A6"/>
<ellipse cx="85.889" cy="27.4306" rx="0.222222" ry="0.220174" fill="#A6A6A6"/>
<ellipse cx="77.0001" cy="28.3115" rx="0.222222" ry="0.220174" fill="#A6A6A6"/>
<ellipse cx="77.889" cy="28.3115" rx="0.222222" ry="0.220174" fill="#A6A6A6"/>
<ellipse cx="78.7779" cy="28.3115" rx="0.222222" ry="0.220174" fill="#A6A6A6"/>
<ellipse cx="79.6666" cy="28.3115" rx="0.222222" ry="0.220174" fill="#A6A6A6"/>
<ellipse cx="80.5555" cy="28.3115" rx="0.222222" ry="0.220174" fill="#A6A6A6"/>
<ellipse cx="81.4444" cy="28.3115" rx="0.222222" ry="0.220174" fill="#A6A6A6"/>
<ellipse cx="82.3333" cy="28.3115" rx="0.222222" ry="0.220174" fill="#A6A6A6"/>
<ellipse cx="83.2222" cy="28.3115" rx="0.222222" ry="0.220174" fill="#A6A6A6"/>
<ellipse cx="84.1109" cy="28.3115" rx="0.222222" ry="0.220174" fill="#A6A6A6"/>
<ellipse cx="85.0001" cy="28.3115" rx="0.222222" ry="0.220174" fill="#A6A6A6"/>
<ellipse cx="85.889" cy="28.3115" rx="0.222222" ry="0.220174" fill="#A6A6A6"/>
<ellipse cx="77.0001" cy="29.1919" rx="0.222222" ry="0.220174" fill="#A6A6A6"/>
<ellipse cx="77.889" cy="29.1919" rx="0.222222" ry="0.220174" fill="#A6A6A6"/>
<ellipse cx="78.7779" cy="29.1919" rx="0.222222" ry="0.220174" fill="#A6A6A6"/>
<ellipse cx="79.6666" cy="29.1919" rx="0.222222" ry="0.220174" fill="#A6A6A6"/>
<ellipse cx="80.5555" cy="29.1919" rx="0.222222" ry="0.220174" fill="#A6A6A6"/>
<ellipse cx="81.4444" cy="29.1919" rx="0.222222" ry="0.220174" fill="#A6A6A6"/>
<ellipse cx="82.3333" cy="29.1919" rx="0.222222" ry="0.220174" fill="#A6A6A6"/>
<ellipse cx="83.2222" cy="29.1919" rx="0.222222" ry="0.220174" fill="#A6A6A6"/>
<ellipse cx="84.1109" cy="29.1919" rx="0.222222" ry="0.220174" fill="#A6A6A6"/>
<ellipse cx="85.0001" cy="29.1919" rx="0.222222" ry="0.220174" fill="#A6A6A6"/>
<ellipse cx="85.889" cy="29.1919" rx="0.222222" ry="0.220174" fill="#A6A6A6"/>
<ellipse cx="77.0001" cy="30.0727" rx="0.222222" ry="0.220174" fill="#A6A6A6"/>
<ellipse cx="77.889" cy="30.0727" rx="0.222222" ry="0.220174" fill="#A6A6A6"/>
<ellipse cx="78.7779" cy="30.0727" rx="0.222222" ry="0.220174" fill="#A6A6A6"/>
<ellipse cx="79.6666" cy="30.0727" rx="0.222222" ry="0.220174" fill="#A6A6A6"/>
<ellipse cx="80.5555" cy="30.0727" rx="0.222222" ry="0.220174" fill="#A6A6A6"/>
<ellipse cx="81.4444" cy="30.0727" rx="0.222222" ry="0.220174" fill="#A6A6A6"/>
<ellipse cx="82.3333" cy="30.0727" rx="0.222222" ry="0.220174" fill="#A6A6A6"/>
<ellipse cx="83.2222" cy="30.0727" rx="0.222222" ry="0.220174" fill="#A6A6A6"/>
<ellipse cx="84.1109" cy="30.0727" rx="0.222222" ry="0.220174" fill="#A6A6A6"/>
<ellipse cx="85.0001" cy="30.0727" rx="0.222222" ry="0.220174" fill="#A6A6A6"/>
<ellipse cx="85.889" cy="30.0727" rx="0.222222" ry="0.220174" fill="#A6A6A6"/>
<ellipse cx="77.0001" cy="30.9531" rx="0.222222" ry="0.220174" fill="#A6A6A6"/>
<ellipse cx="77.889" cy="30.9531" rx="0.222222" ry="0.220174" fill="#A6A6A6"/>
<ellipse cx="78.7779" cy="30.9531" rx="0.222222" ry="0.220174" fill="#A6A6A6"/>
<ellipse cx="79.6666" cy="30.9531" rx="0.222222" ry="0.220174" fill="#A6A6A6"/>
<ellipse cx="80.5555" cy="30.9531" rx="0.222222" ry="0.220174" fill="#A6A6A6"/>
<ellipse cx="81.4444" cy="30.9531" rx="0.222222" ry="0.220174" fill="#A6A6A6"/>
<ellipse cx="82.3333" cy="30.9531" rx="0.222222" ry="0.220174" fill="#A6A6A6"/>
<ellipse cx="83.2222" cy="30.9531" rx="0.222222" ry="0.220174" fill="#A6A6A6"/>
<ellipse cx="84.1109" cy="30.9531" rx="0.222222" ry="0.220174" fill="#A6A6A6"/>
<ellipse cx="85.0001" cy="30.9531" rx="0.222222" ry="0.220174" fill="#A6A6A6"/>
<ellipse cx="85.889" cy="30.9531" rx="0.222222" ry="0.220174" fill="#A6A6A6"/>
<ellipse cx="77.0001" cy="31.8344" rx="0.222222" ry="0.220174" fill="#A6A6A6"/>
<ellipse cx="77.889" cy="31.8344" rx="0.222222" ry="0.220174" fill="#A6A6A6"/>
<ellipse cx="78.7779" cy="31.8344" rx="0.222222" ry="0.220174" fill="#A6A6A6"/>
<ellipse cx="79.6666" cy="31.8344" rx="0.222222" ry="0.220174" fill="#A6A6A6"/>
<ellipse cx="80.5555" cy="31.8344" rx="0.222222" ry="0.220174" fill="#A6A6A6"/>
<ellipse cx="81.4444" cy="31.8344" rx="0.222222" ry="0.220174" fill="#A6A6A6"/>
<ellipse cx="82.3333" cy="31.8344" rx="0.222222" ry="0.220174" fill="#A6A6A6"/>
<ellipse cx="83.2222" cy="31.8344" rx="0.222222" ry="0.220174" fill="#A6A6A6"/>
<ellipse cx="84.1109" cy="31.8344" rx="0.222222" ry="0.220174" fill="#A6A6A6"/>
<ellipse cx="85.0001" cy="31.8344" rx="0.222222" ry="0.220174" fill="#A6A6A6"/>
<ellipse cx="85.889" cy="31.8344" rx="0.222222" ry="0.220174" fill="#A6A6A6"/>
<ellipse cx="77.0001" cy="32.7148" rx="0.222222" ry="0.220174" fill="#A6A6A6"/>
<ellipse cx="77.889" cy="32.7148" rx="0.222222" ry="0.220174" fill="#A6A6A6"/>
<ellipse cx="78.7779" cy="32.7148" rx="0.222222" ry="0.220174" fill="#A6A6A6"/>
<ellipse cx="79.6666" cy="32.7148" rx="0.222222" ry="0.220174" fill="#A6A6A6"/>
<ellipse cx="80.5555" cy="32.7148" rx="0.222222" ry="0.220174" fill="#A6A6A6"/>
<ellipse cx="81.4444" cy="32.7148" rx="0.222222" ry="0.220174" fill="#A6A6A6"/>
<ellipse cx="82.3333" cy="32.7148" rx="0.222222" ry="0.220174" fill="#A6A6A6"/>
<ellipse cx="83.2222" cy="32.7148" rx="0.222222" ry="0.220174" fill="#A6A6A6"/>
<ellipse cx="84.1109" cy="32.7148" rx="0.222222" ry="0.220174" fill="#A6A6A6"/>
<ellipse cx="85.0001" cy="32.7148" rx="0.222222" ry="0.220174" fill="#A6A6A6"/>
<ellipse cx="85.889" cy="32.7148" rx="0.222222" ry="0.220174" fill="#A6A6A6"/>
<ellipse cx="86.7781" cy="14.2212" rx="0.222222" ry="0.220174" fill="#A6A6A6"/>
<ellipse cx="86.7779" cy="15.101" rx="0.222222" ry="0.220174" fill="#A6A6A6"/>
<ellipse cx="86.7779" cy="15.9814" rx="0.222222" ry="0.220174" fill="#A6A6A6"/>
<ellipse cx="86.7779" cy="16.8623" rx="0.222222" ry="0.220174" fill="#A6A6A6"/>
<ellipse cx="86.7779" cy="17.7431" rx="0.222222" ry="0.220174" fill="#A6A6A6"/>
<ellipse cx="86.7779" cy="18.624" rx="0.222222" ry="0.220174" fill="#A6A6A6"/>
<ellipse cx="86.7779" cy="19.5044" rx="0.222222" ry="0.220174" fill="#A6A6A6"/>
<ellipse cx="86.7779" cy="20.3852" rx="0.222222" ry="0.220174" fill="#A6A6A6"/>
<ellipse cx="86.7779" cy="21.2656" rx="0.222222" ry="0.220174" fill="#A6A6A6"/>
<ellipse cx="86.7779" cy="22.1464" rx="0.222222" ry="0.220174" fill="#A6A6A6"/>
<ellipse cx="86.7779" cy="23.0268" rx="0.222222" ry="0.220174" fill="#A6A6A6"/>
<ellipse cx="86.7779" cy="23.9077" rx="0.222222" ry="0.220174" fill="#A6A6A6"/>
<ellipse cx="86.7779" cy="24.789" rx="0.222222" ry="0.220174" fill="#A6A6A6"/>
<ellipse cx="86.7779" cy="25.6694" rx="0.222222" ry="0.220174" fill="#A6A6A6"/>
<ellipse cx="86.7779" cy="26.5498" rx="0.222222" ry="0.220174" fill="#A6A6A6"/>
<ellipse cx="86.7779" cy="27.4306" rx="0.222222" ry="0.220174" fill="#A6A6A6"/>
<ellipse cx="86.7779" cy="28.3115" rx="0.222222" ry="0.220174" fill="#A6A6A6"/>
<ellipse cx="86.7779" cy="29.1919" rx="0.222222" ry="0.220174" fill="#A6A6A6"/>
<ellipse cx="86.7779" cy="30.0727" rx="0.222222" ry="0.220174" fill="#A6A6A6"/>
<ellipse cx="86.7779" cy="30.9531" rx="0.222222" ry="0.220174" fill="#A6A6A6"/>
<ellipse cx="86.7779" cy="31.8344" rx="0.222222" ry="0.220174" fill="#A6A6A6"/>
<ellipse cx="86.7779" cy="32.7148" rx="0.222222" ry="0.220174" fill="#A6A6A6"/>
<ellipse cx="67.2225" cy="33.5961" rx="0.222222" ry="0.220174" fill="#A6A6A6"/>
<ellipse cx="68.1111" cy="33.5961" rx="0.222222" ry="0.220174" fill="#A6A6A6"/>
<ellipse cx="69.0001" cy="33.5961" rx="0.222222" ry="0.220174" fill="#A6A6A6"/>
<ellipse cx="69.8887" cy="33.5961" rx="0.222222" ry="0.220174" fill="#A6A6A6"/>
<ellipse cx="70.7776" cy="33.5961" rx="0.222222" ry="0.220174" fill="#A6A6A6"/>
<ellipse cx="71.6666" cy="33.5961" rx="0.222222" ry="0.220174" fill="#A6A6A6"/>
<ellipse cx="72.5557" cy="33.5961" rx="0.222222" ry="0.220174" fill="#A6A6A6"/>
<ellipse cx="73.4444" cy="33.5961" rx="0.222222" ry="0.220174" fill="#A6A6A6"/>
<ellipse cx="74.3335" cy="33.5961" rx="0.222222" ry="0.220174" fill="#A6A6A6"/>
<ellipse cx="75.2222" cy="33.5961" rx="0.222222" ry="0.220174" fill="#A6A6A6"/>
<ellipse cx="76.1111" cy="33.5961" rx="0.222222" ry="0.220174" fill="#A6A6A6"/>
<ellipse cx="77.0001" cy="33.5961" rx="0.222222" ry="0.220174" fill="#A6A6A6"/>
<ellipse cx="77.8887" cy="33.5961" rx="0.222222" ry="0.220174" fill="#A6A6A6"/>
<ellipse cx="78.7776" cy="33.5961" rx="0.222222" ry="0.220174" fill="#A6A6A6"/>
<ellipse cx="79.6663" cy="33.5961" rx="0.222222" ry="0.220174" fill="#A6A6A6"/>
<ellipse cx="80.5552" cy="33.5961" rx="0.222222" ry="0.220174" fill="#A6A6A6"/>
<ellipse cx="81.4441" cy="33.5961" rx="0.222222" ry="0.220174" fill="#A6A6A6"/>
<ellipse cx="82.3333" cy="33.5961" rx="0.222222" ry="0.220174" fill="#A6A6A6"/>
<ellipse cx="83.222" cy="33.5961" rx="0.222222" ry="0.220174" fill="#A6A6A6"/>
<ellipse cx="84.1109" cy="33.5961" rx="0.222222" ry="0.220174" fill="#A6A6A6"/>
<ellipse cx="84.9998" cy="33.5961" rx="0.222222" ry="0.220174" fill="#A6A6A6"/>
<ellipse cx="85.8887" cy="33.5961" rx="0.222222" ry="0.220174" fill="#A6A6A6"/>
<ellipse cx="86.7779" cy="33.5961" rx="0.222222" ry="0.220174" fill="#A6A6A6"/>
</g>
<rect x="71.186" y="27.4795" width="11.6279" height="11.5207" rx="5.76037" stroke="white"/>
<rect x="8" y="19" width="2" height="2" fill="#5119FF"/>
<rect x="12" y="19" width="3" height="2" fill="#5119FF"/>
<rect x="17" y="19" width="3" height="2" fill="#5119FF"/>
<rect x="22" y="19" width="3" height="2" fill="#5119FF"/>
<defs>
<linearGradient id="paint0_linear" x1="51.3427" y1="30.1791" x2="-3.31409" y2="108.748" gradientUnits="userSpaceOnUse">
<stop stop-color="#FF3D00"/>
<stop offset="1" stop-color="#77178E"/>
</linearGradient>
</defs>
</svg>
