<svg width="92" height="110" fill="none" xmlns="http://www.w3.org/2000/svg"><path fill="#E6DEFF" d="M1 1h90v108H1z"/><path d="M61.537 18.5L91 34V1H29l32.537 17.5z" fill="#562BE0"/><path d="M44.963 108.5H1V95h58l-14.037 13.5zM56 102.13L49 109h14V95l-7 7.13zm28 0L77 109h14V95l-7 7.13zm-14-.26L63 95h14v14l-7-7.13z" fill="#8A65FF"/><path d="M70 86.87L63 80h14v14l-7-7.13zm0-15L63 65h14v14l-7-7.13z" fill="#5119FF"/><rect x="16.75" y="47.923" width="21.173" height="41.178" rx="1.25" transform="rotate(-90 16.75 47.923)" fill="url(#paint0_linear)" stroke="#26296F" stroke-width="1.5"/><rect x="30.671" y="55.341" width="13.337" height="2.667" rx="1" fill="#26296F"/><rect x="36.005" y="56.675" width="9.336" height="2.667" rx="1" transform="rotate(-90 36.005 56.675)" fill="#26296F"/><circle cx="39.872" cy="41.87" r="8.836" transform="rotate(-45 39.872 41.87)" fill="#fff" stroke="#0F00B9"/><rect x="44.752" y="49.245" width="2.667" height="12.019" rx="1" transform="rotate(-45 44.752 49.245)" fill="#0F00B9"/><path stroke="#fff" d="M1 1h90v108H1z"/><mask id="a" maskUnits="userSpaceOnUse" x="67" y="14" width="20" height="20"><rect x="67" y="14" width="20" height="19.816" rx="9.908" fill="#fff"/></mask><g mask="url(#a)" fill="#A6A6A6"><ellipse cx="67.222" cy="14.22" rx=".222" ry=".22"/><ellipse cx="68.111" cy="14.221" rx=".222" ry=".22"/><ellipse cx="69" cy="14.221" rx=".222" ry=".22"/><ellipse cx="69.889" cy="14.221" rx=".222" ry=".22"/><ellipse cx="70.778" cy="14.221" rx=".222" ry=".22"/><ellipse cx="71.667" cy="14.221" rx=".222" ry=".22"/><ellipse cx="72.556" cy="14.221" rx=".222" ry=".22"/><ellipse cx="73.444" cy="14.221" rx=".222" ry=".22"/><ellipse cx="74.334" cy="14.221" rx=".222" ry=".22"/><ellipse cx="75.222" cy="14.221" rx=".222" ry=".22"/><ellipse cx="76.111" cy="14.221" rx=".222" ry=".22"/><ellipse cx="67.222" cy="15.101" rx=".222" ry=".22"/><ellipse cx="68.111" cy="15.101" rx=".222" ry=".22"/><ellipse cx="69" cy="15.101" rx=".222" ry=".22"/><ellipse cx="69.889" cy="15.101" rx=".222" ry=".22"/><ellipse cx="70.778" cy="15.101" rx=".222" ry=".22"/><ellipse cx="71.667" cy="15.101" rx=".222" ry=".22"/><ellipse cx="72.556" cy="15.101" rx=".222" ry=".22"/><ellipse cx="73.444" cy="15.101" rx=".222" ry=".22"/><ellipse cx="74.334" cy="15.101" rx=".222" ry=".22"/><ellipse cx="75.222" cy="15.101" rx=".222" ry=".22"/><ellipse cx="76.111" cy="15.101" rx=".222" ry=".22"/><ellipse cx="67.222" cy="15.982" rx=".222" ry=".22"/><ellipse cx="68.111" cy="15.982" rx=".222" ry=".22"/><ellipse cx="69" cy="15.982" rx=".222" ry=".22"/><ellipse cx="69.889" cy="15.982" rx=".222" ry=".22"/><ellipse cx="70.778" cy="15.982" rx=".222" ry=".22"/><ellipse cx="71.667" cy="15.982" rx=".222" ry=".22"/><ellipse cx="72.556" cy="15.982" rx=".222" ry=".22"/><ellipse cx="73.444" cy="15.982" rx=".222" ry=".22"/><ellipse cx="74.334" cy="15.982" rx=".222" ry=".22"/><ellipse cx="75.222" cy="15.982" rx=".222" ry=".22"/><ellipse cx="76.111" cy="15.982" rx=".222" ry=".22"/><ellipse cx="67.222" cy="16.863" rx=".222" ry=".22"/><ellipse cx="68.111" cy="16.863" rx=".222" ry=".22"/><ellipse cx="69" cy="16.863" rx=".222" ry=".22"/><ellipse cx="69.889" cy="16.863" rx=".222" ry=".22"/><ellipse cx="70.778" cy="16.863" rx=".222" ry=".22"/><ellipse cx="71.667" cy="16.863" rx=".222" ry=".22"/><ellipse cx="72.556" cy="16.863" rx=".222" ry=".22"/><ellipse cx="73.444" cy="16.863" rx=".222" ry=".22"/><ellipse cx="74.334" cy="16.863" rx=".222" ry=".22"/><ellipse cx="75.222" cy="16.863" rx=".222" ry=".22"/><ellipse cx="76.111" cy="16.863" rx=".222" ry=".22"/><ellipse cx="67.222" cy="17.744" rx=".222" ry=".22"/><ellipse cx="68.111" cy="17.744" rx=".222" ry=".22"/><ellipse cx="69" cy="17.744" rx=".222" ry=".22"/><ellipse cx="69.889" cy="17.744" rx=".222" ry=".22"/><ellipse cx="70.778" cy="17.744" rx=".222" ry=".22"/><ellipse cx="71.667" cy="17.744" rx=".222" ry=".22"/><ellipse cx="72.556" cy="17.744" rx=".222" ry=".22"/><ellipse cx="73.444" cy="17.744" rx=".222" ry=".22"/><ellipse cx="74.334" cy="17.744" rx=".222" ry=".22"/><ellipse cx="75.222" cy="17.744" rx=".222" ry=".22"/><ellipse cx="76.111" cy="17.744" rx=".222" ry=".22"/><ellipse cx="67.222" cy="18.624" rx=".222" ry=".22"/><ellipse cx="68.111" cy="18.624" rx=".222" ry=".22"/><ellipse cx="69" cy="18.624" rx=".222" ry=".22"/><ellipse cx="69.889" cy="18.624" rx=".222" ry=".22"/><ellipse cx="70.778" cy="18.624" rx=".222" ry=".22"/><ellipse cx="71.667" cy="18.624" rx=".222" ry=".22"/><ellipse cx="72.556" cy="18.624" rx=".222" ry=".22"/><ellipse cx="73.444" cy="18.624" rx=".222" ry=".22"/><ellipse cx="74.334" cy="18.624" rx=".222" ry=".22"/><ellipse cx="75.222" cy="18.624" rx=".222" ry=".22"/><ellipse cx="76.111" cy="18.624" rx=".222" ry=".22"/><ellipse cx="67.222" cy="19.505" rx=".222" ry=".22"/><ellipse cx="68.111" cy="19.505" rx=".222" ry=".22"/><ellipse cx="69" cy="19.505" rx=".222" ry=".22"/><ellipse cx="69.889" cy="19.505" rx=".222" ry=".22"/><ellipse cx="70.778" cy="19.505" rx=".222" ry=".22"/><ellipse cx="71.667" cy="19.505" rx=".222" ry=".22"/><ellipse cx="72.556" cy="19.505" rx=".222" ry=".22"/><ellipse cx="73.444" cy="19.505" rx=".222" ry=".22"/><ellipse cx="74.334" cy="19.505" rx=".222" ry=".22"/><ellipse cx="75.222" cy="19.505" rx=".222" ry=".22"/><ellipse cx="76.111" cy="19.505" rx=".222" ry=".22"/><ellipse cx="67.222" cy="20.386" rx=".222" ry=".22"/><ellipse cx="68.111" cy="20.386" rx=".222" ry=".22"/><ellipse cx="69" cy="20.386" rx=".222" ry=".22"/><ellipse cx="69.889" cy="20.386" rx=".222" ry=".22"/><ellipse cx="70.778" cy="20.386" rx=".222" ry=".22"/><ellipse cx="71.667" cy="20.386" rx=".222" ry=".22"/><ellipse cx="72.556" cy="20.386" rx=".222" ry=".22"/><ellipse cx="73.444" cy="20.386" rx=".222" ry=".22"/><ellipse cx="74.334" cy="20.386" rx=".222" ry=".22"/><ellipse cx="75.222" cy="20.386" rx=".222" ry=".22"/><ellipse cx="76.111" cy="20.386" rx=".222" ry=".22"/><ellipse cx="67.222" cy="21.266" rx=".222" ry=".22"/><ellipse cx="68.111" cy="21.266" rx=".222" ry=".22"/><ellipse cx="69" cy="21.266" rx=".222" ry=".22"/><ellipse cx="69.889" cy="21.266" rx=".222" ry=".22"/><ellipse cx="70.778" cy="21.266" rx=".222" ry=".22"/><ellipse cx="71.667" cy="21.266" rx=".222" ry=".22"/><ellipse cx="72.556" cy="21.266" rx=".222" ry=".22"/><ellipse cx="73.444" cy="21.266" rx=".222" ry=".22"/><ellipse cx="74.334" cy="21.266" rx=".222" ry=".22"/><ellipse cx="75.222" cy="21.266" rx=".222" ry=".22"/><ellipse cx="76.111" cy="21.266" rx=".222" ry=".22"/><ellipse cx="67.222" cy="22.147" rx=".222" ry=".22"/><ellipse cx="68.111" cy="22.147" rx=".222" ry=".22"/><ellipse cx="69" cy="22.147" rx=".222" ry=".22"/><ellipse cx="69.889" cy="22.147" rx=".222" ry=".22"/><ellipse cx="70.778" cy="22.147" rx=".222" ry=".22"/><ellipse cx="71.667" cy="22.147" rx=".222" ry=".22"/><ellipse cx="72.556" cy="22.147" rx=".222" ry=".22"/><ellipse cx="73.444" cy="22.147" rx=".222" ry=".22"/><ellipse cx="74.334" cy="22.147" rx=".222" ry=".22"/><ellipse cx="75.222" cy="22.147" rx=".222" ry=".22"/><ellipse cx="76.111" cy="22.147" rx=".222" ry=".22"/><ellipse cx="67.222" cy="23.027" rx=".222" ry=".22"/><ellipse cx="68.111" cy="23.027" rx=".222" ry=".22"/><ellipse cx="69" cy="23.027" rx=".222" ry=".22"/><ellipse cx="69.889" cy="23.027" rx=".222" ry=".22"/><ellipse cx="70.778" cy="23.027" rx=".222" ry=".22"/><ellipse cx="71.667" cy="23.027" rx=".222" ry=".22"/><ellipse cx="72.556" cy="23.027" rx=".222" ry=".22"/><ellipse cx="73.444" cy="23.027" rx=".222" ry=".22"/><ellipse cx="74.334" cy="23.027" rx=".222" ry=".22"/><ellipse cx="75.222" cy="23.027" rx=".222" ry=".22"/><ellipse cx="76.111" cy="23.027" rx=".222" ry=".22"/><ellipse cx="67.222" cy="23.908" rx=".222" ry=".22"/><ellipse cx="68.111" cy="23.908" rx=".222" ry=".22"/><ellipse cx="69" cy="23.908" rx=".222" ry=".22"/><ellipse cx="69.889" cy="23.908" rx=".222" ry=".22"/><ellipse cx="70.778" cy="23.908" rx=".222" ry=".22"/><ellipse cx="71.667" cy="23.908" rx=".222" ry=".22"/><ellipse cx="72.556" cy="23.908" rx=".222" ry=".22"/><ellipse cx="73.444" cy="23.908" rx=".222" ry=".22"/><ellipse cx="74.334" cy="23.908" rx=".222" ry=".22"/><ellipse cx="75.222" cy="23.908" rx=".222" ry=".22"/><ellipse cx="76.111" cy="23.908" rx=".222" ry=".22"/><ellipse cx="67.222" cy="24.789" rx=".222" ry=".22"/><ellipse cx="68.111" cy="24.789" rx=".222" ry=".22"/><ellipse cx="69" cy="24.789" rx=".222" ry=".22"/><ellipse cx="69.889" cy="24.789" rx=".222" ry=".22"/><ellipse cx="70.778" cy="24.789" rx=".222" ry=".22"/><ellipse cx="71.667" cy="24.789" rx=".222" ry=".22"/><ellipse cx="72.556" cy="24.789" rx=".222" ry=".22"/><ellipse cx="73.444" cy="24.789" rx=".222" ry=".22"/><ellipse cx="74.334" cy="24.789" rx=".222" ry=".22"/><ellipse cx="75.222" cy="24.789" rx=".222" ry=".22"/><ellipse cx="76.111" cy="24.789" rx=".222" ry=".22"/><ellipse cx="67.222" cy="25.67" rx=".222" ry=".22"/><ellipse cx="68.111" cy="25.67" rx=".222" ry=".22"/><ellipse cx="69" cy="25.67" rx=".222" ry=".22"/><ellipse cx="69.889" cy="25.67" rx=".222" ry=".22"/><ellipse cx="70.778" cy="25.67" rx=".222" ry=".22"/><ellipse cx="71.667" cy="25.67" rx=".222" ry=".22"/><ellipse cx="72.556" cy="25.67" rx=".222" ry=".22"/><ellipse cx="73.444" cy="25.67" rx=".222" ry=".22"/><ellipse cx="74.334" cy="25.67" rx=".222" ry=".22"/><ellipse cx="75.222" cy="25.67" rx=".222" ry=".22"/><ellipse cx="76.111" cy="25.67" rx=".222" ry=".22"/><ellipse cx="67.222" cy="26.55" rx=".222" ry=".22"/><ellipse cx="68.111" cy="26.55" rx=".222" ry=".22"/><ellipse cx="69" cy="26.55" rx=".222" ry=".22"/><ellipse cx="69.889" cy="26.55" rx=".222" ry=".22"/><ellipse cx="70.778" cy="26.55" rx=".222" ry=".22"/><ellipse cx="71.667" cy="26.55" rx=".222" ry=".22"/><ellipse cx="72.556" cy="26.55" rx=".222" ry=".22"/><ellipse cx="73.444" cy="26.55" rx=".222" ry=".22"/><ellipse cx="74.334" cy="26.55" rx=".222" ry=".22"/><ellipse cx="75.222" cy="26.55" rx=".222" ry=".22"/><ellipse cx="76.111" cy="26.55" rx=".222" ry=".22"/><ellipse cx="67.222" cy="27.431" rx=".222" ry=".22"/><ellipse cx="68.111" cy="27.431" rx=".222" ry=".22"/><ellipse cx="69" cy="27.431" rx=".222" ry=".22"/><ellipse cx="69.889" cy="27.431" rx=".222" ry=".22"/><ellipse cx="70.778" cy="27.431" rx=".222" ry=".22"/><ellipse cx="71.667" cy="27.431" rx=".222" ry=".22"/><ellipse cx="72.556" cy="27.431" rx=".222" ry=".22"/><ellipse cx="73.444" cy="27.431" rx=".222" ry=".22"/><ellipse cx="74.334" cy="27.431" rx=".222" ry=".22"/><ellipse cx="75.222" cy="27.431" rx=".222" ry=".22"/><ellipse cx="76.111" cy="27.431" rx=".222" ry=".22"/><ellipse cx="67.222" cy="28.311" rx=".222" ry=".22"/><ellipse cx="68.111" cy="28.311" rx=".222" ry=".22"/><ellipse cx="69" cy="28.311" rx=".222" ry=".22"/><ellipse cx="69.889" cy="28.311" rx=".222" ry=".22"/><ellipse cx="70.778" cy="28.311" rx=".222" ry=".22"/><ellipse cx="71.667" cy="28.311" rx=".222" ry=".22"/><ellipse cx="72.556" cy="28.311" rx=".222" ry=".22"/><ellipse cx="73.444" cy="28.311" rx=".222" ry=".22"/><ellipse cx="74.334" cy="28.311" rx=".222" ry=".22"/><ellipse cx="75.222" cy="28.311" rx=".222" ry=".22"/><ellipse cx="76.111" cy="28.311" rx=".222" ry=".22"/><ellipse cx="67.222" cy="29.192" rx=".222" ry=".22"/><ellipse cx="68.111" cy="29.192" rx=".222" ry=".22"/><ellipse cx="69" cy="29.192" rx=".222" ry=".22"/><ellipse cx="69.889" cy="29.192" rx=".222" ry=".22"/><ellipse cx="70.778" cy="29.192" rx=".222" ry=".22"/><ellipse cx="71.667" cy="29.192" rx=".222" ry=".22"/><ellipse cx="72.556" cy="29.192" rx=".222" ry=".22"/><ellipse cx="73.444" cy="29.192" rx=".222" ry=".22"/><ellipse cx="74.334" cy="29.192" rx=".222" ry=".22"/><ellipse cx="75.222" cy="29.192" rx=".222" ry=".22"/><ellipse cx="76.111" cy="29.192" rx=".222" ry=".22"/><ellipse cx="67.222" cy="30.073" rx=".222" ry=".22"/><ellipse cx="68.111" cy="30.073" rx=".222" ry=".22"/><ellipse cx="69" cy="30.073" rx=".222" ry=".22"/><ellipse cx="69.889" cy="30.073" rx=".222" ry=".22"/><ellipse cx="70.778" cy="30.073" rx=".222" ry=".22"/><ellipse cx="71.667" cy="30.073" rx=".222" ry=".22"/><ellipse cx="72.556" cy="30.073" rx=".222" ry=".22"/><ellipse cx="73.444" cy="30.073" rx=".222" ry=".22"/><ellipse cx="74.334" cy="30.073" rx=".222" ry=".22"/><ellipse cx="75.222" cy="30.073" rx=".222" ry=".22"/><ellipse cx="76.111" cy="30.073" rx=".222" ry=".22"/><ellipse cx="67.222" cy="30.954" rx=".222" ry=".22"/><ellipse cx="68.111" cy="30.954" rx=".222" ry=".22"/><ellipse cx="69" cy="30.954" rx=".222" ry=".22"/><ellipse cx="69.889" cy="30.954" rx=".222" ry=".22"/><ellipse cx="70.778" cy="30.954" rx=".222" ry=".22"/><ellipse cx="71.667" cy="30.954" rx=".222" ry=".22"/><ellipse cx="72.556" cy="30.954" rx=".222" ry=".22"/><ellipse cx="73.444" cy="30.954" rx=".222" ry=".22"/><ellipse cx="74.334" cy="30.954" rx=".222" ry=".22"/><ellipse cx="75.222" cy="30.954" rx=".222" ry=".22"/><ellipse cx="76.111" cy="30.954" rx=".222" ry=".22"/><ellipse cx="67.222" cy="31.834" rx=".222" ry=".22"/><ellipse cx="68.111" cy="31.834" rx=".222" ry=".22"/><ellipse cx="69" cy="31.834" rx=".222" ry=".22"/><ellipse cx="69.889" cy="31.834" rx=".222" ry=".22"/><ellipse cx="70.778" cy="31.834" rx=".222" ry=".22"/><ellipse cx="71.667" cy="31.834" rx=".222" ry=".22"/><ellipse cx="72.556" cy="31.834" rx=".222" ry=".22"/><ellipse cx="73.444" cy="31.834" rx=".222" ry=".22"/><ellipse cx="74.334" cy="31.834" rx=".222" ry=".22"/><ellipse cx="75.222" cy="31.834" rx=".222" ry=".22"/><ellipse cx="76.111" cy="31.834" rx=".222" ry=".22"/><ellipse cx="67.222" cy="32.715" rx=".222" ry=".22"/><ellipse cx="68.111" cy="32.715" rx=".222" ry=".22"/><ellipse cx="69" cy="32.715" rx=".222" ry=".22"/><ellipse cx="69.889" cy="32.715" rx=".222" ry=".22"/><ellipse cx="70.778" cy="32.715" rx=".222" ry=".22"/><ellipse cx="71.667" cy="32.715" rx=".222" ry=".22"/><ellipse cx="72.556" cy="32.715" rx=".222" ry=".22"/><ellipse cx="73.444" cy="32.715" rx=".222" ry=".22"/><ellipse cx="74.334" cy="32.715" rx=".222" ry=".22"/><ellipse cx="75.222" cy="32.715" rx=".222" ry=".22"/><ellipse cx="76.111" cy="32.715" rx=".222" ry=".22"/><ellipse cx="77.001" cy="14.221" rx=".222" ry=".22"/><ellipse cx="77.889" cy="14.22" rx=".222" ry=".22"/><ellipse cx="78.778" cy="14.22" rx=".222" ry=".22"/><ellipse cx="79.667" cy="14.22" rx=".222" ry=".22"/><ellipse cx="80.555" cy="14.22" rx=".222" ry=".22"/><ellipse cx="81.444" cy="14.22" rx=".222" ry=".22"/><ellipse cx="82.333" cy="14.22" rx=".222" ry=".22"/><ellipse cx="83.222" cy="14.22" rx=".222" ry=".22"/><ellipse cx="84.111" cy="14.22" rx=".222" ry=".22"/><ellipse cx="85" cy="14.22" rx=".222" ry=".22"/><ellipse cx="85.889" cy="14.22" rx=".222" ry=".22"/><ellipse cx="77" cy="15.101" rx=".222" ry=".22"/><ellipse cx="77.889" cy="15.101" rx=".222" ry=".22"/><ellipse cx="78.778" cy="15.101" rx=".222" ry=".22"/><ellipse cx="79.667" cy="15.101" rx=".222" ry=".22"/><ellipse cx="80.555" cy="15.101" rx=".222" ry=".22"/><ellipse cx="81.444" cy="15.101" rx=".222" ry=".22"/><ellipse cx="82.333" cy="15.101" rx=".222" ry=".22"/><ellipse cx="83.222" cy="15.101" rx=".222" ry=".22"/><ellipse cx="84.111" cy="15.101" rx=".222" ry=".22"/><ellipse cx="85" cy="15.101" rx=".222" ry=".22"/><ellipse cx="85.889" cy="15.101" rx=".222" ry=".22"/><ellipse cx="77" cy="15.981" rx=".222" ry=".22"/><ellipse cx="77.889" cy="15.981" rx=".222" ry=".22"/><ellipse cx="78.778" cy="15.981" rx=".222" ry=".22"/><ellipse cx="79.667" cy="15.981" rx=".222" ry=".22"/><ellipse cx="80.555" cy="15.981" rx=".222" ry=".22"/><ellipse cx="81.444" cy="15.981" rx=".222" ry=".22"/><ellipse cx="82.333" cy="15.981" rx=".222" ry=".22"/><ellipse cx="83.222" cy="15.981" rx=".222" ry=".22"/><ellipse cx="84.111" cy="15.981" rx=".222" ry=".22"/><ellipse cx="85" cy="15.981" rx=".222" ry=".22"/><ellipse cx="85.889" cy="15.981" rx=".222" ry=".22"/><ellipse cx="77" cy="16.862" rx=".222" ry=".22"/><ellipse cx="77.889" cy="16.862" rx=".222" ry=".22"/><ellipse cx="78.778" cy="16.862" rx=".222" ry=".22"/><ellipse cx="79.667" cy="16.862" rx=".222" ry=".22"/><ellipse cx="80.555" cy="16.862" rx=".222" ry=".22"/><ellipse cx="81.444" cy="16.862" rx=".222" ry=".22"/><ellipse cx="82.333" cy="16.862" rx=".222" ry=".22"/><ellipse cx="83.222" cy="16.862" rx=".222" ry=".22"/><ellipse cx="84.111" cy="16.862" rx=".222" ry=".22"/><ellipse cx="85" cy="16.862" rx=".222" ry=".22"/><ellipse cx="85.889" cy="16.862" rx=".222" ry=".22"/><ellipse cx="77" cy="17.743" rx=".222" ry=".22"/><ellipse cx="77.889" cy="17.743" rx=".222" ry=".22"/><ellipse cx="78.778" cy="17.743" rx=".222" ry=".22"/><ellipse cx="79.667" cy="17.743" rx=".222" ry=".22"/><ellipse cx="80.555" cy="17.743" rx=".222" ry=".22"/><ellipse cx="81.444" cy="17.743" rx=".222" ry=".22"/><ellipse cx="82.333" cy="17.743" rx=".222" ry=".22"/><ellipse cx="83.222" cy="17.743" rx=".222" ry=".22"/><ellipse cx="84.111" cy="17.743" rx=".222" ry=".22"/><ellipse cx="85" cy="17.743" rx=".222" ry=".22"/><ellipse cx="85.889" cy="17.743" rx=".222" ry=".22"/><ellipse cx="77" cy="18.624" rx=".222" ry=".22"/><ellipse cx="77.889" cy="18.624" rx=".222" ry=".22"/><ellipse cx="78.778" cy="18.624" rx=".222" ry=".22"/><ellipse cx="79.667" cy="18.624" rx=".222" ry=".22"/><ellipse cx="80.555" cy="18.624" rx=".222" ry=".22"/><ellipse cx="81.444" cy="18.624" rx=".222" ry=".22"/><ellipse cx="82.333" cy="18.624" rx=".222" ry=".22"/><ellipse cx="83.222" cy="18.624" rx=".222" ry=".22"/><ellipse cx="84.111" cy="18.624" rx=".222" ry=".22"/><ellipse cx="85" cy="18.624" rx=".222" ry=".22"/><ellipse cx="85.889" cy="18.624" rx=".222" ry=".22"/><ellipse cx="77" cy="19.504" rx=".222" ry=".22"/><ellipse cx="77.889" cy="19.504" rx=".222" ry=".22"/><ellipse cx="78.778" cy="19.504" rx=".222" ry=".22"/><ellipse cx="79.667" cy="19.504" rx=".222" ry=".22"/><ellipse cx="80.555" cy="19.504" rx=".222" ry=".22"/><ellipse cx="81.444" cy="19.504" rx=".222" ry=".22"/><ellipse cx="82.333" cy="19.504" rx=".222" ry=".22"/><ellipse cx="83.222" cy="19.504" rx=".222" ry=".22"/><ellipse cx="84.111" cy="19.504" rx=".222" ry=".22"/><ellipse cx="85" cy="19.504" rx=".222" ry=".22"/><ellipse cx="85.889" cy="19.504" rx=".222" ry=".22"/><ellipse cx="77" cy="20.385" rx=".222" ry=".22"/><ellipse cx="77.889" cy="20.385" rx=".222" ry=".22"/><ellipse cx="78.778" cy="20.385" rx=".222" ry=".22"/><ellipse cx="79.667" cy="20.385" rx=".222" ry=".22"/><ellipse cx="80.555" cy="20.385" rx=".222" ry=".22"/><ellipse cx="81.444" cy="20.385" rx=".222" ry=".22"/><ellipse cx="82.333" cy="20.385" rx=".222" ry=".22"/><ellipse cx="83.222" cy="20.385" rx=".222" ry=".22"/><ellipse cx="84.111" cy="20.385" rx=".222" ry=".22"/><ellipse cx="85" cy="20.385" rx=".222" ry=".22"/><ellipse cx="85.889" cy="20.385" rx=".222" ry=".22"/><ellipse cx="77" cy="21.266" rx=".222" ry=".22"/><ellipse cx="77.889" cy="21.266" rx=".222" ry=".22"/><ellipse cx="78.778" cy="21.266" rx=".222" ry=".22"/><ellipse cx="79.667" cy="21.266" rx=".222" ry=".22"/><ellipse cx="80.555" cy="21.266" rx=".222" ry=".22"/><ellipse cx="81.444" cy="21.266" rx=".222" ry=".22"/><ellipse cx="82.333" cy="21.266" rx=".222" ry=".22"/><ellipse cx="83.222" cy="21.266" rx=".222" ry=".22"/><ellipse cx="84.111" cy="21.266" rx=".222" ry=".22"/><ellipse cx="85" cy="21.266" rx=".222" ry=".22"/><ellipse cx="85.889" cy="21.266" rx=".222" ry=".22"/><ellipse cx="77" cy="22.146" rx=".222" ry=".22"/><ellipse cx="77.889" cy="22.146" rx=".222" ry=".22"/><ellipse cx="78.778" cy="22.146" rx=".222" ry=".22"/><ellipse cx="79.667" cy="22.146" rx=".222" ry=".22"/><ellipse cx="80.555" cy="22.146" rx=".222" ry=".22"/><ellipse cx="81.444" cy="22.146" rx=".222" ry=".22"/><ellipse cx="82.333" cy="22.146" rx=".222" ry=".22"/><ellipse cx="83.222" cy="22.146" rx=".222" ry=".22"/><ellipse cx="84.111" cy="22.146" rx=".222" ry=".22"/><ellipse cx="85" cy="22.146" rx=".222" ry=".22"/><ellipse cx="85.889" cy="22.146" rx=".222" ry=".22"/><ellipse cx="77" cy="23.027" rx=".222" ry=".22"/><ellipse cx="77.889" cy="23.027" rx=".222" ry=".22"/><ellipse cx="78.778" cy="23.027" rx=".222" ry=".22"/><ellipse cx="79.667" cy="23.027" rx=".222" ry=".22"/><ellipse cx="80.555" cy="23.027" rx=".222" ry=".22"/><ellipse cx="81.444" cy="23.027" rx=".222" ry=".22"/><ellipse cx="82.333" cy="23.027" rx=".222" ry=".22"/><ellipse cx="83.222" cy="23.027" rx=".222" ry=".22"/><ellipse cx="84.111" cy="23.027" rx=".222" ry=".22"/><ellipse cx="85" cy="23.027" rx=".222" ry=".22"/><ellipse cx="85.889" cy="23.027" rx=".222" ry=".22"/><ellipse cx="77" cy="23.908" rx=".222" ry=".22"/><ellipse cx="77.889" cy="23.908" rx=".222" ry=".22"/><ellipse cx="78.778" cy="23.908" rx=".222" ry=".22"/><ellipse cx="79.667" cy="23.908" rx=".222" ry=".22"/><ellipse cx="80.555" cy="23.908" rx=".222" ry=".22"/><ellipse cx="81.444" cy="23.908" rx=".222" ry=".22"/><ellipse cx="82.333" cy="23.908" rx=".222" ry=".22"/><ellipse cx="83.222" cy="23.908" rx=".222" ry=".22"/><ellipse cx="84.111" cy="23.908" rx=".222" ry=".22"/><ellipse cx="85" cy="23.908" rx=".222" ry=".22"/><ellipse cx="85.889" cy="23.908" rx=".222" ry=".22"/><ellipse cx="77" cy="24.789" rx=".222" ry=".22"/><ellipse cx="77.889" cy="24.789" rx=".222" ry=".22"/><ellipse cx="78.778" cy="24.789" rx=".222" ry=".22"/><ellipse cx="79.667" cy="24.789" rx=".222" ry=".22"/><ellipse cx="80.555" cy="24.789" rx=".222" ry=".22"/><ellipse cx="81.444" cy="24.789" rx=".222" ry=".22"/><ellipse cx="82.333" cy="24.789" rx=".222" ry=".22"/><ellipse cx="83.222" cy="24.789" rx=".222" ry=".22"/><ellipse cx="84.111" cy="24.789" rx=".222" ry=".22"/><ellipse cx="85" cy="24.789" rx=".222" ry=".22"/><ellipse cx="85.889" cy="24.789" rx=".222" ry=".22"/><ellipse cx="77" cy="25.669" rx=".222" ry=".22"/><ellipse cx="77.889" cy="25.669" rx=".222" ry=".22"/><ellipse cx="78.778" cy="25.669" rx=".222" ry=".22"/><ellipse cx="79.667" cy="25.669" rx=".222" ry=".22"/><ellipse cx="80.555" cy="25.669" rx=".222" ry=".22"/><ellipse cx="81.444" cy="25.669" rx=".222" ry=".22"/><ellipse cx="82.333" cy="25.669" rx=".222" ry=".22"/><ellipse cx="83.222" cy="25.669" rx=".222" ry=".22"/><ellipse cx="84.111" cy="25.669" rx=".222" ry=".22"/><ellipse cx="85" cy="25.669" rx=".222" ry=".22"/><ellipse cx="85.889" cy="25.669" rx=".222" ry=".22"/><ellipse cx="77" cy="26.55" rx=".222" ry=".22"/><ellipse cx="77.889" cy="26.55" rx=".222" ry=".22"/><ellipse cx="78.778" cy="26.55" rx=".222" ry=".22"/><ellipse cx="79.667" cy="26.55" rx=".222" ry=".22"/><ellipse cx="80.555" cy="26.55" rx=".222" ry=".22"/><ellipse cx="81.444" cy="26.55" rx=".222" ry=".22"/><ellipse cx="82.333" cy="26.55" rx=".222" ry=".22"/><ellipse cx="83.222" cy="26.55" rx=".222" ry=".22"/><ellipse cx="84.111" cy="26.55" rx=".222" ry=".22"/><ellipse cx="85" cy="26.55" rx=".222" ry=".22"/><ellipse cx="85.889" cy="26.55" rx=".222" ry=".22"/><ellipse cx="77" cy="27.431" rx=".222" ry=".22"/><ellipse cx="77.889" cy="27.431" rx=".222" ry=".22"/><ellipse cx="78.778" cy="27.431" rx=".222" ry=".22"/><ellipse cx="79.667" cy="27.431" rx=".222" ry=".22"/><ellipse cx="80.555" cy="27.431" rx=".222" ry=".22"/><ellipse cx="81.444" cy="27.431" rx=".222" ry=".22"/><ellipse cx="82.333" cy="27.431" rx=".222" ry=".22"/><ellipse cx="83.222" cy="27.431" rx=".222" ry=".22"/><ellipse cx="84.111" cy="27.431" rx=".222" ry=".22"/><ellipse cx="85" cy="27.431" rx=".222" ry=".22"/><ellipse cx="85.889" cy="27.431" rx=".222" ry=".22"/><ellipse cx="77" cy="28.311" rx=".222" ry=".22"/><ellipse cx="77.889" cy="28.311" rx=".222" ry=".22"/><ellipse cx="78.778" cy="28.311" rx=".222" ry=".22"/><ellipse cx="79.667" cy="28.311" rx=".222" ry=".22"/><ellipse cx="80.555" cy="28.311" rx=".222" ry=".22"/><ellipse cx="81.444" cy="28.311" rx=".222" ry=".22"/><ellipse cx="82.333" cy="28.311" rx=".222" ry=".22"/><ellipse cx="83.222" cy="28.311" rx=".222" ry=".22"/><ellipse cx="84.111" cy="28.311" rx=".222" ry=".22"/><ellipse cx="85" cy="28.311" rx=".222" ry=".22"/><ellipse cx="85.889" cy="28.311" rx=".222" ry=".22"/><ellipse cx="77" cy="29.192" rx=".222" ry=".22"/><ellipse cx="77.889" cy="29.192" rx=".222" ry=".22"/><ellipse cx="78.778" cy="29.192" rx=".222" ry=".22"/><ellipse cx="79.667" cy="29.192" rx=".222" ry=".22"/><ellipse cx="80.555" cy="29.192" rx=".222" ry=".22"/><ellipse cx="81.444" cy="29.192" rx=".222" ry=".22"/><ellipse cx="82.333" cy="29.192" rx=".222" ry=".22"/><ellipse cx="83.222" cy="29.192" rx=".222" ry=".22"/><ellipse cx="84.111" cy="29.192" rx=".222" ry=".22"/><ellipse cx="85" cy="29.192" rx=".222" ry=".22"/><ellipse cx="85.889" cy="29.192" rx=".222" ry=".22"/><ellipse cx="77" cy="30.073" rx=".222" ry=".22"/><ellipse cx="77.889" cy="30.073" rx=".222" ry=".22"/><ellipse cx="78.778" cy="30.073" rx=".222" ry=".22"/><ellipse cx="79.667" cy="30.073" rx=".222" ry=".22"/><ellipse cx="80.555" cy="30.073" rx=".222" ry=".22"/><ellipse cx="81.444" cy="30.073" rx=".222" ry=".22"/><ellipse cx="82.333" cy="30.073" rx=".222" ry=".22"/><ellipse cx="83.222" cy="30.073" rx=".222" ry=".22"/><ellipse cx="84.111" cy="30.073" rx=".222" ry=".22"/><ellipse cx="85" cy="30.073" rx=".222" ry=".22"/><ellipse cx="85.889" cy="30.073" rx=".222" ry=".22"/><ellipse cx="77" cy="30.953" rx=".222" ry=".22"/><ellipse cx="77.889" cy="30.953" rx=".222" ry=".22"/><ellipse cx="78.778" cy="30.953" rx=".222" ry=".22"/><ellipse cx="79.667" cy="30.953" rx=".222" ry=".22"/><ellipse cx="80.555" cy="30.953" rx=".222" ry=".22"/><ellipse cx="81.444" cy="30.953" rx=".222" ry=".22"/><ellipse cx="82.333" cy="30.953" rx=".222" ry=".22"/><ellipse cx="83.222" cy="30.953" rx=".222" ry=".22"/><ellipse cx="84.111" cy="30.953" rx=".222" ry=".22"/><ellipse cx="85" cy="30.953" rx=".222" ry=".22"/><ellipse cx="85.889" cy="30.953" rx=".222" ry=".22"/><ellipse cx="77" cy="31.834" rx=".222" ry=".22"/><ellipse cx="77.889" cy="31.834" rx=".222" ry=".22"/><ellipse cx="78.778" cy="31.834" rx=".222" ry=".22"/><ellipse cx="79.667" cy="31.834" rx=".222" ry=".22"/><ellipse cx="80.555" cy="31.834" rx=".222" ry=".22"/><ellipse cx="81.444" cy="31.834" rx=".222" ry=".22"/><ellipse cx="82.333" cy="31.834" rx=".222" ry=".22"/><ellipse cx="83.222" cy="31.834" rx=".222" ry=".22"/><ellipse cx="84.111" cy="31.834" rx=".222" ry=".22"/><ellipse cx="85" cy="31.834" rx=".222" ry=".22"/><ellipse cx="85.889" cy="31.834" rx=".222" ry=".22"/><ellipse cx="77" cy="32.715" rx=".222" ry=".22"/><ellipse cx="77.889" cy="32.715" rx=".222" ry=".22"/><ellipse cx="78.778" cy="32.715" rx=".222" ry=".22"/><ellipse cx="79.667" cy="32.715" rx=".222" ry=".22"/><ellipse cx="80.555" cy="32.715" rx=".222" ry=".22"/><ellipse cx="81.444" cy="32.715" rx=".222" ry=".22"/><ellipse cx="82.333" cy="32.715" rx=".222" ry=".22"/><ellipse cx="83.222" cy="32.715" rx=".222" ry=".22"/><ellipse cx="84.111" cy="32.715" rx=".222" ry=".22"/><ellipse cx="85" cy="32.715" rx=".222" ry=".22"/><ellipse cx="85.889" cy="32.715" rx=".222" ry=".22"/><ellipse cx="86.778" cy="14.221" rx=".222" ry=".22"/><ellipse cx="86.778" cy="15.101" rx=".222" ry=".22"/><ellipse cx="86.778" cy="15.981" rx=".222" ry=".22"/><ellipse cx="86.778" cy="16.862" rx=".222" ry=".22"/><ellipse cx="86.778" cy="17.743" rx=".222" ry=".22"/><ellipse cx="86.778" cy="18.624" rx=".222" ry=".22"/><ellipse cx="86.778" cy="19.504" rx=".222" ry=".22"/><ellipse cx="86.778" cy="20.385" rx=".222" ry=".22"/><ellipse cx="86.778" cy="21.266" rx=".222" ry=".22"/><ellipse cx="86.778" cy="22.146" rx=".222" ry=".22"/><ellipse cx="86.778" cy="23.027" rx=".222" ry=".22"/><ellipse cx="86.778" cy="23.908" rx=".222" ry=".22"/><ellipse cx="86.778" cy="24.789" rx=".222" ry=".22"/><ellipse cx="86.778" cy="25.669" rx=".222" ry=".22"/><ellipse cx="86.778" cy="26.55" rx=".222" ry=".22"/><ellipse cx="86.778" cy="27.431" rx=".222" ry=".22"/><ellipse cx="86.778" cy="28.311" rx=".222" ry=".22"/><ellipse cx="86.778" cy="29.192" rx=".222" ry=".22"/><ellipse cx="86.778" cy="30.073" rx=".222" ry=".22"/><ellipse cx="86.778" cy="30.953" rx=".222" ry=".22"/><ellipse cx="86.778" cy="31.834" rx=".222" ry=".22"/><ellipse cx="86.778" cy="32.715" rx=".222" ry=".22"/><ellipse cx="67.222" cy="33.596" rx=".222" ry=".22"/><ellipse cx="68.111" cy="33.596" rx=".222" ry=".22"/><ellipse cx="69" cy="33.596" rx=".222" ry=".22"/><ellipse cx="69.889" cy="33.596" rx=".222" ry=".22"/><ellipse cx="70.778" cy="33.596" rx=".222" ry=".22"/><ellipse cx="71.667" cy="33.596" rx=".222" ry=".22"/><ellipse cx="72.556" cy="33.596" rx=".222" ry=".22"/><ellipse cx="73.444" cy="33.596" rx=".222" ry=".22"/><ellipse cx="74.334" cy="33.596" rx=".222" ry=".22"/><ellipse cx="75.222" cy="33.596" rx=".222" ry=".22"/><ellipse cx="76.111" cy="33.596" rx=".222" ry=".22"/><ellipse cx="77" cy="33.596" rx=".222" ry=".22"/><ellipse cx="77.889" cy="33.596" rx=".222" ry=".22"/><ellipse cx="78.778" cy="33.596" rx=".222" ry=".22"/><ellipse cx="79.666" cy="33.596" rx=".222" ry=".22"/><ellipse cx="80.555" cy="33.596" rx=".222" ry=".22"/><ellipse cx="81.444" cy="33.596" rx=".222" ry=".22"/><ellipse cx="82.333" cy="33.596" rx=".222" ry=".22"/><ellipse cx="83.222" cy="33.596" rx=".222" ry=".22"/><ellipse cx="84.111" cy="33.596" rx=".222" ry=".22"/><ellipse cx="85" cy="33.596" rx=".222" ry=".22"/><ellipse cx="85.889" cy="33.596" rx=".222" ry=".22"/><ellipse cx="86.778" cy="33.596" rx=".222" ry=".22"/></g><rect x="71.186" y="27.48" width="11.628" height="11.521" rx="5.76" stroke="#fff"/><path fill="#5119FF" d="M8 19h2v2H8zm4 0h3v2h-3zm5 0h3v2h-3zm5 0h3v2h-3z"/><defs><linearGradient id="paint0_linear" x1="51.343" y1="30.179" x2="-3.314" y2="108.748" gradientUnits="userSpaceOnUse"><stop stop-color="#FF3D00"/><stop offset="1" stop-color="#77178E"/></linearGradient></defs></svg>