<svg width="90" height="108" fill="none" xmlns="http://www.w3.org/2000/svg"><path fill="#E6DEFF" d="M0 0h90v108H0z"/><path d="M0 63l25.5 26.855L44 108H0V63z" fill="#5119FF"/><rect x="47.68" y="41.774" width="23.226" height="31.68" rx="2" transform="rotate(90 47.68 41.774)" fill="#26296F"/><path d="M53.06 45.166l-8.514 7.224a1 1 0 000 1.525l8.514 7.224a1 1 0 001.647-.763V45.928a1 1 0 00-1.647-.762z" fill="#26296F"/><path d="M26.138 59.838l11.404-6.451-11.404-6.452v12.903z" fill="url(#paint0_linear)"/><ellipse cx="23.603" cy="32.742" rx="7.603" ry="7.742" fill="#26296F"/><ellipse cx="40.077" cy="32.742" rx="7.603" ry="7.742" fill="#26296F"/><ellipse cx="23.603" cy="32.742" rx="2.534" ry="2.581" fill="url(#paint1_linear)"/><ellipse cx="40.077" cy="32.742" rx="2.534" ry="2.581" fill="url(#paint2_linear)"/><path d="M61.537 16.5L90 33V0H32l29.537 16.5z" fill="#8A65FF"/><path d="M83 100.87L90 94H76v14l7-7.13zm-14 .26L62 108h14V94l-7 7.13z" fill="#572BE0"/><path d="M7.13 21L14 14v14H0l7.13-7zM6.87 7L0 0v14h14L6.87 7z" fill="#8A65FF"/><rect x="77" y="24" width="9" height="9" rx="4.5" stroke="#fff"/><rect x="80" y="27" width="3" height="3" rx="1.5" fill="#fff"/><path fill="#fff" d="M81 0h1v28h-1z"/><defs><linearGradient id="paint0_linear" x1="19.764" y1="65.43" x2="32.31" y2="35.425" gradientUnits="userSpaceOnUse"><stop stop-color="#FF3D00"/><stop offset="1" stop-color="#77178E"/></linearGradient><linearGradient id="paint1_linear" x1="28.97" y1="27.925" x2="24.322" y2="40.276" gradientUnits="userSpaceOnUse"><stop stop-color="#FF3D00"/><stop offset="1" stop-color="#77178E"/></linearGradient><linearGradient id="paint2_linear" x1="45.444" y1="27.925" x2="40.796" y2="40.276" gradientUnits="userSpaceOnUse"><stop stop-color="#FF3D00"/><stop offset="1" stop-color="#77178E"/></linearGradient></defs></svg>