<svg width="90" height="108" viewBox="0 0 90 108" fill="none" xmlns="http://www.w3.org/2000/svg">
<rect width="90" height="108" fill="#E6DEFF"/>
<path d="M0 63L25.5 89.8548L44 108H0V63Z" fill="#5119FF"/>
<rect x="47.6797" y="41.7744" width="23.2257" height="31.6796" rx="2" transform="rotate(90 47.6797 41.7744)" fill="#26296F"/>
<path d="M53.0598 45.1656L44.5463 52.3897C44.0756 52.7891 44.0756 53.5153 44.5463 53.9147L53.0598 61.1387C53.7094 61.69 54.7068 61.2283 54.7068 60.3762V45.9281C54.7068 45.0761 53.7094 44.6144 53.0598 45.1656Z" fill="#26296F"/>
<path d="M26.1376 59.8384L37.5422 53.3868L26.1376 46.9352L26.1376 59.8384Z" fill="url(#paint0_linear)"/>
<ellipse cx="23.6031" cy="32.7419" rx="7.60311" ry="7.74189" fill="#26296F"/>
<ellipse cx="40.0765" cy="32.7419" rx="7.60311" ry="7.74189" fill="#26296F"/>
<ellipse cx="23.6032" cy="32.7418" rx="2.53437" ry="2.58063" fill="url(#paint1_linear)"/>
<ellipse cx="40.0766" cy="32.7418" rx="2.53437" ry="2.58063" fill="url(#paint2_linear)"/>
<path d="M61.537 16.5L90 33L90 -1.49424e-06L32 3.57628e-06L61.537 16.5Z" fill="#8A65FF"/>
<path d="M83 100.87L90 94L76 94L76 108L83 100.87Z" fill="#572BE0"/>
<path d="M69 101.13L62 108L76 108L76 94L69 101.13Z" fill="#572BE0"/>
<path d="M7.12963 21L14 14V28H0L7.12963 21Z" fill="#8A65FF"/>
<path d="M6.87037 7L2.98023e-07 0V14H14L6.87037 7Z" fill="#8A65FF"/>
<rect x="77" y="24" width="9" height="9" rx="4.5" stroke="white"/>
<rect x="80" y="27" width="3" height="3" rx="1.5" fill="white"/>
<rect x="81" width="1" height="28" fill="white"/>
<defs>
<linearGradient id="paint0_linear" x1="19.7644" y1="65.4297" x2="32.3099" y2="35.4254" gradientUnits="userSpaceOnUse">
<stop stop-color="#FF3D00"/>
<stop offset="1" stop-color="#77178E"/>
</linearGradient>
<linearGradient id="paint1_linear" x1="28.9701" y1="27.9246" x2="24.3223" y2="40.2755" gradientUnits="userSpaceOnUse">
<stop stop-color="#FF3D00"/>
<stop offset="1" stop-color="#77178E"/>
</linearGradient>
<linearGradient id="paint2_linear" x1="45.4435" y1="27.9246" x2="40.7957" y2="40.2755" gradientUnits="userSpaceOnUse">
<stop stop-color="#FF3D00"/>
<stop offset="1" stop-color="#77178E"/>
</linearGradient>
</defs>
</svg>
