<svg width="92" height="110" fill="none" xmlns="http://www.w3.org/2000/svg"><path fill="#E6DEFF" d="M1 1h90v108H1z"/><path d="M16 28.023c0-1.1.882-1.994 1.982-1.999 4.008-.018 13.254-.049 19.836.01 7.041.064 16.972.03 21.177.01A1.997 1.997 0 0161 28.046V54a2 2 0 01-2 2H18a2 2 0 01-2-2V28.023z" fill="#26296F"/><path d="M21.455 30.743c0-1.1.883-1.993 1.983-1.998 3.447-.015 10.672-.036 15.868.01 5.564.05 13.335.026 16.959.01a2 2 0 012.008 2.002v20.505a2 2 0 01-2 2H23.455a2 2 0 01-2-2V30.744z" fill="url(#paint0_linear)"/><path opacity=".2" d="M39.182 36.91l4.09-4.092 4.092 4.091L43.273 41l-4.091-4.09z" fill="#fff"/><path d="M40.546 36.91l2.727-2.728L46 36.91l-2.727 2.728-2.727-2.728z" fill="#fff"/><circle cx="18.727" cy="41" r="1.364" fill="#9093D7"/><path d="M43.273 42.364l-15 10.909h27.272l-12.272-10.91z" fill="#9093D7"/><path d="M80 101.87L87 95H73v14l7-7.13zm-14 .26L59 109h14V95l-7 7.13zm-14-.26L59 95H45v14l7-7.13zm-14 .26L31 109h14V95l-7 7.13zm-14-.26L31 95H17v14l7-7.13zm-14 .26L3 109h14V95l-7 7.13z" fill="#572BE0"/><path stroke="#fff" d="M1 1h90v108H1z"/><path fill="#fff" d="M1 12v-1h74v1z"/><path fill="#fff" d="M74 1h1v11h-1z"/><path d="M91 38.334v-.002V39a.333.333 0 010-.666zm-1.333 0a.333.333 0 01.166.622c-.128-.01-.255-.022-.38-.035a.333.333 0 01.215-.587zm-1.334 0a.333.333 0 01.3.48 13.86 13.86 0 01-.63-.114L88 38.667c0-.184.15-.334.333-.334zm-1.333 0c.14 0 .26.086.31.208-.173-.043-.344-.09-.513-.139a.328.328 0 01.203-.07zm-1.333-1.335a.333.333 0 110 .667.333.333 0 010-.666zM87 37a.333.333 0 110 .667.333.333 0 010-.666zm1.333 0a.333.333 0 110 .667.333.333 0 010-.666zm1.334 0a.333.333 0 110 .667.333.333 0 010-.666zM91 37v.667A.333.333 0 0191 37zm-6.667 0a.333.333 0 01.245.56 14.697 14.697 0 01-.573-.286l-.005.06c0-.184.15-.334.333-.334zM83 35.666a.333.333 0 110 .667.333.333 0 010-.666zm1.333 0a.333.333 0 110 .667.333.333 0 010-.666zm1.334 0a.333.333 0 110 .667.333.333 0 010-.666zm1.333 0a.333.333 0 110 .667.333.333 0 010-.666zm1.333 0a.333.333 0 110 .667.333.333 0 010-.666zm1.334 0a.333.333 0 110 .667.333.333 0 010-.666zm1.333 0v.667a.333.333 0 010-.666zm-9.333 0c.184 0 .333.15.333.334l-.185-.14-.23-.182.015-.005a.33.33 0 01.067-.007zm0-1.332a.333.333 0 110 .666.333.333 0 010-.666zm1.333 0A.333.333 0 1183 35a.333.333 0 010-.666zm1.333 0a.333.333 0 110 .666.333.333 0 010-.666zm1.334 0a.333.333 0 110 .666.333.333 0 010-.666zm1.333 0A.333.333 0 1187 35a.333.333 0 010-.666zm1.333 0a.333.333 0 110 .666.333.333 0 010-.666zm1.334 0a.333.333 0 110 .666.333.333 0 010-.666zm1.333 0V35a.333.333 0 010-.666zm-10.667 0a.333.333 0 01.291.496 12.645 12.645 0 01-.454-.452.311.311 0 01.163-.044zm8-1.335a.333.333 0 110 .667.333.333 0 010-.666zm1.334 0a.333.333 0 110 .667.333.333 0 010-.666zm-9.334 0a.333.333 0 110 .667.333.333 0 010-.666zm1.334 0a.333.333 0 110 .667.333.333 0 010-.666zM83 33a.333.333 0 110 .667.333.333 0 010-.666zm1.333 0a.333.333 0 110 .667.333.333 0 010-.666zm1.334 0a.333.333 0 110 .667.333.333 0 010-.666zM87 33a.333.333 0 110 .667.333.333 0 010-.666zm4 0v.667A.333.333 0 0191 33zm-12 0a.333.333 0 01.323.416 12.92 12.92 0 01-.325-.416H79zm1.333-1.333a.333.333 0 110 .667.333.333 0 010-.666zm2.667 0a.333.333 0 110 .667.333.333 0 010-.666zm-1.333 0a.333.333 0 110 .667.333.333 0 010-.666zm8 0a.333.333 0 110 .667.333.333 0 010-.666zm-5.334 0a.333.333 0 110 .667.333.333 0 010-.666zm1.334 0a.333.333 0 110 .667.333.333 0 010-.666zm1.333 0a.333.333 0 110 .667.333.333 0 010-.666zm1.333 0a.333.333 0 110 .667.333.333 0 010-.666zm2.667 0v.667a.333.333 0 010-.666zm-12 0a.333.333 0 110 .667.333.333 0 010-.666zm0-1.332A.333.333 0 1179 31a.333.333 0 010-.666zm5.333 0a.333.333 0 110 .666.333.333 0 010-.666zm1.334 0a.333.333 0 110 .666.333.333 0 010-.666zm1.333 0A.333.333 0 1187 31a.333.333 0 010-.666zm-6.667 0a.333.333 0 110 .666.333.333 0 010-.666zm10.667 0V31a.333.333 0 010-.666zm-2.667 0a.333.333 0 110 .666.333.333 0 010-.666zm-6.666 0a.333.333 0 110 .666.333.333 0 010-.666zm8 0a.333.333 0 110 .666.333.333 0 010-.666zm-6.667 0A.333.333 0 1183 31a.333.333 0 010-.666zm-5.333 0a.333.333 0 01.061.66c-.1-.188-.196-.379-.288-.572a.333.333 0 01.227-.088zM84.333 29a.333.333 0 110 .666.333.333 0 010-.666zM91 29v.666A.333.333 0 0191 29zm-4 0a.333.333 0 110 .666.333.333 0 010-.666zm-9.333 0a.333.333 0 110 .666.333.333 0 010-.666zm2.666 0a.333.333 0 110 .666.333.333 0 010-.666zm9.334 0a.333.333 0 110 .666.333.333 0 010-.666zm-4 0a.333.333 0 110 .666.333.333 0 010-.666zM79 29a.333.333 0 110 .666.333.333 0 010-.666zm2.667 0a.333.333 0 110 .666.333.333 0 010-.666zM83 29a.333.333 0 110 .666.333.333 0 010-.666zm5.333 0a.333.333 0 110 .666.333.333 0 010-.666zm-8-1.334a.333.333 0 110 .667.333.333 0 010-.666zm5.334 0a.333.333 0 110 .667.333.333 0 010-.666zm5.333 0v.667a.333.333 0 010-.666zm-12 0a.333.333 0 110 .667.333.333 0 010-.666zm5.333 0a.333.333 0 110 .667.333.333 0 010-.666zm-1.333 0a.333.333 0 110 .667.333.333 0 010-.666zm5.333 0a.333.333 0 110 .667.333.333 0 010-.666zm-6.666 0a.333.333 0 110 .667.333.333 0 010-.666zm8 0a.333.333 0 110 .667.333.333 0 010-.666zm-2.667 0a.333.333 0 110 .667.333.333 0 010-.666zm-9.333 0a.333.333 0 110 .667.333.333 0 010-.666zm-1 .334a.332.332 0 01-.07.203c-.05-.17-.096-.34-.14-.511a.331.331 0 01.21.308zM83 26.334A.333.333 0 1183 27a.333.333 0 010-.666zm-6.667 0a.333.333 0 010 .666l-.034-.004c-.042-.207-.08-.416-.113-.627a.312.312 0 01.147-.035zm5.334 0a.333.333 0 110 .666.333.333 0 010-.666zm2.666 0a.333.333 0 110 .666.333.333 0 010-.666zm6.667 0V27a.333.333 0 010-.666zm-13.333 0a.333.333 0 110 .666.333.333 0 010-.666zm9.333 0A.333.333 0 1187 27a.333.333 0 010-.666zm-8 0A.333.333 0 1179 27a.333.333 0 010-.666zm9.333 0a.333.333 0 110 .666.333.333 0 010-.666zm1.334 0a.333.333 0 110 .666.333.333 0 010-.666zm-4 0a.333.333 0 110 .666.333.333 0 010-.666zm-5.334 0a.333.333 0 110 .666.333.333 0 010-.666zM79 25a.333.333 0 110 .666.333.333 0 010-.666zm12 0v.666A.333.333 0 0191 25zm-5.333 0a.333.333 0 110 .666.333.333 0 010-.666zm-1.334 0a.333.333 0 110 .666.333.333 0 010-.666zm-6.666 0a.333.333 0 110 .666.333.333 0 010-.666zm-1.334 0a.333.333 0 11-.255.547 22.146 22.146 0 01-.033-.38.331.331 0 01.288-.168zm12 0a.333.333 0 110 .666.333.333 0 010-.666zm1.334 0a.333.333 0 110 .666.333.333 0 010-.666zM87 25a.333.333 0 110 .666.333.333 0 010-.666zm-4 0a.333.333 0 110 .666.333.333 0 010-.666zm-1.333 0a.333.333 0 110 .666.333.333 0 010-.666zm-1.334 0a.333.333 0 110 .666.333.333 0 010-.666zM79 23.666a.333.333 0 110 .667.333.333 0 010-.666zm4 0a.333.333 0 110 .667.333.333 0 010-.666zm-5.333 0a.333.333 0 110 .667.333.333 0 010-.666zm6.666 0a.333.333 0 110 .667.333.333 0 010-.666zm1.334 0a.333.333 0 110 .667.333.333 0 010-.666zm-9.334 0a.333.333 0 110 .667.333.333 0 010-.666zm10.667 0a.333.333 0 110 .667.333.333 0 010-.666zm1.333 0a.333.333 0 110 .667.333.333 0 010-.666zm-8 0a.333.333 0 110 .667.333.333 0 010-.666zm9.334 0a.333.333 0 110 .667.333.333 0 010-.666zm-8 0a.333.333 0 110 .667.333.333 0 010-.666zm9.333 0v.667a.333.333 0 010-.666zm-13.333-1.332a.333.333 0 110 .666.333.333 0 010-.666zm4 0a.333.333 0 110 .666.333.333 0 010-.666zm5.333 0A.333.333 0 1187 23a.333.333 0 010-.666zm-2.667 0a.333.333 0 110 .666.333.333 0 010-.666zm-5.333 0A.333.333 0 1179 23a.333.333 0 010-.666zm12 0V23a.333.333 0 010-.666zm-8 0A.333.333 0 1183 23a.333.333 0 010-.666zm-6.667 0a.333.333 0 11-.288.5c.01-.128.02-.255.034-.381a.33.33 0 01.254-.12zm12 0a.333.333 0 110 .666.333.333 0 010-.666zm1.334 0a.333.333 0 110 .666.333.333 0 010-.666zm-9.334 0a.333.333 0 110 .666.333.333 0 010-.666zm5.334 0a.333.333 0 110 .666.333.333 0 010-.666zM87 21a.333.333 0 110 .666.333.333 0 010-.666zm1.333 0a.333.333 0 110 .666.333.333 0 010-.666zm-8 0a.333.333 0 110 .666.333.333 0 010-.666zM91 21v.666A.333.333 0 0191 21zm-13.333 0a.333.333 0 110 .666.333.333 0 010-.666zM83 21a.333.333 0 110 .666.333.333 0 010-.666zm-1.333 0a.333.333 0 110 .666.333.333 0 010-.666zm-5.334 0a.333.333 0 11-.147.632c.034-.213.071-.422.114-.63l.033-.002zm8 0a.333.333 0 110 .666.333.333 0 010-.666zm1.334 0a.333.333 0 110 .666.333.333 0 010-.666zm4 0a.333.333 0 110 .666.333.333 0 010-.666zM79 21a.333.333 0 110 .666.333.333 0 010-.666zm0-1.334a.333.333 0 110 .667.333.333 0 010-.666zm9.333 0a.333.333 0 110 .667.333.333 0 010-.666zm-6.666 0a.333.333 0 110 .667.333.333 0 010-.666zm1.333 0a.333.333 0 110 .667.333.333 0 010-.666zm8 0v.667a.333.333 0 010-.666zm-10.667 0a.333.333 0 110 .667.333.333 0 010-.666zm5.334 0a.333.333 0 110 .667.333.333 0 010-.666zm1.333 0a.333.333 0 110 .667.333.333 0 010-.666zm-9.333 0a.333.333 0 110 .667.333.333 0 010-.666zm6.666 0a.333.333 0 110 .667.333.333 0 010-.666zm5.334 0a.333.333 0 110 .667.333.333 0 010-.666zm-13 .334c0 .14-.087.26-.21.31.044-.172.09-.343.14-.512a.32.32 0 01.07.202zm1-1.666a.333.333 0 110 .666.333.333 0 010-.666zm4 0a.333.333 0 110 .666.333.333 0 010-.666zm6.666 0a.333.333 0 110 .666.333.333 0 010-.666zm-9.333 0A.333.333 0 1179 19a.333.333 0 010-.666zm12 0V19a.333.333 0 010-.666zm-10.667 0a.333.333 0 110 .666.333.333 0 010-.666zm4 0a.333.333 0 110 .666.333.333 0 010-.666zm-1.333 0A.333.333 0 1183 19a.333.333 0 010-.666zm4 0A.333.333 0 1187 19a.333.333 0 010-.666zm2.667 0a.333.333 0 110 .666.333.333 0 010-.666zm-4 0a.333.333 0 110 .666.333.333 0 010-.666zM79 17a.333.333 0 110 .666.333.333 0 010-.666zm-1.273.005l-.06-.005a.333.333 0 11-.226.578c.091-.194.187-.385.286-.573zm7.94-.005a.333.333 0 110 .666.333.333 0 010-.666zm2.666 0a.333.333 0 110 .666.333.333 0 010-.666zM83 17a.333.333 0 110 .666.333.333 0 010-.666zm6.667 0a.333.333 0 110 .666.333.333 0 010-.666zm-8 0a.333.333 0 110 .666.333.333 0 010-.666zM91 17v.666A.333.333 0 0191 17zm-4 0a.333.333 0 110 .666.333.333 0 010-.666zm-2.667 0a.333.333 0 110 .666.333.333 0 010-.666zm-4 0a.333.333 0 110 .666.333.333 0 010-.666zm8-1.334a.333.333 0 110 .667.333.333 0 010-.666zm-6.666 0a.333.333 0 110 .667.333.333 0 010-.666zm4 0a.333.333 0 110 .667.333.333 0 010-.666zm-2.667 0a.333.333 0 110 .667.333.333 0 010-.666zm1.333 0a.333.333 0 110 .667.333.333 0 010-.666zm6.667 0v.667a.333.333 0 010-.666zm-12 0a.333.333 0 110 .667.333.333 0 010-.666zm1.333 0a.333.333 0 110 .667.333.333 0 010-.666zm9.334 0a.333.333 0 110 .667.333.333 0 010-.666zm-2.667 0a.333.333 0 110 .667.333.333 0 010-.666zm0-1.332A.333.333 0 1187 15a.333.333 0 010-.666zm-5.333 0a.333.333 0 110 .666.333.333 0 010-.666zm9.333 0V15a.333.333 0 010-.666zm-11.667.333A.333.333 0 0179 15c.104-.14.212-.279.322-.415a.298.298 0 01.011.082zm10.334-.333a.333.333 0 110 .666.333.333 0 010-.666zm-9.334 0a.333.333 0 110 .666.333.333 0 010-.666zm8 0a.333.333 0 110 .666.333.333 0 010-.666zm-5.333 0A.333.333 0 1183 15a.333.333 0 010-.666zm1.333 0a.333.333 0 110 .666.333.333 0 010-.666zm1.334 0a.333.333 0 110 .666.333.333 0 010-.666zm-4-1.335a.333.333 0 110 .667.333.333 0 010-.667zm-1 .334a.333.333 0 01-.497.29c.147-.155.298-.306.452-.453.03.048.045.104.045.163zM83 12.999a.333.333 0 110 .667.333.333 0 010-.667zm1.333 0a.333.333 0 110 .667.333.333 0 010-.667zm5.334 0a.333.333 0 110 .667.333.333 0 010-.667zm-4 0a.333.333 0 110 .667.333.333 0 010-.667zM87 13a.333.333 0 110 .667.333.333 0 010-.667zm4 0v.667A.333.333 0 0191 13zm-2.667 0a.333.333 0 110 .667.333.333 0 010-.667zM91 11.666v.667a.333.333 0 010-.667zm-2.667 0a.333.333 0 110 .667.333.333 0 010-.667zm-4 0a.333.333 0 110 .667.333.333 0 010-.667zm5.334 0a.333.333 0 110 .667.333.333 0 010-.667zm-4 0a.333.333 0 110 .667.333.333 0 010-.667zm1.333 0a.333.333 0 110 .667.333.333 0 010-.667zm-4 0a.333.333 0 110 .667.333.333 0 010-.667zM82 12a.333.333 0 01-.416.323c.137-.111.276-.219.416-.324zm7.667-1.666a.333.333 0 110 .666.333.333 0 010-.666zm-5 .333a.333.333 0 01-.662.06c.189-.1.38-.195.572-.286.056.059.09.138.09.226zm1-.333a.333.333 0 110 .666.333.333 0 010-.666zm1.333 0A.333.333 0 1187 11a.333.333 0 010-.666zm1.333 0a.333.333 0 110 .666.333.333 0 010-.666zm2.667 0V11a.333.333 0 010-.666zm-4-.668a.332.332 0 01-.202-.068c.17-.05.34-.097.511-.14a.334.334 0 01-.309.208zm1.667-.333a.333.333 0 01-.667 0l.004-.034c.207-.042.417-.08.627-.113a.318.318 0 01.036.147zm1.333 0a.333.333 0 11-.548-.255c.127-.012.254-.024.381-.033.1.057.167.165.167.288zM91 9v.666A.333.333 0 0191 9z" fill="#A6A6A6"/><path fill-rule="evenodd" clip-rule="evenodd" d="M90.175 40a6.057 6.057 0 000 12H91v-.944a5.056 5.056 0 010-10.112V40h-.825zM91 19c-5.523 0-10 4.477-10 10s4.477 10 10 10V19z" fill="#fff"/><defs><linearGradient id="paint0_linear" x1="78.848" y1="18.091" x2="63.272" y2="81.309" gradientUnits="userSpaceOnUse"><stop stop-color="#FF3D00"/><stop offset="1" stop-color="#77178E"/></linearGradient></defs></svg>