<svg width="92" height="110" viewBox="0 0 92 110" fill="none" xmlns="http://www.w3.org/2000/svg">
<rect x="1" y="1" width="90" height="108" fill="#E6DEFF"/>
<path d="M16 28.0225C16 26.9225 16.8819 26.0292 17.9819 26.0243C21.9898 26.0063 31.2356 25.9754 37.8182 26.0345C44.859 26.0977 54.7904 26.0634 58.9949 26.0443C60.104 26.0392 61 26.9368 61 28.0459V41.0171V54C61 55.1046 60.1046 56 59 56H38.5H18C16.8954 56 16 55.1046 16 54V28.0225Z" fill="#26296F"/>
<path d="M21.4546 30.7433C21.4546 29.6433 22.3379 28.75 23.4379 28.7453C26.885 28.7305 34.1096 28.7086 39.3058 28.7553C44.8703 28.8052 52.6414 28.7808 56.2647 28.7649C57.3738 28.7601 58.2728 29.6576 58.2728 30.7668V41.0138V51.2725C58.2728 52.3771 57.3773 53.2725 56.2728 53.2725H39.8637H23.4546C22.35 53.2725 21.4546 52.3771 21.4546 51.2725V30.7433Z" fill="url(#paint0_linear)"/>
<path opacity="0.2" d="M39.1819 36.9093L43.2728 32.8184L47.3637 36.9093L43.2728 41.0002L39.1819 36.9093Z" fill="white"/>
<path d="M40.5457 36.9094L43.2729 34.1821L46.0002 36.9094L43.2729 39.6367L40.5457 36.9094Z" fill="white"/>
<circle cx="18.7272" cy="40.9999" r="1.36364" fill="#9093D7"/>
<path d="M43.2727 42.3638L28.2727 53.2729H55.5454L43.2727 42.3638Z" fill="#9093D7"/>
<path d="M80 101.87L87 95L73 95L73 109L80 101.87Z" fill="#572BE0"/>
<path d="M66 102.13L59 109L73 109L73 95L66 102.13Z" fill="#572BE0"/>
<path d="M52 101.87L59 95L45 95L45 109L52 101.87Z" fill="#572BE0"/>
<path d="M38 102.13L31 109L45 109L45 95L38 102.13Z" fill="#572BE0"/>
<path d="M24 101.87L31 95L17 95L17 109L24 101.87Z" fill="#572BE0"/>
<path d="M10 102.13L3 109L17 109L17 95L10 102.13Z" fill="#572BE0"/>
<rect x="1" y="1" width="90" height="108" stroke="white"/>
<rect x="1" y="12" width="0.999997" height="74" transform="rotate(-90 1 12)" fill="white"/>
<rect x="74" y="1" width="1" height="11" fill="white"/>
<path d="M90.9999 38.3335L91 38.3325L91 38.9998L90.9999 39.0002C90.8158 39.0002 90.6666 38.8509 90.6666 38.6668C90.6666 38.4828 90.8158 38.3335 90.9999 38.3335ZM89.6667 38.3335C89.8508 38.3335 90.0001 38.4828 90.0001 38.6668C90.0001 38.7904 89.9329 38.8982 89.833 38.9558C89.7051 38.9453 89.5784 38.9339 89.4522 38.921C89.3791 38.86 89.3334 38.7688 89.3334 38.6668C89.3334 38.4828 89.4826 38.3335 89.6667 38.3335ZM88.3334 38.3335C88.5175 38.3335 88.6668 38.4828 88.6668 38.6668C88.6668 38.7194 88.6546 38.7692 88.6329 38.8134C88.4207 38.7805 88.2114 38.7426 88.0036 38.7005L88.0001 38.6668C88.0001 38.4828 88.1493 38.3335 88.3334 38.3335ZM87 38.3335C87.1399 38.3335 87.2597 38.4197 87.3091 38.5419C87.1368 38.4987 86.9663 38.4524 86.7971 38.4031C86.853 38.3593 86.9235 38.3335 87 38.3335ZM85.6667 36.9995C85.8508 36.9995 86.0001 37.1488 86.0001 37.3328C86.0001 37.5169 85.8508 37.6662 85.6667 37.6662C85.4826 37.6662 85.3334 37.5169 85.3334 37.3328C85.3334 37.1488 85.4826 36.9995 85.6667 36.9995ZM87 36.9995C87.1841 36.9995 87.3334 37.1488 87.3334 37.3328C87.3334 37.5169 87.1841 37.6662 87 37.6662C86.8159 37.6662 86.6667 37.5169 86.6667 37.3328C86.6667 37.1488 86.8159 36.9995 87 36.9995ZM88.3334 36.9995C88.5175 36.9995 88.6668 37.1488 88.6668 37.3328C88.6668 37.5169 88.5175 37.6662 88.3334 37.6662C88.1493 37.6662 88.0001 37.5169 88.0001 37.3328C88.0001 37.1488 88.1493 36.9995 88.3334 36.9995ZM89.6667 36.9995C89.8508 36.9995 90.0001 37.1488 90.0001 37.3328C90.0001 37.5169 89.8508 37.6662 89.6667 37.6662C89.4826 37.6662 89.3334 37.5169 89.3334 37.3328C89.3334 37.1488 89.4826 36.9995 89.6667 36.9995ZM91.0001 36.9995V37.6662C90.816 37.6662 90.6668 37.5169 90.6668 37.3328C90.6668 37.1488 90.816 36.9995 91.0001 36.9995ZM84.3333 36.9995C84.5174 36.9995 84.6667 37.1488 84.6667 37.3328C84.6667 37.4203 84.633 37.4999 84.5779 37.5593C84.3842 37.4675 84.1936 37.372 84.0053 37.2725L84 37.3328C84 37.1488 84.1492 36.9995 84.3333 36.9995ZM83 35.6665C83.1841 35.6665 83.3334 35.8158 83.3334 35.9998C83.3334 36.1839 83.1841 36.3332 83 36.3332C82.8159 36.3332 82.6667 36.1839 82.6667 35.9998C82.6667 35.8158 82.8159 35.6665 83 35.6665ZM84.3333 35.6665C84.5174 35.6665 84.6667 35.8158 84.6667 35.9998C84.6667 36.1839 84.5174 36.3332 84.3333 36.3332C84.1492 36.3332 84 36.1839 84 35.9998C84 35.8158 84.1492 35.6665 84.3333 35.6665ZM85.6667 35.6665C85.8508 35.6665 86.0001 35.8158 86.0001 35.9998C86.0001 36.1839 85.8508 36.3332 85.6667 36.3332C85.4826 36.3332 85.3334 36.1839 85.3334 35.9998C85.3334 35.8158 85.4826 35.6665 85.6667 35.6665ZM87 35.6665C87.1841 35.6665 87.3334 35.8158 87.3334 35.9998C87.3334 36.1839 87.1841 36.3332 87 36.3332C86.8159 36.3332 86.6667 36.1839 86.6667 35.9998C86.6667 35.8158 86.8159 35.6665 87 35.6665ZM88.3334 35.6665C88.5175 35.6665 88.6668 35.8158 88.6668 35.9998C88.6668 36.1839 88.5175 36.3332 88.3334 36.3332C88.1493 36.3332 88.0001 36.1839 88.0001 35.9998C88.0001 35.8158 88.1493 35.6665 88.3334 35.6665ZM89.6667 35.6665C89.8508 35.6665 90.0001 35.8158 90.0001 35.9998C90.0001 36.1839 89.8508 36.3332 89.6667 36.3332C89.4826 36.3332 89.3334 36.1839 89.3334 35.9998C89.3334 35.8158 89.4826 35.6665 89.6667 35.6665ZM91.0001 35.6665V36.3332C90.816 36.3332 90.6668 36.1839 90.6668 35.9998C90.6668 35.8158 90.816 35.6665 91.0001 35.6665ZM81.6667 35.6665C81.8508 35.6665 82.0001 35.8158 82.0001 35.9998L81.8147 35.8595C81.7378 35.7999 81.6615 35.7395 81.5858 35.6784L81.5996 35.6733C81.6213 35.6688 81.6437 35.6665 81.6667 35.6665ZM81.6667 34.3335C81.8508 34.3335 82.0001 34.4828 82.0001 34.6668C82.0001 34.8509 81.8508 35.0002 81.6667 35.0002C81.4826 35.0002 81.3334 34.8509 81.3334 34.6668C81.3334 34.4828 81.4826 34.3335 81.6667 34.3335ZM83 34.3335C83.1841 34.3335 83.3334 34.4828 83.3334 34.6668C83.3334 34.8509 83.1841 35.0002 83 35.0002C82.8159 35.0002 82.6667 34.8509 82.6667 34.6668C82.6667 34.4828 82.8159 34.3335 83 34.3335ZM84.3333 34.3335C84.5174 34.3335 84.6667 34.4828 84.6667 34.6668C84.6667 34.8509 84.5174 35.0002 84.3333 35.0002C84.1492 35.0002 84 34.8509 84 34.6668C84 34.4828 84.1492 34.3335 84.3333 34.3335ZM85.6667 34.3335C85.8508 34.3335 86.0001 34.4828 86.0001 34.6668C86.0001 34.8509 85.8508 35.0002 85.6667 35.0002C85.4826 35.0002 85.3334 34.8509 85.3334 34.6668C85.3334 34.4828 85.4826 34.3335 85.6667 34.3335ZM87 34.3335C87.1841 34.3335 87.3334 34.4828 87.3334 34.6668C87.3334 34.8509 87.1841 35.0002 87 35.0002C86.8159 35.0002 86.6667 34.8509 86.6667 34.6668C86.6667 34.4828 86.8159 34.3335 87 34.3335ZM88.3334 34.3335C88.5175 34.3335 88.6668 34.4828 88.6668 34.6668C88.6668 34.8509 88.5175 35.0002 88.3334 35.0002C88.1493 35.0002 88.0001 34.8509 88.0001 34.6668C88.0001 34.4828 88.1493 34.3335 88.3334 34.3335ZM89.6667 34.3335C89.8508 34.3335 90.0001 34.4828 90.0001 34.6668C90.0001 34.8509 89.8508 35.0002 89.6667 35.0002C89.4826 35.0002 89.3334 34.8509 89.3334 34.6668C89.3334 34.4828 89.4826 34.3335 89.6667 34.3335ZM91.0001 34.3335V35.0002C90.816 35.0002 90.6668 34.8509 90.6668 34.6668C90.6668 34.4828 90.816 34.3335 91.0001 34.3335ZM80.3333 34.3335C80.5174 34.3335 80.6667 34.4828 80.6667 34.6668C80.6667 34.726 80.6512 34.7816 80.6242 34.8298C80.4679 34.6825 80.3174 34.532 80.17 34.3783C80.2175 34.3492 80.2736 34.3335 80.3333 34.3335ZM88.3334 32.9995C88.5175 32.9995 88.6668 33.1488 88.6668 33.3328C88.6668 33.5169 88.5175 33.6662 88.3334 33.6662C88.1493 33.6662 88.0001 33.5169 88.0001 33.3328C88.0001 33.1488 88.1493 32.9995 88.3334 32.9995ZM89.6667 32.9995C89.8508 32.9995 90.0001 33.1488 90.0001 33.3328C90.0001 33.5169 89.8508 33.6662 89.6667 33.6662C89.4826 33.6662 89.3334 33.5169 89.3334 33.3328C89.3334 33.1488 89.4826 32.9995 89.6667 32.9995ZM80.3333 32.9995C80.5174 32.9995 80.6667 33.1488 80.6667 33.3328C80.6667 33.5169 80.5174 33.6662 80.3333 33.6662C80.1492 33.6662 80 33.5169 80 33.3328C80 33.1488 80.1492 32.9995 80.3333 32.9995ZM81.6667 32.9995C81.8508 32.9995 82.0001 33.1488 82.0001 33.3328C82.0001 33.5169 81.8508 33.6662 81.6667 33.6662C81.4826 33.6662 81.3334 33.5169 81.3334 33.3328C81.3334 33.1488 81.4826 32.9995 81.6667 32.9995ZM83 32.9995C83.1841 32.9995 83.3334 33.1488 83.3334 33.3328C83.3334 33.5169 83.1841 33.6662 83 33.6662C82.8159 33.6662 82.6667 33.5169 82.6667 33.3328C82.6667 33.1488 82.8159 32.9995 83 32.9995ZM84.3333 32.9995C84.5174 32.9995 84.6667 33.1488 84.6667 33.3328C84.6667 33.5169 84.5174 33.6662 84.3333 33.6662C84.1492 33.6662 84 33.5169 84 33.3328C84 33.1488 84.1492 32.9995 84.3333 32.9995ZM85.6667 32.9995C85.8508 32.9995 86.0001 33.1488 86.0001 33.3328C86.0001 33.5169 85.8508 33.6662 85.6667 33.6662C85.4826 33.6662 85.3334 33.5169 85.3334 33.3328C85.3334 33.1488 85.4826 32.9995 85.6667 32.9995ZM87 32.9995C87.1841 32.9995 87.3334 33.1488 87.3334 33.3328C87.3334 33.5169 87.1841 33.6662 87 33.6662C86.8159 33.6662 86.6667 33.5169 86.6667 33.3328C86.6667 33.1488 86.8159 32.9995 87 32.9995ZM91.0001 32.9995V33.6662C90.816 33.6662 90.6668 33.5169 90.6668 33.3328C90.6668 33.1488 90.816 32.9995 91.0001 32.9995ZM79 32.9995C79.1841 32.9995 79.3334 33.1488 79.3334 33.3328C79.3334 33.3613 79.3298 33.389 79.3231 33.4154C79.2119 33.2783 79.1039 33.1396 78.9983 32.999L79 32.9995ZM80.3333 31.6665C80.5174 31.6665 80.6667 31.8158 80.6667 31.9998C80.6667 32.1839 80.5174 32.3332 80.3333 32.3332C80.1492 32.3332 80 32.1839 80 31.9998C80 31.8158 80.1492 31.6665 80.3333 31.6665ZM83 31.6665C83.1841 31.6665 83.3334 31.8158 83.3334 31.9998C83.3334 32.1839 83.1841 32.3332 83 32.3332C82.8159 32.3332 82.6667 32.1839 82.6667 31.9998C82.6667 31.8158 82.8159 31.6665 83 31.6665ZM81.6667 31.6665C81.8508 31.6665 82.0001 31.8158 82.0001 31.9998C82.0001 32.1839 81.8508 32.3332 81.6667 32.3332C81.4826 32.3332 81.3334 32.1839 81.3334 31.9998C81.3334 31.8158 81.4826 31.6665 81.6667 31.6665ZM89.6667 31.6665C89.8508 31.6665 90.0001 31.8158 90.0001 31.9998C90.0001 32.1839 89.8508 32.3332 89.6667 32.3332C89.4826 32.3332 89.3334 32.1839 89.3334 31.9998C89.3334 31.8158 89.4826 31.6665 89.6667 31.6665ZM84.3333 31.6665C84.5174 31.6665 84.6667 31.8158 84.6667 31.9998C84.6667 32.1839 84.5174 32.3332 84.3333 32.3332C84.1492 32.3332 84 32.1839 84 31.9998C84 31.8158 84.1492 31.6665 84.3333 31.6665ZM85.6667 31.6665C85.8508 31.6665 86.0001 31.8158 86.0001 31.9998C86.0001 32.1839 85.8508 32.3332 85.6667 32.3332C85.4826 32.3332 85.3334 32.1839 85.3334 31.9998C85.3334 31.8158 85.4826 31.6665 85.6667 31.6665ZM87 31.6665C87.1841 31.6665 87.3334 31.8158 87.3334 31.9998C87.3334 32.1839 87.1841 32.3332 87 32.3332C86.8159 32.3332 86.6667 32.1839 86.6667 31.9998C86.6667 31.8158 86.8159 31.6665 87 31.6665ZM88.3334 31.6665C88.5175 31.6665 88.6668 31.8158 88.6668 31.9998C88.6668 32.1839 88.5175 32.3332 88.3334 32.3332C88.1493 32.3332 88.0001 32.1839 88.0001 31.9998C88.0001 31.8158 88.1493 31.6665 88.3334 31.6665ZM91.0001 31.6665V32.3332C90.816 32.3332 90.6668 32.1839 90.6668 31.9998C90.6668 31.8158 90.816 31.6665 91.0001 31.6665ZM79 31.6665C79.1841 31.6665 79.3334 31.8158 79.3334 31.9998C79.3334 32.1839 79.1841 32.3332 79 32.3332C78.8159 32.3332 78.6667 32.1839 78.6667 31.9998C78.6667 31.8158 78.8159 31.6665 79 31.6665ZM79 30.3335C79.1841 30.3335 79.3334 30.4828 79.3334 30.6668C79.3334 30.8509 79.1841 31.0002 79 31.0002C78.8159 31.0002 78.6667 30.8509 78.6667 30.6668C78.6667 30.4828 78.8159 30.3335 79 30.3335ZM84.3333 30.3335C84.5174 30.3335 84.6667 30.4828 84.6667 30.6668C84.6667 30.8509 84.5174 31.0002 84.3333 31.0002C84.1492 31.0002 84 30.8509 84 30.6668C84 30.4828 84.1492 30.3335 84.3333 30.3335ZM85.6667 30.3335C85.8508 30.3335 86.0001 30.4828 86.0001 30.6668C86.0001 30.8509 85.8508 31.0002 85.6667 31.0002C85.4826 31.0002 85.3334 30.8509 85.3334 30.6668C85.3334 30.4828 85.4826 30.3335 85.6667 30.3335ZM87 30.3335C87.1841 30.3335 87.3334 30.4828 87.3334 30.6668C87.3334 30.8509 87.1841 31.0002 87 31.0002C86.8159 31.0002 86.6667 30.8509 86.6667 30.6668C86.6667 30.4828 86.8159 30.3335 87 30.3335ZM80.3333 30.3335C80.5174 30.3335 80.6667 30.4828 80.6667 30.6668C80.6667 30.8509 80.5174 31.0002 80.3333 31.0002C80.1492 31.0002 80 30.8509 80 30.6668C80 30.4828 80.1492 30.3335 80.3333 30.3335ZM91.0001 30.3335V31.0002C90.816 31.0002 90.6668 30.8509 90.6668 30.6668C90.6668 30.4828 90.816 30.3335 91.0001 30.3335ZM88.3334 30.3335C88.5175 30.3335 88.6668 30.4828 88.6668 30.6668C88.6668 30.8509 88.5175 31.0002 88.3334 31.0002C88.1493 31.0002 88.0001 30.8509 88.0001 30.6668C88.0001 30.4828 88.1493 30.3335 88.3334 30.3335ZM81.6667 30.3335C81.8508 30.3335 82.0001 30.4828 82.0001 30.6668C82.0001 30.8509 81.8508 31.0002 81.6667 31.0002C81.4826 31.0002 81.3334 30.8509 81.3334 30.6668C81.3334 30.4828 81.4826 30.3335 81.6667 30.3335ZM89.6667 30.3335C89.8508 30.3335 90.0001 30.4828 90.0001 30.6668C90.0001 30.8509 89.8508 31.0002 89.6667 31.0002C89.4826 31.0002 89.3334 30.8509 89.3334 30.6668C89.3334 30.4828 89.4826 30.3335 89.6667 30.3335ZM83 30.3335C83.1841 30.3335 83.3334 30.4828 83.3334 30.6668C83.3334 30.8509 83.1841 31.0002 83 31.0002C82.8159 31.0002 82.6667 30.8509 82.6667 30.6668C82.6667 30.4828 82.8159 30.3335 83 30.3335ZM77.6666 30.3335C77.8507 30.3335 78 30.4828 78 30.6668C78 30.83 77.8828 30.9658 77.728 30.9945C77.6278 30.806 77.5321 30.6151 77.4404 30.4219C77.4996 30.3672 77.5792 30.3335 77.6666 30.3335ZM84.3333 28.9995C84.5174 28.9995 84.6667 29.1488 84.6667 29.3328C84.6667 29.5169 84.5174 29.6662 84.3333 29.6662C84.1492 29.6662 84 29.5169 84 29.3328C84 29.1488 84.1492 28.9995 84.3333 28.9995ZM91.0001 28.9995V29.6662C90.816 29.6662 90.6668 29.5169 90.6668 29.3328C90.6668 29.1488 90.816 28.9995 91.0001 28.9995ZM87 28.9995C87.1841 28.9995 87.3334 29.1488 87.3334 29.3328C87.3334 29.5169 87.1841 29.6662 87 29.6662C86.8159 29.6662 86.6667 29.5169 86.6667 29.3328C86.6667 29.1488 86.8159 28.9995 87 28.9995ZM77.6666 28.9995C77.8507 28.9995 78 29.1488 78 29.3328C78 29.5169 77.8507 29.6662 77.6666 29.6662C77.4825 29.6662 77.3333 29.5169 77.3333 29.3328C77.3333 29.1488 77.4825 28.9995 77.6666 28.9995ZM80.3333 28.9995C80.5174 28.9995 80.6667 29.1488 80.6667 29.3328C80.6667 29.5169 80.5174 29.6662 80.3333 29.6662C80.1492 29.6662 80 29.5169 80 29.3328C80 29.1488 80.1492 28.9995 80.3333 28.9995ZM89.6667 28.9995C89.8508 28.9995 90.0001 29.1488 90.0001 29.3328C90.0001 29.5169 89.8508 29.6662 89.6667 29.6662C89.4826 29.6662 89.3334 29.5169 89.3334 29.3328C89.3334 29.1488 89.4826 28.9995 89.6667 28.9995ZM85.6667 28.9995C85.8508 28.9995 86.0001 29.1488 86.0001 29.3328C86.0001 29.5169 85.8508 29.6662 85.6667 29.6662C85.4826 29.6662 85.3334 29.5169 85.3334 29.3328C85.3334 29.1488 85.4826 28.9995 85.6667 28.9995ZM79 28.9995C79.1841 28.9995 79.3334 29.1488 79.3334 29.3328C79.3334 29.5169 79.1841 29.6662 79 29.6662C78.8159 29.6662 78.6667 29.5169 78.6667 29.3328C78.6667 29.1488 78.8159 28.9995 79 28.9995ZM81.6667 28.9995C81.8508 28.9995 82.0001 29.1488 82.0001 29.3328C82.0001 29.5169 81.8508 29.6662 81.6667 29.6662C81.4826 29.6662 81.3334 29.5169 81.3334 29.3328C81.3334 29.1488 81.4826 28.9995 81.6667 28.9995ZM83 28.9995C83.1841 28.9995 83.3334 29.1488 83.3334 29.3328C83.3334 29.5169 83.1841 29.6662 83 29.6662C82.8159 29.6662 82.6667 29.5169 82.6667 29.3328C82.6667 29.1488 82.8159 28.9995 83 28.9995ZM88.3334 28.9995C88.5175 28.9995 88.6668 29.1488 88.6668 29.3328C88.6668 29.5169 88.5175 29.6662 88.3334 29.6662C88.1493 29.6662 88.0001 29.5169 88.0001 29.3328C88.0001 29.1488 88.1493 28.9995 88.3334 28.9995ZM80.3333 27.6665C80.5174 27.6665 80.6667 27.8158 80.6667 27.9998C80.6667 28.1839 80.5174 28.3332 80.3333 28.3332C80.1492 28.3332 80 28.1839 80 27.9998C80 27.8158 80.1492 27.6665 80.3333 27.6665ZM85.6667 27.6665C85.8508 27.6665 86.0001 27.8158 86.0001 27.9998C86.0001 28.1839 85.8508 28.3332 85.6667 28.3332C85.4826 28.3332 85.3334 28.1839 85.3334 27.9998C85.3334 27.8158 85.4826 27.6665 85.6667 27.6665ZM91.0001 27.6665V28.3332C90.816 28.3332 90.6668 28.1839 90.6668 27.9998C90.6668 27.8158 90.816 27.6665 91.0001 27.6665ZM79 27.6665C79.1841 27.6665 79.3334 27.8158 79.3334 27.9998C79.3334 28.1839 79.1841 28.3332 79 28.3332C78.8159 28.3332 78.6667 28.1839 78.6667 27.9998C78.6667 27.8158 78.8159 27.6665 79 27.6665ZM84.3333 27.6665C84.5174 27.6665 84.6667 27.8158 84.6667 27.9998C84.6667 28.1839 84.5174 28.3332 84.3333 28.3332C84.1492 28.3332 84 28.1839 84 27.9998C84 27.8158 84.1492 27.6665 84.3333 27.6665ZM83 27.6665C83.1841 27.6665 83.3334 27.8158 83.3334 27.9998C83.3334 28.1839 83.1841 28.3332 83 28.3332C82.8159 28.3332 82.6667 28.1839 82.6667 27.9998C82.6667 27.8158 82.8159 27.6665 83 27.6665ZM88.3334 27.6665C88.5175 27.6665 88.6668 27.8158 88.6668 27.9998C88.6668 28.1839 88.5175 28.3332 88.3334 28.3332C88.1493 28.3332 88.0001 28.1839 88.0001 27.9998C88.0001 27.8158 88.1493 27.6665 88.3334 27.6665ZM81.6667 27.6665C81.8508 27.6665 82.0001 27.8158 82.0001 27.9998C82.0001 28.1839 81.8508 28.3332 81.6667 28.3332C81.4826 28.3332 81.3334 28.1839 81.3334 27.9998C81.3334 27.8158 81.4826 27.6665 81.6667 27.6665ZM89.6667 27.6665C89.8508 27.6665 90.0001 27.8158 90.0001 27.9998C90.0001 28.1839 89.8508 28.3332 89.6667 28.3332C89.4826 28.3332 89.3334 28.1839 89.3334 27.9998C89.3334 27.8158 89.4826 27.6665 89.6667 27.6665ZM87 27.6665C87.1841 27.6665 87.3334 27.8158 87.3334 27.9998C87.3334 28.1839 87.1841 28.3332 87 28.3332C86.8159 28.3332 86.6667 28.1839 86.6667 27.9998C86.6667 27.8158 86.8159 27.6665 87 27.6665ZM77.6666 27.6665C77.8507 27.6665 78 27.8158 78 27.9998C78 28.1839 77.8507 28.3332 77.6666 28.3332C77.4825 28.3332 77.3333 28.1839 77.3333 27.9998C77.3333 27.8158 77.4825 27.6665 77.6666 27.6665ZM76.6667 27.9998C76.6667 28.0762 76.641 28.1466 76.5977 28.2029C76.5474 28.0329 76.5011 27.8628 76.4577 27.6915C76.58 27.7396 76.6667 27.8596 76.6667 27.9998ZM83 26.3335C83.1841 26.3335 83.3334 26.4828 83.3334 26.6668C83.3334 26.8509 83.1841 27.0002 83 27.0002C82.8159 27.0002 82.6667 26.8509 82.6667 26.6668C82.6667 26.4828 82.8159 26.3335 83 26.3335ZM76.3333 26.3335C76.5174 26.3335 76.6667 26.4828 76.6667 26.6668C76.6667 26.8509 76.5174 27.0002 76.3333 27.0002L76.2994 26.9962C76.2573 26.7888 76.2195 26.5798 76.1861 26.3693C76.2304 26.3458 76.2804 26.3335 76.3333 26.3335ZM81.6667 26.3335C81.8508 26.3335 82.0001 26.4828 82.0001 26.6668C82.0001 26.8509 81.8508 27.0002 81.6667 27.0002C81.4826 27.0002 81.3334 26.8509 81.3334 26.6668C81.3334 26.4828 81.4826 26.3335 81.6667 26.3335ZM84.3333 26.3335C84.5174 26.3335 84.6667 26.4828 84.6667 26.6668C84.6667 26.8509 84.5174 27.0002 84.3333 27.0002C84.1492 27.0002 84 26.8509 84 26.6668C84 26.4828 84.1492 26.3335 84.3333 26.3335ZM91.0001 26.3335V27.0002C90.816 27.0002 90.6668 26.8509 90.6668 26.6668C90.6668 26.4828 90.816 26.3335 91.0001 26.3335ZM77.6666 26.3335C77.8507 26.3335 78 26.4828 78 26.6668C78 26.8509 77.8507 27.0002 77.6666 27.0002C77.4825 27.0002 77.3333 26.8509 77.3333 26.6668C77.3333 26.4828 77.4825 26.3335 77.6666 26.3335ZM87 26.3335C87.1841 26.3335 87.3334 26.4828 87.3334 26.6668C87.3334 26.8509 87.1841 27.0002 87 27.0002C86.8159 27.0002 86.6667 26.8509 86.6667 26.6668C86.6667 26.4828 86.8159 26.3335 87 26.3335ZM79 26.3335C79.1841 26.3335 79.3334 26.4828 79.3334 26.6668C79.3334 26.8509 79.1841 27.0002 79 27.0002C78.8159 27.0002 78.6667 26.8509 78.6667 26.6668C78.6667 26.4828 78.8159 26.3335 79 26.3335ZM88.3334 26.3335C88.5175 26.3335 88.6668 26.4828 88.6668 26.6668C88.6668 26.8509 88.5175 27.0002 88.3334 27.0002C88.1493 27.0002 88.0001 26.8509 88.0001 26.6668C88.0001 26.4828 88.1493 26.3335 88.3334 26.3335ZM89.6667 26.3335C89.8508 26.3335 90.0001 26.4828 90.0001 26.6668C90.0001 26.8509 89.8508 27.0002 89.6667 27.0002C89.4826 27.0002 89.3334 26.8509 89.3334 26.6668C89.3334 26.4828 89.4826 26.3335 89.6667 26.3335ZM85.6667 26.3335C85.8508 26.3335 86.0001 26.4828 86.0001 26.6668C86.0001 26.8509 85.8508 27.0002 85.6667 27.0002C85.4826 27.0002 85.3334 26.8509 85.3334 26.6668C85.3334 26.4828 85.4826 26.3335 85.6667 26.3335ZM80.3333 26.3335C80.5174 26.3335 80.6667 26.4828 80.6667 26.6668C80.6667 26.8509 80.5174 27.0002 80.3333 27.0002C80.1492 27.0002 80 26.8509 80 26.6668C80 26.4828 80.1492 26.3335 80.3333 26.3335ZM79 24.9995C79.1841 24.9995 79.3334 25.1488 79.3334 25.3328C79.3334 25.5169 79.1841 25.6662 79 25.6662C78.8159 25.6662 78.6667 25.5169 78.6667 25.3328C78.6667 25.1488 78.8159 24.9995 79 24.9995ZM91.0001 24.9995V25.6662C90.816 25.6662 90.6668 25.5169 90.6668 25.3328C90.6668 25.1488 90.816 24.9995 91.0001 24.9995ZM85.6667 24.9995C85.8508 24.9995 86.0001 25.1488 86.0001 25.3328C86.0001 25.5169 85.8508 25.6662 85.6667 25.6662C85.4826 25.6662 85.3334 25.5169 85.3334 25.3328C85.3334 25.1488 85.4826 24.9995 85.6667 24.9995ZM84.3333 24.9995C84.5174 24.9995 84.6667 25.1488 84.6667 25.3328C84.6667 25.5169 84.5174 25.6662 84.3333 25.6662C84.1492 25.6662 84 25.5169 84 25.3328C84 25.1488 84.1492 24.9995 84.3333 24.9995ZM77.6666 24.9995C77.8507 24.9995 78 25.1488 78 25.3328C78 25.5169 77.8507 25.6662 77.6666 25.6662C77.4825 25.6662 77.3333 25.5169 77.3333 25.3328C77.3333 25.1488 77.4825 24.9995 77.6666 24.9995ZM76.3333 24.9995C76.5174 24.9995 76.6667 25.1488 76.6667 25.3328C76.6667 25.5169 76.5174 25.6662 76.3333 25.6662C76.2307 25.6662 76.1389 25.6198 76.0778 25.5468C76.0659 25.4201 76.0545 25.294 76.0448 25.1674C76.102 25.0667 76.2098 24.9995 76.3333 24.9995ZM88.3334 24.9995C88.5175 24.9995 88.6668 25.1488 88.6668 25.3328C88.6668 25.5169 88.5175 25.6662 88.3334 25.6662C88.1493 25.6662 88.0001 25.5169 88.0001 25.3328C88.0001 25.1488 88.1493 24.9995 88.3334 24.9995ZM89.6667 24.9995C89.8508 24.9995 90.0001 25.1488 90.0001 25.3328C90.0001 25.5169 89.8508 25.6662 89.6667 25.6662C89.4826 25.6662 89.3334 25.5169 89.3334 25.3328C89.3334 25.1488 89.4826 24.9995 89.6667 24.9995ZM87 24.9995C87.1841 24.9995 87.3334 25.1488 87.3334 25.3328C87.3334 25.5169 87.1841 25.6662 87 25.6662C86.8159 25.6662 86.6667 25.5169 86.6667 25.3328C86.6667 25.1488 86.8159 24.9995 87 24.9995ZM83 24.9995C83.1841 24.9995 83.3334 25.1488 83.3334 25.3328C83.3334 25.5169 83.1841 25.6662 83 25.6662C82.8159 25.6662 82.6667 25.5169 82.6667 25.3328C82.6667 25.1488 82.8159 24.9995 83 24.9995ZM81.6667 24.9995C81.8508 24.9995 82.0001 25.1488 82.0001 25.3328C82.0001 25.5169 81.8508 25.6662 81.6667 25.6662C81.4826 25.6662 81.3334 25.5169 81.3334 25.3328C81.3334 25.1488 81.4826 24.9995 81.6667 24.9995ZM80.3333 24.9995C80.5174 24.9995 80.6667 25.1488 80.6667 25.3328C80.6667 25.5169 80.5174 25.6662 80.3333 25.6662C80.1492 25.6662 80 25.5169 80 25.3328C80 25.1488 80.1492 24.9995 80.3333 24.9995ZM79 23.6665C79.1841 23.6665 79.3334 23.8157 79.3334 23.9998C79.3334 24.1839 79.1841 24.3332 79 24.3332C78.8159 24.3332 78.6667 24.1839 78.6667 23.9998C78.6667 23.8157 78.8159 23.6665 79 23.6665ZM83 23.6665C83.1841 23.6665 83.3334 23.8157 83.3334 23.9998C83.3334 24.1839 83.1841 24.3332 83 24.3332C82.8159 24.3332 82.6667 24.1839 82.6667 23.9998C82.6667 23.8157 82.8159 23.6665 83 23.6665ZM77.6666 23.6665C77.8507 23.6665 78 23.8157 78 23.9998C78 24.1839 77.8507 24.3332 77.6666 24.3332C77.4825 24.3332 77.3333 24.1839 77.3333 23.9998C77.3333 23.8157 77.4825 23.6665 77.6666 23.6665ZM84.3333 23.6665C84.5174 23.6665 84.6667 23.8157 84.6667 23.9998C84.6667 24.1839 84.5174 24.3332 84.3333 24.3332C84.1492 24.3332 84 24.1839 84 23.9998C84 23.8157 84.1492 23.6665 84.3333 23.6665ZM85.6667 23.6665C85.8508 23.6665 86.0001 23.8157 86.0001 23.9998C86.0001 24.1839 85.8508 24.3332 85.6667 24.3332C85.4826 24.3332 85.3334 24.1839 85.3334 23.9998C85.3334 23.8157 85.4826 23.6665 85.6667 23.6665ZM76.3333 23.6665C76.5174 23.6665 76.6667 23.8157 76.6667 23.9998C76.6667 24.1839 76.5174 24.3332 76.3333 24.3332C76.1492 24.3332 76 24.1839 76 23.9998C76 23.8157 76.1492 23.6665 76.3333 23.6665ZM87 23.6665C87.1841 23.6665 87.3334 23.8157 87.3334 23.9998C87.3334 24.1839 87.1841 24.3332 87 24.3332C86.8159 24.3332 86.6667 24.1839 86.6667 23.9998C86.6667 23.8157 86.8159 23.6665 87 23.6665ZM88.3334 23.6665C88.5175 23.6665 88.6668 23.8157 88.6668 23.9998C88.6668 24.1839 88.5175 24.3332 88.3334 24.3332C88.1493 24.3332 88.0001 24.1839 88.0001 23.9998C88.0001 23.8157 88.1493 23.6665 88.3334 23.6665ZM80.3333 23.6665C80.5174 23.6665 80.6667 23.8157 80.6667 23.9998C80.6667 24.1839 80.5174 24.3332 80.3333 24.3332C80.1492 24.3332 80 24.1839 80 23.9998C80 23.8157 80.1492 23.6665 80.3333 23.6665ZM89.6667 23.6665C89.8508 23.6665 90.0001 23.8157 90.0001 23.9998C90.0001 24.1839 89.8508 24.3332 89.6667 24.3332C89.4826 24.3332 89.3334 24.1839 89.3334 23.9998C89.3334 23.8157 89.4826 23.6665 89.6667 23.6665ZM81.6667 23.6665C81.8508 23.6665 82.0001 23.8157 82.0001 23.9998C82.0001 24.1839 81.8508 24.3332 81.6667 24.3332C81.4826 24.3332 81.3334 24.1839 81.3334 23.9998C81.3334 23.8157 81.4826 23.6665 81.6667 23.6665ZM91.0001 23.6665V24.3332C90.816 24.3332 90.6668 24.1839 90.6668 23.9998C90.6668 23.8157 90.816 23.6665 91.0001 23.6665ZM77.6666 22.3335C77.8507 22.3335 78 22.4827 78 22.6668C78 22.8509 77.8507 23.0002 77.6666 23.0002C77.4825 23.0002 77.3333 22.8509 77.3333 22.6668C77.3333 22.4827 77.4825 22.3335 77.6666 22.3335ZM81.6667 22.3335C81.8508 22.3335 82.0001 22.4827 82.0001 22.6668C82.0001 22.8509 81.8508 23.0002 81.6667 23.0002C81.4826 23.0002 81.3334 22.8509 81.3334 22.6668C81.3334 22.4827 81.4826 22.3335 81.6667 22.3335ZM87 22.3335C87.1841 22.3335 87.3334 22.4827 87.3334 22.6668C87.3334 22.8509 87.1841 23.0002 87 23.0002C86.8159 23.0002 86.6667 22.8509 86.6667 22.6668C86.6667 22.4827 86.8159 22.3335 87 22.3335ZM84.3333 22.3335C84.5174 22.3335 84.6667 22.4827 84.6667 22.6668C84.6667 22.8509 84.5174 23.0002 84.3333 23.0002C84.1492 23.0002 84 22.8509 84 22.6668C84 22.4827 84.1492 22.3335 84.3333 22.3335ZM79 22.3335C79.1841 22.3335 79.3334 22.4827 79.3334 22.6668C79.3334 22.8509 79.1841 23.0002 79 23.0002C78.8159 23.0002 78.6667 22.8509 78.6667 22.6668C78.6667 22.4827 78.8159 22.3335 79 22.3335ZM91.0001 22.3335V23.0002C90.816 23.0002 90.6668 22.8509 90.6668 22.6668C90.6668 22.4827 90.816 22.3335 91.0001 22.3335ZM83 22.3335C83.1841 22.3335 83.3334 22.4827 83.3334 22.6668C83.3334 22.8509 83.1841 23.0002 83 23.0002C82.8159 23.0002 82.6667 22.8509 82.6667 22.6668C82.6667 22.4827 82.8159 22.3335 83 22.3335ZM76.3333 22.3335C76.5174 22.3335 76.6667 22.4827 76.6667 22.6668C76.6667 22.8509 76.5174 23.0002 76.3333 23.0002C76.2101 23.0002 76.1024 22.9333 76.0447 22.8338C76.0545 22.7059 76.0659 22.5792 76.0788 22.453C76.1394 22.3797 76.231 22.3335 76.3333 22.3335ZM88.3334 22.3335C88.5175 22.3335 88.6668 22.4827 88.6668 22.6668C88.6668 22.8509 88.5175 23.0002 88.3334 23.0002C88.1493 23.0002 88.0001 22.8509 88.0001 22.6668C88.0001 22.4827 88.1493 22.3335 88.3334 22.3335ZM89.6667 22.3335C89.8508 22.3335 90.0001 22.4827 90.0001 22.6668C90.0001 22.8509 89.8508 23.0002 89.6667 23.0002C89.4826 23.0002 89.3334 22.8509 89.3334 22.6668C89.3334 22.4827 89.4826 22.3335 89.6667 22.3335ZM80.3333 22.3335C80.5174 22.3335 80.6667 22.4827 80.6667 22.6668C80.6667 22.8509 80.5174 23.0002 80.3333 23.0002C80.1492 23.0002 80 22.8509 80 22.6668C80 22.4827 80.1492 22.3335 80.3333 22.3335ZM85.6667 22.3335C85.8508 22.3335 86.0001 22.4827 86.0001 22.6668C86.0001 22.8509 85.8508 23.0002 85.6667 23.0002C85.4826 23.0002 85.3334 22.8509 85.3334 22.6668C85.3334 22.4827 85.4826 22.3335 85.6667 22.3335ZM87 20.9995C87.1841 20.9995 87.3334 21.1488 87.3334 21.3328C87.3334 21.5169 87.1841 21.6662 87 21.6662C86.8159 21.6662 86.6667 21.5169 86.6667 21.3328C86.6667 21.1488 86.8159 20.9995 87 20.9995ZM88.3334 20.9995C88.5175 20.9995 88.6668 21.1488 88.6668 21.3328C88.6668 21.5169 88.5175 21.6662 88.3334 21.6662C88.1493 21.6662 88.0001 21.5169 88.0001 21.3328C88.0001 21.1488 88.1493 20.9995 88.3334 20.9995ZM80.3333 20.9995C80.5174 20.9995 80.6667 21.1488 80.6667 21.3328C80.6667 21.5169 80.5174 21.6662 80.3333 21.6662C80.1492 21.6662 80 21.5169 80 21.3328C80 21.1488 80.1492 20.9995 80.3333 20.9995ZM91.0001 20.9995V21.6662C90.816 21.6662 90.6668 21.5169 90.6668 21.3328C90.6668 21.1488 90.816 20.9995 91.0001 20.9995ZM77.6666 20.9995C77.8507 20.9995 78 21.1488 78 21.3328C78 21.5169 77.8507 21.6662 77.6666 21.6662C77.4825 21.6662 77.3333 21.5169 77.3333 21.3328C77.3333 21.1488 77.4825 20.9995 77.6666 20.9995ZM83 20.9995C83.1841 20.9995 83.3334 21.1488 83.3334 21.3328C83.3334 21.5169 83.1841 21.6662 83 21.6662C82.8159 21.6662 82.6667 21.5169 82.6667 21.3328C82.6667 21.1488 82.8159 20.9995 83 20.9995ZM81.6667 20.9995C81.8508 20.9995 82.0001 21.1488 82.0001 21.3328C82.0001 21.5169 81.8508 21.6662 81.6667 21.6662C81.4826 21.6662 81.3334 21.5169 81.3334 21.3328C81.3334 21.1488 81.4826 20.9995 81.6667 20.9995ZM76.3333 20.9995C76.5174 20.9995 76.6667 21.1488 76.6667 21.3328C76.6667 21.5169 76.5174 21.6662 76.3333 21.6662C76.2804 21.6662 76.2304 21.6539 76.186 21.6319C76.2196 21.4195 76.2575 21.2098 76.2997 21.0017L76.3333 20.9995ZM84.3333 20.9995C84.5174 20.9995 84.6667 21.1488 84.6667 21.3328C84.6667 21.5169 84.5174 21.6662 84.3333 21.6662C84.1492 21.6662 84 21.5169 84 21.3328C84 21.1488 84.1492 20.9995 84.3333 20.9995ZM85.6667 20.9995C85.8508 20.9995 86.0001 21.1488 86.0001 21.3328C86.0001 21.5169 85.8508 21.6662 85.6667 21.6662C85.4826 21.6662 85.3334 21.5169 85.3334 21.3328C85.3334 21.1488 85.4826 20.9995 85.6667 20.9995ZM89.6667 20.9995C89.8508 20.9995 90.0001 21.1488 90.0001 21.3328C90.0001 21.5169 89.8508 21.6662 89.6667 21.6662C89.4826 21.6662 89.3334 21.5169 89.3334 21.3328C89.3334 21.1488 89.4826 20.9995 89.6667 20.9995ZM79 20.9995C79.1841 20.9995 79.3334 21.1488 79.3334 21.3328C79.3334 21.5169 79.1841 21.6662 79 21.6662C78.8159 21.6662 78.6667 21.5169 78.6667 21.3328C78.6667 21.1488 78.8159 20.9995 79 20.9995ZM79 19.6665C79.1841 19.6665 79.3334 19.8157 79.3334 19.9998C79.3334 20.1839 79.1841 20.3332 79 20.3332C78.8159 20.3332 78.6667 20.1839 78.6667 19.9998C78.6667 19.8157 78.8159 19.6665 79 19.6665ZM88.3334 19.6665C88.5175 19.6665 88.6668 19.8157 88.6668 19.9998C88.6668 20.1839 88.5175 20.3332 88.3334 20.3332C88.1493 20.3332 88.0001 20.1839 88.0001 19.9998C88.0001 19.8157 88.1493 19.6665 88.3334 19.6665ZM81.6667 19.6665C81.8508 19.6665 82.0001 19.8157 82.0001 19.9998C82.0001 20.1839 81.8508 20.3332 81.6667 20.3332C81.4826 20.3332 81.3334 20.1839 81.3334 19.9998C81.3334 19.8157 81.4826 19.6665 81.6667 19.6665ZM83 19.6665C83.1841 19.6665 83.3334 19.8157 83.3334 19.9998C83.3334 20.1839 83.1841 20.3332 83 20.3332C82.8159 20.3332 82.6667 20.1839 82.6667 19.9998C82.6667 19.8157 82.8159 19.6665 83 19.6665ZM91.0001 19.6665V20.3332C90.816 20.3332 90.6668 20.1839 90.6668 19.9998C90.6668 19.8157 90.816 19.6665 91.0001 19.6665ZM80.3333 19.6665C80.5174 19.6665 80.6667 19.8157 80.6667 19.9998C80.6667 20.1839 80.5174 20.3332 80.3333 20.3332C80.1492 20.3332 80 20.1839 80 19.9998C80 19.8157 80.1492 19.6665 80.3333 19.6665ZM85.6667 19.6665C85.8508 19.6665 86.0001 19.8157 86.0001 19.9998C86.0001 20.1839 85.8508 20.3332 85.6667 20.3332C85.4826 20.3332 85.3334 20.1839 85.3334 19.9998C85.3334 19.8157 85.4826 19.6665 85.6667 19.6665ZM87 19.6665C87.1841 19.6665 87.3334 19.8157 87.3334 19.9998C87.3334 20.1839 87.1841 20.3332 87 20.3332C86.8159 20.3332 86.6667 20.1839 86.6667 19.9998C86.6667 19.8157 86.8159 19.6665 87 19.6665ZM77.6666 19.6665C77.8507 19.6665 78 19.8157 78 19.9998C78 20.1839 77.8507 20.3332 77.6666 20.3332C77.4825 20.3332 77.3333 20.1839 77.3333 19.9998C77.3333 19.8157 77.4825 19.6665 77.6666 19.6665ZM84.3333 19.6665C84.5174 19.6665 84.6667 19.8157 84.6667 19.9998C84.6667 20.1839 84.5174 20.3332 84.3333 20.3332C84.1492 20.3332 84 20.1839 84 19.9998C84 19.8157 84.1492 19.6665 84.3333 19.6665ZM89.6667 19.6665C89.8508 19.6665 90.0001 19.8157 90.0001 19.9998C90.0001 20.1839 89.8508 20.3332 89.6667 20.3332C89.4826 20.3332 89.3334 20.1839 89.3334 19.9998C89.3334 19.8157 89.4826 19.6665 89.6667 19.6665ZM76.6667 19.9998C76.6667 20.1401 76.58 20.2601 76.4574 20.3093C76.5009 20.1376 76.5472 19.9671 76.5965 19.7979C76.6412 19.8536 76.6667 19.9238 76.6667 19.9998ZM77.6666 18.3335C77.8507 18.3335 78 18.4827 78 18.6668C78 18.8509 77.8507 19.0002 77.6666 19.0002C77.4825 19.0002 77.3333 18.8509 77.3333 18.6668C77.3333 18.4827 77.4825 18.3335 77.6666 18.3335ZM81.6667 18.3335C81.8508 18.3335 82.0001 18.4827 82.0001 18.6668C82.0001 18.8509 81.8508 19.0002 81.6667 19.0002C81.4826 19.0002 81.3334 18.8509 81.3334 18.6668C81.3334 18.4827 81.4826 18.3335 81.6667 18.3335ZM88.3334 18.3335C88.5175 18.3335 88.6668 18.4827 88.6668 18.6668C88.6668 18.8509 88.5175 19.0002 88.3334 19.0002C88.1493 19.0002 88.0001 18.8509 88.0001 18.6668C88.0001 18.4827 88.1493 18.3335 88.3334 18.3335ZM79 18.3335C79.1841 18.3335 79.3334 18.4827 79.3334 18.6668C79.3334 18.8509 79.1841 19.0002 79 19.0002C78.8159 19.0002 78.6667 18.8509 78.6667 18.6668C78.6667 18.4827 78.8159 18.3335 79 18.3335ZM91.0001 18.3335V19.0002C90.816 19.0002 90.6668 18.8509 90.6668 18.6668C90.6668 18.4827 90.816 18.3335 91.0001 18.3335ZM80.3333 18.3335C80.5174 18.3335 80.6667 18.4827 80.6667 18.6668C80.6667 18.8509 80.5174 19.0002 80.3333 19.0002C80.1492 19.0002 80 18.8509 80 18.6668C80 18.4827 80.1492 18.3335 80.3333 18.3335ZM84.3333 18.3335C84.5174 18.3335 84.6667 18.4827 84.6667 18.6668C84.6667 18.8509 84.5174 19.0002 84.3333 19.0002C84.1492 19.0002 84 18.8509 84 18.6668C84 18.4827 84.1492 18.3335 84.3333 18.3335ZM83 18.3335C83.1841 18.3335 83.3334 18.4827 83.3334 18.6668C83.3334 18.8509 83.1841 19.0002 83 19.0002C82.8159 19.0002 82.6667 18.8509 82.6667 18.6668C82.6667 18.4827 82.8159 18.3335 83 18.3335ZM87 18.3335C87.1841 18.3335 87.3334 18.4827 87.3334 18.6668C87.3334 18.8509 87.1841 19.0002 87 19.0002C86.8159 19.0002 86.6667 18.8509 86.6667 18.6668C86.6667 18.4827 86.8159 18.3335 87 18.3335ZM89.6667 18.3335C89.8508 18.3335 90.0001 18.4827 90.0001 18.6668C90.0001 18.8509 89.8508 19.0002 89.6667 19.0002C89.4826 19.0002 89.3334 18.8509 89.3334 18.6668C89.3334 18.4827 89.4826 18.3335 89.6667 18.3335ZM85.6667 18.3335C85.8508 18.3335 86.0001 18.4827 86.0001 18.6668C86.0001 18.8509 85.8508 19.0002 85.6667 19.0002C85.4826 19.0002 85.3334 18.8509 85.3334 18.6668C85.3334 18.4827 85.4826 18.3335 85.6667 18.3335ZM79 16.9995C79.1841 16.9995 79.3334 17.1488 79.3334 17.3328C79.3334 17.5169 79.1841 17.6662 79 17.6662C78.8159 17.6662 78.6667 17.5169 78.6667 17.3328C78.6667 17.1488 78.8159 16.9995 79 16.9995ZM77.7273 17.0051L77.6666 16.9995C77.8507 16.9995 78 17.1488 78 17.3328C78 17.5169 77.8507 17.6662 77.6666 17.6662C77.5796 17.6662 77.5004 17.6329 77.4411 17.5783C77.5324 17.3839 77.6279 17.1933 77.7273 17.0051ZM85.6667 16.9995C85.8508 16.9995 86.0001 17.1488 86.0001 17.3328C86.0001 17.5169 85.8508 17.6662 85.6667 17.6662C85.4826 17.6662 85.3334 17.5169 85.3334 17.3328C85.3334 17.1488 85.4826 16.9995 85.6667 16.9995ZM88.3334 16.9995C88.5175 16.9995 88.6668 17.1488 88.6668 17.3328C88.6668 17.5169 88.5175 17.6662 88.3334 17.6662C88.1493 17.6662 88.0001 17.5169 88.0001 17.3328C88.0001 17.1488 88.1493 16.9995 88.3334 16.9995ZM83 16.9995C83.1841 16.9995 83.3334 17.1488 83.3334 17.3328C83.3334 17.5169 83.1841 17.6662 83 17.6662C82.8159 17.6662 82.6667 17.5169 82.6667 17.3328C82.6667 17.1488 82.8159 16.9995 83 16.9995ZM89.6667 16.9995C89.8508 16.9995 90.0001 17.1488 90.0001 17.3328C90.0001 17.5169 89.8508 17.6662 89.6667 17.6662C89.4826 17.6662 89.3334 17.5169 89.3334 17.3328C89.3334 17.1488 89.4826 16.9995 89.6667 16.9995ZM81.6667 16.9995C81.8508 16.9995 82.0001 17.1488 82.0001 17.3328C82.0001 17.5169 81.8508 17.6662 81.6667 17.6662C81.4826 17.6662 81.3334 17.5169 81.3334 17.3328C81.3334 17.1488 81.4826 16.9995 81.6667 16.9995ZM91.0001 16.9995V17.6662C90.816 17.6662 90.6668 17.5169 90.6668 17.3328C90.6668 17.1488 90.816 16.9995 91.0001 16.9995ZM87 16.9995C87.1841 16.9995 87.3334 17.1488 87.3334 17.3328C87.3334 17.5169 87.1841 17.6662 87 17.6662C86.8159 17.6662 86.6667 17.5169 86.6667 17.3328C86.6667 17.1488 86.8159 16.9995 87 16.9995ZM84.3333 16.9995C84.5174 16.9995 84.6667 17.1488 84.6667 17.3328C84.6667 17.5169 84.5174 17.6662 84.3333 17.6662C84.1492 17.6662 84 17.5169 84 17.3328C84 17.1488 84.1492 16.9995 84.3333 16.9995ZM80.3333 16.9995C80.5174 16.9995 80.6667 17.1488 80.6667 17.3328C80.6667 17.5169 80.5174 17.6662 80.3333 17.6662C80.1492 17.6662 80 17.5169 80 17.3328C80 17.1488 80.1492 16.9995 80.3333 16.9995ZM88.3334 15.6665C88.5175 15.6665 88.6668 15.8157 88.6668 15.9998C88.6668 16.1839 88.5175 16.3332 88.3334 16.3332C88.1493 16.3332 88.0001 16.1839 88.0001 15.9998C88.0001 15.8157 88.1493 15.6665 88.3334 15.6665ZM81.6667 15.6665C81.8508 15.6665 82.0001 15.8157 82.0001 15.9998C82.0001 16.1839 81.8508 16.3332 81.6667 16.3332C81.4826 16.3332 81.3334 16.1839 81.3334 15.9998C81.3334 15.8157 81.4826 15.6665 81.6667 15.6665ZM85.6667 15.6665C85.8508 15.6665 86.0001 15.8157 86.0001 15.9998C86.0001 16.1839 85.8508 16.3332 85.6667 16.3332C85.4826 16.3332 85.3334 16.1839 85.3334 15.9998C85.3334 15.8157 85.4826 15.6665 85.6667 15.6665ZM83 15.6665C83.1841 15.6665 83.3334 15.8157 83.3334 15.9998C83.3334 16.1839 83.1841 16.3332 83 16.3332C82.8159 16.3332 82.6667 16.1839 82.6667 15.9998C82.6667 15.8157 82.8159 15.6665 83 15.6665ZM84.3333 15.6665C84.5174 15.6665 84.6667 15.8157 84.6667 15.9998C84.6667 16.1839 84.5174 16.3332 84.3333 16.3332C84.1492 16.3332 84 16.1839 84 15.9998C84 15.8157 84.1492 15.6665 84.3333 15.6665ZM91.0001 15.6665V16.3332C90.816 16.3332 90.6668 16.1839 90.6668 15.9998C90.6668 15.8157 90.816 15.6665 91.0001 15.6665ZM79 15.6665C79.1841 15.6665 79.3334 15.8157 79.3334 15.9998C79.3334 16.1839 79.1841 16.3332 79 16.3332C78.8159 16.3332 78.6667 16.1839 78.6667 15.9998C78.6667 15.8157 78.8159 15.6665 79 15.6665ZM80.3333 15.6665C80.5174 15.6665 80.6667 15.8157 80.6667 15.9998C80.6667 16.1839 80.5174 16.3332 80.3333 16.3332C80.1492 16.3332 80 16.1839 80 15.9998C80 15.8157 80.1492 15.6665 80.3333 15.6665ZM89.6667 15.6665C89.8508 15.6665 90.0001 15.8157 90.0001 15.9998C90.0001 16.1839 89.8508 16.3332 89.6667 16.3332C89.4826 16.3332 89.3334 16.1839 89.3334 15.9998C89.3334 15.8157 89.4826 15.6665 89.6667 15.6665ZM87 15.6665C87.1841 15.6665 87.3334 15.8157 87.3334 15.9998C87.3334 16.1839 87.1841 16.3332 87 16.3332C86.8159 16.3332 86.6667 16.1839 86.6667 15.9998C86.6667 15.8157 86.8159 15.6665 87 15.6665ZM87 14.3335C87.1841 14.3335 87.3334 14.4827 87.3334 14.6668C87.3334 14.8509 87.1841 15.0002 87 15.0002C86.8159 15.0002 86.6667 14.8509 86.6667 14.6668C86.6667 14.4827 86.8159 14.3335 87 14.3335ZM81.6667 14.3335C81.8508 14.3335 82.0001 14.4827 82.0001 14.6668C82.0001 14.8509 81.8508 15.0002 81.6667 15.0002C81.4826 15.0002 81.3334 14.8509 81.3334 14.6668C81.3334 14.4827 81.4826 14.3335 81.6667 14.3335ZM91.0001 14.3335V15.0002C90.816 15.0002 90.6668 14.8509 90.6668 14.6668C90.6668 14.4827 90.816 14.3335 91.0001 14.3335ZM79.3334 14.6668C79.3334 14.8509 79.1841 15.0002 79 15.0002C79.1044 14.8594 79.2122 14.721 79.3223 14.5846C79.3298 14.6107 79.3334 14.6384 79.3334 14.6668ZM89.6667 14.3335C89.8508 14.3335 90.0001 14.4827 90.0001 14.6668C90.0001 14.8509 89.8508 15.0002 89.6667 15.0002C89.4826 15.0002 89.3334 14.8509 89.3334 14.6668C89.3334 14.4827 89.4826 14.3335 89.6667 14.3335ZM80.3333 14.3335C80.5174 14.3335 80.6667 14.4827 80.6667 14.6668C80.6667 14.8509 80.5174 15.0002 80.3333 15.0002C80.1492 15.0002 80 14.8509 80 14.6668C80 14.4827 80.1492 14.3335 80.3333 14.3335ZM88.3334 14.3335C88.5175 14.3335 88.6668 14.4827 88.6668 14.6668C88.6668 14.8509 88.5175 15.0002 88.3334 15.0002C88.1493 15.0002 88.0001 14.8509 88.0001 14.6668C88.0001 14.4827 88.1493 14.3335 88.3334 14.3335ZM83 14.3335C83.1841 14.3335 83.3334 14.4827 83.3334 14.6668C83.3334 14.8509 83.1841 15.0002 83 15.0002C82.8159 15.0002 82.6667 14.8509 82.6667 14.6668C82.6667 14.4827 82.8159 14.3335 83 14.3335ZM84.3333 14.3335C84.5174 14.3335 84.6667 14.4827 84.6667 14.6668C84.6667 14.8509 84.5174 15.0002 84.3333 15.0002C84.1492 15.0002 84 14.8509 84 14.6668C84 14.4827 84.1492 14.3335 84.3333 14.3335ZM85.6667 14.3335C85.8508 14.3335 86.0001 14.4827 86.0001 14.6668C86.0001 14.8509 85.8508 15.0002 85.6667 15.0002C85.4826 15.0002 85.3334 14.8509 85.3334 14.6668C85.3334 14.4827 85.4826 14.3335 85.6667 14.3335ZM81.6667 12.9995C81.8508 12.9995 82.0001 13.1488 82.0001 13.3328C82.0001 13.5169 81.8508 13.6662 81.6667 13.6662C81.4826 13.6662 81.3334 13.5169 81.3334 13.3328C81.3334 13.1488 81.4826 12.9995 81.6667 12.9995ZM80.6667 13.3328C80.6667 13.5169 80.5174 13.6662 80.3333 13.6662C80.274 13.6662 80.2183 13.6507 80.17 13.6235C80.3174 13.4677 80.4679 13.3172 80.6216 13.1698C80.6512 13.2178 80.6667 13.2735 80.6667 13.3328ZM83 12.9995C83.1841 12.9995 83.3334 13.1488 83.3334 13.3328C83.3334 13.5169 83.1841 13.6662 83 13.6662C82.8159 13.6662 82.6667 13.5169 82.6667 13.3328C82.6667 13.1488 82.8159 12.9995 83 12.9995ZM84.3333 12.9995C84.5174 12.9995 84.6667 13.1488 84.6667 13.3328C84.6667 13.5169 84.5174 13.6662 84.3333 13.6662C84.1492 13.6662 84 13.5169 84 13.3328C84 13.1488 84.1492 12.9995 84.3333 12.9995ZM89.6667 12.9995C89.8508 12.9995 90.0001 13.1488 90.0001 13.3328C90.0001 13.5169 89.8508 13.6662 89.6667 13.6662C89.4826 13.6662 89.3334 13.5169 89.3334 13.3328C89.3334 13.1488 89.4826 12.9995 89.6667 12.9995ZM85.6667 12.9995C85.8508 12.9995 86.0001 13.1488 86.0001 13.3328C86.0001 13.5169 85.8508 13.6662 85.6667 13.6662C85.4826 13.6662 85.3334 13.5169 85.3334 13.3328C85.3334 13.1488 85.4826 12.9995 85.6667 12.9995ZM87 12.9995C87.1841 12.9995 87.3334 13.1488 87.3334 13.3328C87.3334 13.5169 87.1841 13.6662 87 13.6662C86.8159 13.6662 86.6667 13.5169 86.6667 13.3328C86.6667 13.1488 86.8159 12.9995 87 12.9995ZM91.0001 12.9995V13.6662C90.816 13.6662 90.6668 13.5169 90.6668 13.3328C90.6668 13.1488 90.816 12.9995 91.0001 12.9995ZM88.3334 12.9995C88.5175 12.9995 88.6668 13.1488 88.6668 13.3328C88.6668 13.5169 88.5175 13.6662 88.3334 13.6662C88.1493 13.6662 88.0001 13.5169 88.0001 13.3328C88.0001 13.1488 88.1493 12.9995 88.3334 12.9995ZM91.0001 11.6665V12.3332C90.816 12.3332 90.6668 12.1839 90.6668 11.9998C90.6668 11.8158 90.816 11.6665 91.0001 11.6665ZM88.3334 11.6665C88.5175 11.6665 88.6668 11.8158 88.6668 11.9998C88.6668 12.1839 88.5175 12.3332 88.3334 12.3332C88.1493 12.3332 88.0001 12.1839 88.0001 11.9998C88.0001 11.8158 88.1493 11.6665 88.3334 11.6665ZM84.3333 11.6665C84.5174 11.6665 84.6667 11.8158 84.6667 11.9998C84.6667 12.1839 84.5174 12.3332 84.3333 12.3332C84.1492 12.3332 84 12.1839 84 11.9998C84 11.8158 84.1492 11.6665 84.3333 11.6665ZM89.6667 11.6665C89.8508 11.6665 90.0001 11.8158 90.0001 11.9998C90.0001 12.1839 89.8508 12.3332 89.6667 12.3332C89.4826 12.3332 89.3334 12.1839 89.3334 11.9998C89.3334 11.8158 89.4826 11.6665 89.6667 11.6665ZM85.6667 11.6665C85.8508 11.6665 86.0001 11.8158 86.0001 11.9998C86.0001 12.1839 85.8508 12.3332 85.6667 12.3332C85.4826 12.3332 85.3334 12.1839 85.3334 11.9998C85.3334 11.8158 85.4826 11.6665 85.6667 11.6665ZM87 11.6665C87.1841 11.6665 87.3334 11.8158 87.3334 11.9998C87.3334 12.1839 87.1841 12.3332 87 12.3332C86.8159 12.3332 86.6667 12.1839 86.6667 11.9998C86.6667 11.8158 86.8159 11.6665 87 11.6665ZM83 11.6665C83.1841 11.6665 83.3334 11.8158 83.3334 11.9998C83.3334 12.1839 83.1841 12.3332 83 12.3332C82.8159 12.3332 82.6667 12.1839 82.6667 11.9998C82.6667 11.8158 82.8159 11.6665 83 11.6665ZM82.0001 11.9998C82.0001 12.1839 81.8508 12.3332 81.6667 12.3332C81.6382 12.3332 81.6106 12.3296 81.5842 12.3229C81.7213 12.212 81.8597 12.1041 82.0001 11.9987C82.0001 11.9992 82.0001 11.9995 82.0001 11.9998ZM89.6667 10.3335C89.8508 10.3335 90.0001 10.4827 90.0001 10.6668C90.0001 10.8509 89.8508 11.0002 89.6667 11.0002C89.4826 11.0002 89.3334 10.8509 89.3334 10.6668C89.3334 10.4827 89.4826 10.3335 89.6667 10.3335ZM84.6667 10.6668C84.6667 10.8509 84.5174 11.0002 84.3333 11.0002C84.1698 11.0002 84.0338 10.8825 84.0055 10.7272C84.1936 10.6277 84.3842 10.5322 84.577 10.4407C84.6331 10.5 84.6667 10.5795 84.6667 10.6668ZM85.6667 10.3335C85.8508 10.3335 86.0001 10.4827 86.0001 10.6668C86.0001 10.8509 85.8508 11.0002 85.6667 11.0002C85.4826 11.0002 85.3334 10.8509 85.3334 10.6668C85.3334 10.4827 85.4826 10.3335 85.6667 10.3335ZM87 10.3335C87.1841 10.3335 87.3334 10.4827 87.3334 10.6668C87.3334 10.8509 87.1841 11.0002 87 11.0002C86.8159 11.0002 86.6667 10.8509 86.6667 10.6668C86.6667 10.4827 86.8159 10.3335 87 10.3335ZM88.3334 10.3335C88.5175 10.3335 88.6668 10.4827 88.6668 10.6668C88.6668 10.8509 88.5175 11.0002 88.3334 11.0002C88.1493 11.0002 88.0001 10.8509 88.0001 10.6668C88.0001 10.4827 88.1493 10.3335 88.3334 10.3335ZM91.0001 10.3335V11.0002C90.816 11.0002 90.6668 10.8509 90.6668 10.6668C90.6668 10.4827 90.816 10.3335 91.0001 10.3335ZM87 9.66618C86.924 9.66618 86.8538 9.64069 86.7977 9.59779C86.9673 9.54706 87.1378 9.50068 87.3094 9.45726C87.2597 9.58 87.1399 9.66618 87 9.66618ZM88.6668 9.33284C88.6668 9.51694 88.5175 9.66618 88.3334 9.66618C88.1493 9.66618 88.0001 9.51694 88.0001 9.33284L88.0036 9.29917C88.2114 9.25704 88.4207 9.21922 88.6315 9.18578C88.6544 9.22995 88.6668 9.27996 88.6668 9.33284ZM90.0001 9.33284C90.0001 9.51694 89.8508 9.66618 89.6667 9.66618C89.4826 9.66618 89.3334 9.51694 89.3334 9.33284C89.3334 9.23047 89.3796 9.13887 89.4522 9.07772C89.5794 9.0657 89.7061 9.05434 89.8332 9.04456C89.9333 9.10217 90.0001 9.20971 90.0001 9.33284ZM90.9999 8.99951L91 8.99984L91.0009 9.66618C91.0006 9.66618 91.0003 9.66618 90.9999 9.66618C90.8158 9.66618 90.6666 9.51694 90.6666 9.33284C90.6666 9.14875 90.8158 8.99951 90.9999 8.99951Z" fill="#A6A6A6"/>
<path fill-rule="evenodd" clip-rule="evenodd" d="M90.1755 40C87.2212 40.4023 84.9443 42.9351 84.9443 46C84.9443 49.0645 87.2212 51.5977 90.1755 52H91V51.0557C88.2078 51.0557 85.9443 48.792 85.9443 46C85.9443 43.208 88.2078 40.9443 91 40.9443V40H90.1755Z" fill="white"/>
<path fill-rule="evenodd" clip-rule="evenodd" d="M91 19C85.4772 19 81 23.4772 81 29C81 34.5228 85.4772 39 91 39L91 19Z" fill="white"/>
<defs>
<linearGradient id="paint0_linear" x1="78.8476" y1="18.0907" x2="63.2722" y2="81.3086" gradientUnits="userSpaceOnUse">
<stop stop-color="#FF3D00"/>
<stop offset="1" stop-color="#77178E"/>
</linearGradient>
</defs>
</svg>
