<svg width="92" height="110" fill="none" xmlns="http://www.w3.org/2000/svg"><path fill="#E6DEFF" d="M1 1h90v108H1z"/><path d="M84 7.87L91 1H77v14l7-7.13zm-14 .26L63 15h14V1l-7 7.13zm-14-.26L63 1H49v14l7-7.13zm-14 .26L35 15h14V1l-7 7.13zm-14-.26L35 1H21v14l7-7.13zm-14 .26L7 15h14V1l-7 7.13z" fill="#572BE0"/><path d="M8.13 102L15 95v14H1l7.13-7z" fill="#8A65FF"/><path fill-rule="evenodd" clip-rule="evenodd" d="M31 49a2 2 0 002 2h22l6 5v-5h2a2 2 0 002-2V28a2 2 0 00-2-2H33a2 2 0 00-2 2v21z" fill="#26296F"/><path d="M30 51V28h22a2 2 0 012 2v21H30z" fill="#E6DEFF"/><path fill-rule="evenodd" clip-rule="evenodd" d="M16 54a2 2 0 002 2h2.154v5l6.23-5H50a2 2 0 002-2V32a2 2 0 00-2-2H18a2 2 0 00-2 2v22z" fill="#26296F"/><path fill="url(#paint0_linear)" d="M20 35h19v6H20z"/><path fill="url(#paint1_linear)" d="M42 35h6v6h-6z"/><path fill="url(#paint2_linear)" d="M42 44h6v6h-6z"/><path fill="url(#paint3_linear)" d="M20 44h19v6H20z"/><path stroke="#fff" d="M1 1h90v108H1z"/><path fill="#fff" d="M82 62h1v47h-1z"/><path fill="#fff" d="M91 62v1h-9v-1z"/><defs><linearGradient id="paint0_linear" x1="49.618" y1="32.4" x2="47.73" y2="48.571" gradientUnits="userSpaceOnUse"><stop stop-color="#FF3D00"/><stop offset="1" stop-color="#77178E"/></linearGradient><linearGradient id="paint1_linear" x1="51.353" y1="32.4" x2="46.023" y2="46.822" gradientUnits="userSpaceOnUse"><stop stop-color="#FF3D00"/><stop offset="1" stop-color="#77178E"/></linearGradient><linearGradient id="paint2_linear" x1="51.353" y1="41.4" x2="46.023" y2="55.822" gradientUnits="userSpaceOnUse"><stop stop-color="#FF3D00"/><stop offset="1" stop-color="#77178E"/></linearGradient><linearGradient id="paint3_linear" x1="49.618" y1="41.4" x2="47.73" y2="57.571" gradientUnits="userSpaceOnUse"><stop stop-color="#FF3D00"/><stop offset="1" stop-color="#77178E"/></linearGradient></defs></svg>