<svg width="92" height="110" fill="none" xmlns="http://www.w3.org/2000/svg"><path fill="#E6DEFF" d="M1 1h90v108H1z"/><path fill-rule="evenodd" clip-rule="evenodd" d="M52 83c0-13.807-11.193-25-25-25S2 69.193 2 83c0 .158.001.315.004.472H2V108h24.528v-.004c.157.003.314.004.472.004 13.807 0 25-11.193 25-25z" fill="#7B5AE8"/><path fill="#5119FF" d="M71 1h20v28H71z"/><path d="M81.535 99.357h0l.007-.007 8.958-9.127V108.5H72.223l9.313-9.143zm-1.07-20h0l-.007-.007-8.958-9.127V88.5h18.277l-9.313-9.143zm1.07-20h0l.007-.007 8.958-9.127V68.5H72.223l9.313-9.143zm-1.07-20h0l-.007-.007-8.958-9.127V48.5h18.277l-9.313-9.143z" fill="#E6DEFF" stroke="#fff"/><path stroke="#fff" d="M1 1h90v108H1z"/><rect x="16" y="55" width="29" height="45" rx="2" transform="rotate(-90 16 55)" fill="#26296F"/><path d="M16 29v-1a2 2 0 012-2h41a2 2 0 012 2v1H16z" fill="#9093D7"/><path fill="#EBDDFF" d="M18 31h41v22H18z"/><circle cx="19.072" cy="27.5" r=".5" fill="#26296F"/><circle cx="21.643" cy="27.5" r=".5" fill="#26296F"/><circle cx="24.214" cy="27.5" r=".5" fill="#26296F"/><path fill-rule="evenodd" clip-rule="evenodd" d="M48.333 38.167L45 34h8.889l-3.333 4.167V44l-2.223-2.222v-3.611z" fill="#26296F"/><path d="M32.117 38.857v1.45c-.64.119-1.229.435-1.63.87-.387.421-.668 1.028-.668 1.858 0 .593.134 1.08.575 1.528.2.211.614.527 1.47.817l.788.264c.28.092.468.171.601.264a.617.617 0 01.267.5.784.784 0 01-.24.554c-.2.197-.508.303-.869.303-.387 0-.882-.145-1.216-.303-.294-.145-.64-.409-.922-.672l-.962 1.765c.455.356.91.593 1.297.752.494.197.988.303 1.51.316v1.423h1.336v-1.49c.587-.144 1.215-.46 1.603-.856.294-.303.748-.922.748-1.99 0-.592-.147-1.106-.668-1.607-.508-.488-1.069-.672-1.55-.83l-.695-.238a2.09 2.09 0 01-.614-.329.606.606 0 01-.187-.435c0-.197.093-.342.2-.435.187-.171.495-.237.802-.237.654 0 1.202.343 1.496.567l.882-1.687c-.895-.527-1.576-.646-2.017-.672v-1.45h-1.337z" fill="url(#paint0_linear)"/><path d="M28.398 32.363v.806a1.83 1.83 0 00-.978.483c-.233.234-.401.57-.401 1.032 0 .33.08.6.345.85.12.116.368.292.881.453l.473.147c.169.05.28.095.361.146.104.073.16.168.16.278a.421.421 0 01-.144.308c-.12.11-.304.168-.521.168-.233 0-.53-.08-.73-.168a2.524 2.524 0 01-.553-.374l-.577.981c.273.198.545.33.778.418.296.11.593.168.906.175v.791h.801v-.827c.353-.08.73-.257.962-.476.177-.169.45-.513.45-1.106 0-.33-.089-.615-.402-.893-.304-.27-.64-.373-.93-.461l-.416-.132a1.287 1.287 0 01-.37-.183.325.325 0 01-.111-.241c0-.11.056-.19.12-.242.112-.095.297-.132.48-.132.394 0 .722.19.899.315l.529-.937c-.537-.293-.946-.359-1.21-.373v-.806h-.802z" fill="url(#paint1_linear)"/><path d="M38.787 36.258v.967c-.384.079-.737.29-.978.58-.232.28-.4.685-.4 1.238 0 .395.08.72.344 1.02.12.14.369.35.882.544l.473.176c.168.061.28.114.36.175a.424.424 0 01.161.334c0 .14-.056.273-.144.37-.12.13-.305.201-.521.201-.233 0-.53-.096-.73-.202a2.55 2.55 0 01-.553-.448l-.577 1.177c.272.237.545.396.777.501.297.132.594.202.906.21v.95h.802v-.993c.353-.097.73-.307.962-.571.176-.202.449-.615.449-1.327 0-.395-.088-.738-.4-1.071-.306-.325-.642-.448-.93-.554l-.418-.158a1.218 1.218 0 01-.369-.22.427.427 0 01-.112-.29c0-.131.056-.228.12-.29.113-.114.297-.158.482-.158.392 0 .721.229.897.378l.53-1.124c-.538-.352-.947-.43-1.211-.448v-.967h-.802z" fill="url(#paint2_linear)"/><circle cx="43" cy="22" r="2" fill="url(#paint3_linear)"/><circle cx="50" cy="27" r="3" fill="url(#paint4_linear)"/><circle cx="53" cy="21" r="1" fill="url(#paint5_linear)"/><path fill-rule="evenodd" clip-rule="evenodd" d="M8.014 102.303a8 8 0 0011.29-.737L7.275 91.013a8 8 0 00.738 11.29z" fill="#562BE0"/><path d="M18.99 95.97l5.59-.418-5.277 6.014-6.013-5.277 5.7-.32zm-6.118-5.27l.418 5.59-6.014-5.277L12.552 85l.32 5.7z" fill="#562BE0"/><mask id="a" maskUnits="userSpaceOnUse" x="4" y="87" width="19" height="19"><rect x="13.877" y="105.279" width="12.741" height="12.741" rx="6.37" transform="rotate(-138.737 13.877 105.279)" fill="#fff"/></mask><g mask="url(#a)" fill="#A6A6A6"><circle cx="13.864" cy="105.08" r=".142" transform="rotate(-138.737 13.864 105.08)"/><circle cx="13.438" cy="104.705" r=".142" transform="rotate(-138.737 13.438 104.705)"/><circle cx="13.013" cy="104.332" r=".142" transform="rotate(-138.737 13.013 104.332)"/><circle cx="12.587" cy="103.959" r=".142" transform="rotate(-138.737 12.587 103.959)"/><circle cx="12.161" cy="103.585" r=".142" transform="rotate(-138.737 12.161 103.585)"/><circle cx="11.736" cy="103.212" r=".142" transform="rotate(-138.737 11.736 103.212)"/><circle cx="11.31" cy="102.838" r=".142" transform="rotate(-138.737 11.31 102.838)"/><circle cx="10.884" cy="102.465" r=".142" transform="rotate(-138.737 10.884 102.465)"/><circle cx="10.459" cy="102.091" r=".142" transform="rotate(-138.737 10.459 102.091)"/><circle cx="10.033" cy="101.718" r=".142" transform="rotate(-138.737 10.033 101.718)"/><circle cx="9.607" cy="101.345" r=".142" transform="rotate(-138.737 9.607 101.345)"/><circle cx="14.237" cy="104.653" r=".142" transform="rotate(-138.737 14.237 104.653)"/><circle cx="13.812" cy="104.28" r=".142" transform="rotate(-138.737 13.812 104.28)"/><circle cx="13.386" cy="103.907" r=".142" transform="rotate(-138.737 13.386 103.907)"/><circle cx="12.96" cy="103.533" r=".142" transform="rotate(-138.737 12.96 103.533)"/><circle cx="12.535" cy="103.16" r=".142" transform="rotate(-138.737 12.535 103.16)"/><circle cx="12.109" cy="102.786" r=".142" transform="rotate(-138.737 12.109 102.786)"/><circle cx="11.684" cy="102.413" r=".142" transform="rotate(-138.737 11.684 102.413)"/><circle cx="11.258" cy="102.039" r=".142" transform="rotate(-138.737 11.258 102.039)"/><circle cx="10.832" cy="101.666" r=".142" transform="rotate(-138.737 10.832 101.666)"/><circle cx="10.407" cy="101.292" r=".142" transform="rotate(-138.737 10.407 101.292)"/><circle cx="9.981" cy="100.919" r=".142" transform="rotate(-138.737 9.98 100.919)"/><circle cx="14.611" cy="104.228" r=".142" transform="rotate(-138.737 14.61 104.228)"/><circle cx="14.185" cy="103.854" r=".142" transform="rotate(-138.737 14.185 103.854)"/><circle cx="13.759" cy="103.481" r=".142" transform="rotate(-138.737 13.76 103.481)"/><circle cx="13.334" cy="103.107" r=".142" transform="rotate(-138.737 13.334 103.107)"/><circle cx="12.908" cy="102.734" r=".142" transform="rotate(-138.737 12.908 102.734)"/><circle cx="12.483" cy="102.361" r=".142" transform="rotate(-138.737 12.483 102.361)"/><circle cx="12.057" cy="101.987" r=".142" transform="rotate(-138.737 12.057 101.987)"/><circle cx="11.631" cy="101.614" r=".142" transform="rotate(-138.737 11.631 101.614)"/><circle cx="11.206" cy="101.24" r=".142" transform="rotate(-138.737 11.206 101.24)"/><circle cx="10.78" cy="100.867" r=".142" transform="rotate(-138.737 10.78 100.867)"/><circle cx="10.354" cy="100.493" r=".142" transform="rotate(-138.737 10.354 100.493)"/><circle cx="14.984" cy="103.802" r=".142" transform="rotate(-138.737 14.984 103.802)"/><circle cx="14.559" cy="103.429" r=".142" transform="rotate(-138.737 14.559 103.429)"/><circle cx="14.133" cy="103.055" r=".142" transform="rotate(-138.737 14.133 103.055)"/><circle cx="13.707" cy="102.682" r=".142" transform="rotate(-138.737 13.707 102.682)"/><circle cx="13.282" cy="102.308" r=".142" transform="rotate(-138.737 13.282 102.308)"/><circle cx="12.856" cy="101.935" r=".142" transform="rotate(-138.737 12.856 101.935)"/><circle cx="12.431" cy="101.561" r=".142" transform="rotate(-138.737 12.43 101.561)"/><circle cx="12.005" cy="101.188" r=".142" transform="rotate(-138.737 12.005 101.188)"/><circle cx="11.579" cy="100.814" r=".142" transform="rotate(-138.737 11.58 100.814)"/><circle cx="11.153" cy="100.441" r=".142" transform="rotate(-138.737 11.153 100.441)"/><circle cx="10.728" cy="100.067" r=".142" transform="rotate(-138.737 10.728 100.067)"/><circle cx="15.358" cy="103.376" r=".142" transform="rotate(-138.737 15.358 103.376)"/><circle cx="14.932" cy="103.003" r=".142" transform="rotate(-138.737 14.932 103.003)"/><circle cx="14.506" cy="102.63" r=".142" transform="rotate(-138.737 14.506 102.63)"/><circle cx="14.081" cy="102.256" r=".142" transform="rotate(-138.737 14.08 102.256)"/><circle cx="13.655" cy="101.883" r=".142" transform="rotate(-138.737 13.655 101.883)"/><circle cx="13.229" cy="101.509" r=".142" transform="rotate(-138.737 13.23 101.509)"/><circle cx="12.804" cy="101.136" r=".142" transform="rotate(-138.737 12.804 101.136)"/><circle cx="12.378" cy="100.763" r=".142" transform="rotate(-138.737 12.378 100.763)"/><circle cx="11.953" cy="100.389" r=".142" transform="rotate(-138.737 11.953 100.389)"/><circle cx="11.527" cy="100.016" r=".142" transform="rotate(-138.737 11.527 100.016)"/><circle cx="11.101" cy="99.642" r=".142" transform="rotate(-138.737 11.101 99.642)"/><circle cx="15.731" cy="102.951" r=".142" transform="rotate(-138.737 15.73 102.951)"/><circle cx="15.305" cy="102.578" r=".142" transform="rotate(-138.737 15.305 102.578)"/><circle cx="14.88" cy="102.204" r=".142" transform="rotate(-138.737 14.88 102.204)"/><circle cx="14.454" cy="101.83" r=".142" transform="rotate(-138.737 14.454 101.83)"/><circle cx="14.028" cy="101.457" r=".142" transform="rotate(-138.737 14.028 101.457)"/><circle cx="13.603" cy="101.084" r=".142" transform="rotate(-138.737 13.603 101.084)"/><circle cx="13.177" cy="100.71" r=".142" transform="rotate(-138.737 13.177 100.71)"/><circle cx="12.752" cy="100.337" r=".142" transform="rotate(-138.737 12.752 100.337)"/><circle cx="12.326" cy="99.963" r=".142" transform="rotate(-138.737 12.326 99.963)"/><circle cx="11.9" cy="99.59" r=".142" transform="rotate(-138.737 11.9 99.59)"/><circle cx="11.475" cy="99.216" r=".142" transform="rotate(-138.737 11.475 99.216)"/><circle cx="16.104" cy="102.525" r=".142" transform="rotate(-138.737 16.104 102.525)"/><circle cx="15.679" cy="102.152" r=".142" transform="rotate(-138.737 15.679 102.152)"/><circle cx="15.253" cy="101.778" r=".142" transform="rotate(-138.737 15.253 101.778)"/><circle cx="14.828" cy="101.405" r=".142" transform="rotate(-138.737 14.828 101.405)"/><circle cx="14.402" cy="101.032" r=".142" transform="rotate(-138.737 14.402 101.032)"/><circle cx="13.976" cy="100.658" r=".142" transform="rotate(-138.737 13.976 100.658)"/><circle cx="13.55" cy="100.285" r=".142" transform="rotate(-138.737 13.55 100.285)"/><circle cx="13.125" cy="99.911" r=".142" transform="rotate(-138.737 13.125 99.911)"/><circle cx="12.699" cy="99.537" r=".142" transform="rotate(-138.737 12.7 99.537)"/><circle cx="12.274" cy="99.164" r=".142" transform="rotate(-138.737 12.274 99.164)"/><circle cx="11.848" cy="98.791" r=".142" transform="rotate(-138.737 11.848 98.79)"/><circle cx="16.478" cy="102.1" r=".142" transform="rotate(-138.737 16.478 102.1)"/><circle cx="16.052" cy="101.726" r=".142" transform="rotate(-138.737 16.052 101.726)"/><circle cx="15.627" cy="101.352" r=".142" transform="rotate(-138.737 15.627 101.352)"/><circle cx="15.201" cy="100.979" r=".142" transform="rotate(-138.737 15.201 100.979)"/><circle cx="14.775" cy="100.606" r=".142" transform="rotate(-138.737 14.775 100.606)"/><circle cx="14.35" cy="100.232" r=".142" transform="rotate(-138.737 14.35 100.232)"/><circle cx="13.924" cy="99.859" r=".142" transform="rotate(-138.737 13.924 99.859)"/><circle cx="13.499" cy="99.485" r=".142" transform="rotate(-138.737 13.499 99.485)"/><circle cx="13.073" cy="99.112" r=".142" transform="rotate(-138.737 13.073 99.112)"/><circle cx="12.647" cy="98.738" r=".142" transform="rotate(-138.737 12.647 98.738)"/><circle cx="12.222" cy="98.365" r=".142" transform="rotate(-138.737 12.222 98.365)"/><circle cx="16.852" cy="101.674" r=".142" transform="rotate(-138.737 16.852 101.674)"/><circle cx="16.426" cy="101.3" r=".142" transform="rotate(-138.737 16.426 101.3)"/><circle cx="16" cy="100.927" r=".142" transform="rotate(-138.737 16 100.927)"/><circle cx="15.575" cy="100.554" r=".142" transform="rotate(-138.737 15.575 100.554)"/><circle cx="15.149" cy="100.18" r=".142" transform="rotate(-138.737 15.15 100.18)"/><circle cx="14.723" cy="99.807" r=".142" transform="rotate(-138.737 14.723 99.807)"/><circle cx="14.298" cy="99.433" r=".142" transform="rotate(-138.737 14.298 99.433)"/><circle cx="13.872" cy="99.06" r=".142" transform="rotate(-138.737 13.872 99.06)"/><circle cx="13.446" cy="98.686" r=".142" transform="rotate(-138.737 13.446 98.686)"/><circle cx="13.021" cy="98.313" r=".142" transform="rotate(-138.737 13.02 98.313)"/><circle cx="12.595" cy="97.939" r=".142" transform="rotate(-138.737 12.595 97.94)"/><circle cx="17.225" cy="101.248" r=".142" transform="rotate(-138.737 17.225 101.248)"/><circle cx="16.799" cy="100.875" r=".142" transform="rotate(-138.737 16.8 100.875)"/><circle cx="16.374" cy="100.501" r=".142" transform="rotate(-138.737 16.374 100.501)"/><circle cx="15.948" cy="100.128" r=".142" transform="rotate(-138.737 15.948 100.128)"/><circle cx="15.522" cy="99.754" r=".142" transform="rotate(-138.737 15.522 99.754)"/><circle cx="15.097" cy="99.381" r=".142" transform="rotate(-138.737 15.097 99.38)"/><circle cx="14.671" cy="99.007" r=".142" transform="rotate(-138.737 14.671 99.007)"/><circle cx="14.245" cy="98.634" r=".142" transform="rotate(-138.737 14.245 98.634)"/><circle cx="13.82" cy="98.261" r=".142" transform="rotate(-138.737 13.82 98.26)"/><circle cx="13.394" cy="97.887" r=".142" transform="rotate(-138.737 13.394 97.887)"/><circle cx="12.968" cy="97.514" r=".142" transform="rotate(-138.737 12.968 97.514)"/><circle cx="17.598" cy="100.823" r=".142" transform="rotate(-138.737 17.598 100.823)"/><circle cx="17.173" cy="100.449" r=".142" transform="rotate(-138.737 17.173 100.449)"/><circle cx="16.747" cy="100.076" r=".142" transform="rotate(-138.737 16.747 100.076)"/><circle cx="16.321" cy="99.702" r=".142" transform="rotate(-138.737 16.321 99.702)"/><circle cx="15.896" cy="99.329" r=".142" transform="rotate(-138.737 15.896 99.329)"/><circle cx="15.47" cy="98.956" r=".142" transform="rotate(-138.737 15.47 98.956)"/><circle cx="15.045" cy="98.582" r=".142" transform="rotate(-138.737 15.045 98.582)"/><circle cx="14.619" cy="98.208" r=".142" transform="rotate(-138.737 14.619 98.208)"/><circle cx="14.193" cy="97.835" r=".142" transform="rotate(-138.737 14.193 97.835)"/><circle cx="13.768" cy="97.461" r=".142" transform="rotate(-138.737 13.768 97.461)"/><circle cx="13.342" cy="97.088" r=".142" transform="rotate(-138.737 13.342 97.088)"/><circle cx="17.972" cy="100.397" r=".142" transform="rotate(-138.737 17.972 100.397)"/><circle cx="17.546" cy="100.023" r=".142" transform="rotate(-138.737 17.546 100.023)"/><circle cx="17.12" cy="99.65" r=".142" transform="rotate(-138.737 17.12 99.65)"/><circle cx="16.695" cy="99.277" r=".142" transform="rotate(-138.737 16.695 99.277)"/><circle cx="16.269" cy="98.903" r=".142" transform="rotate(-138.737 16.27 98.903)"/><circle cx="15.844" cy="98.53" r=".142" transform="rotate(-138.737 15.844 98.53)"/><circle cx="15.418" cy="98.156" r=".142" transform="rotate(-138.737 15.418 98.156)"/><circle cx="14.993" cy="97.783" r=".142" transform="rotate(-138.737 14.993 97.783)"/><circle cx="14.567" cy="97.41" r=".142" transform="rotate(-138.737 14.567 97.41)"/><circle cx="14.141" cy="97.036" r=".142" transform="rotate(-138.737 14.141 97.036)"/><circle cx="13.715" cy="96.662" r=".142" transform="rotate(-138.737 13.715 96.662)"/><circle cx="18.345" cy="99.971" r=".142" transform="rotate(-138.737 18.345 99.971)"/><circle cx="17.92" cy="99.598" r=".142" transform="rotate(-138.737 17.92 99.598)"/><circle cx="17.494" cy="99.225" r=".142" transform="rotate(-138.737 17.494 99.225)"/><circle cx="17.069" cy="98.851" r=".142" transform="rotate(-138.737 17.069 98.851)"/><circle cx="16.643" cy="98.478" r=".142" transform="rotate(-138.737 16.643 98.478)"/><circle cx="16.217" cy="98.104" r=".142" transform="rotate(-138.737 16.217 98.104)"/><circle cx="15.791" cy="97.73" r=".142" transform="rotate(-138.737 15.791 97.73)"/><circle cx="15.366" cy="97.357" r=".142" transform="rotate(-138.737 15.366 97.357)"/><circle cx="14.94" cy="96.984" r=".142" transform="rotate(-138.737 14.94 96.984)"/><circle cx="14.514" cy="96.61" r=".142" transform="rotate(-138.737 14.514 96.61)"/><circle cx="14.089" cy="96.237" r=".142" transform="rotate(-138.737 14.089 96.237)"/><circle cx="18.719" cy="99.546" r=".142" transform="rotate(-138.737 18.719 99.546)"/><circle cx="18.293" cy="99.172" r=".142" transform="rotate(-138.737 18.293 99.172)"/><circle cx="17.867" cy="98.799" r=".142" transform="rotate(-138.737 17.867 98.799)"/><circle cx="17.442" cy="98.425" r=".142" transform="rotate(-138.737 17.442 98.425)"/><circle cx="17.016" cy="98.052" r=".142" transform="rotate(-138.737 17.016 98.052)"/><circle cx="16.59" cy="97.679" r=".142" transform="rotate(-138.737 16.59 97.679)"/><circle cx="16.165" cy="97.305" r=".142" transform="rotate(-138.737 16.165 97.305)"/><circle cx="15.739" cy="96.932" r=".142" transform="rotate(-138.737 15.74 96.932)"/><circle cx="15.314" cy="96.558" r=".142" transform="rotate(-138.737 15.314 96.558)"/><circle cx="14.888" cy="96.184" r=".142" transform="rotate(-138.737 14.888 96.184)"/><circle cx="14.462" cy="95.811" r=".142" transform="rotate(-138.737 14.462 95.811)"/><circle cx="19.092" cy="99.12" r=".142" transform="rotate(-138.737 19.092 99.12)"/><circle cx="18.666" cy="98.746" r=".142" transform="rotate(-138.737 18.666 98.746)"/><circle cx="18.241" cy="98.373" r=".142" transform="rotate(-138.737 18.24 98.373)"/><circle cx="17.815" cy="98" r=".142" transform="rotate(-138.737 17.815 98)"/><circle cx="17.39" cy="97.626" r=".142" transform="rotate(-138.737 17.39 97.626)"/><circle cx="16.964" cy="97.253" r=".142" transform="rotate(-138.737 16.964 97.253)"/><circle cx="16.538" cy="96.879" r=".142" transform="rotate(-138.737 16.538 96.88)"/><circle cx="16.113" cy="96.506" r=".142" transform="rotate(-138.737 16.113 96.506)"/><circle cx="15.687" cy="96.133" r=".142" transform="rotate(-138.737 15.687 96.133)"/><circle cx="15.261" cy="95.759" r=".142" transform="rotate(-138.737 15.261 95.76)"/><circle cx="14.836" cy="95.386" r=".142" transform="rotate(-138.737 14.836 95.386)"/><circle cx="19.465" cy="98.694" r=".142" transform="rotate(-138.737 19.465 98.694)"/><circle cx="19.04" cy="98.321" r=".142" transform="rotate(-138.737 19.04 98.321)"/><circle cx="18.614" cy="97.948" r=".142" transform="rotate(-138.737 18.614 97.948)"/><circle cx="18.189" cy="97.574" r=".142" transform="rotate(-138.737 18.189 97.574)"/><circle cx="17.763" cy="97.201" r=".142" transform="rotate(-138.737 17.763 97.2)"/><circle cx="17.337" cy="96.827" r=".142" transform="rotate(-138.737 17.337 96.827)"/><circle cx="16.912" cy="96.454" r=".142" transform="rotate(-138.737 16.912 96.454)"/><circle cx="16.486" cy="96.081" r=".142" transform="rotate(-138.737 16.486 96.08)"/><circle cx="16.06" cy="95.707" r=".142" transform="rotate(-138.737 16.06 95.707)"/><circle cx="15.635" cy="95.333" r=".142" transform="rotate(-138.737 15.635 95.333)"/><circle cx="15.209" cy="94.96" r=".142" transform="rotate(-138.737 15.21 94.96)"/><circle cx="19.839" cy="98.269" r=".142" transform="rotate(-138.737 19.839 98.269)"/><circle cx="19.413" cy="97.895" r=".142" transform="rotate(-138.737 19.413 97.895)"/><circle cx="18.988" cy="97.522" r=".142" transform="rotate(-138.737 18.988 97.522)"/><circle cx="18.562" cy="97.148" r=".142" transform="rotate(-138.737 18.562 97.148)"/><circle cx="18.137" cy="96.775" r=".142" transform="rotate(-138.737 18.137 96.775)"/><circle cx="17.711" cy="96.402" r=".142" transform="rotate(-138.737 17.71 96.402)"/><circle cx="17.285" cy="96.028" r=".142" transform="rotate(-138.737 17.285 96.028)"/><circle cx="16.86" cy="95.655" r=".142" transform="rotate(-138.737 16.86 95.655)"/><circle cx="16.434" cy="95.281" r=".142" transform="rotate(-138.737 16.434 95.281)"/><circle cx="16.008" cy="94.908" r=".142" transform="rotate(-138.737 16.008 94.908)"/><circle cx="15.582" cy="94.534" r=".142" transform="rotate(-138.737 15.582 94.534)"/><circle cx="20.212" cy="97.843" r=".142" transform="rotate(-138.737 20.212 97.843)"/><circle cx="19.787" cy="97.47" r=".142" transform="rotate(-138.737 19.787 97.47)"/><circle cx="19.361" cy="97.096" r=".142" transform="rotate(-138.737 19.361 97.096)"/><circle cx="18.936" cy="96.723" r=".142" transform="rotate(-138.737 18.936 96.723)"/><circle cx="18.51" cy="96.349" r=".142" transform="rotate(-138.737 18.51 96.35)"/><circle cx="18.085" cy="95.976" r=".142" transform="rotate(-138.737 18.085 95.976)"/><circle cx="17.659" cy="95.602" r=".142" transform="rotate(-138.737 17.659 95.602)"/><circle cx="17.233" cy="95.229" r=".142" transform="rotate(-138.737 17.233 95.229)"/><circle cx="16.808" cy="94.855" r=".142" transform="rotate(-138.737 16.808 94.855)"/><circle cx="16.382" cy="94.482" r=".142" transform="rotate(-138.737 16.382 94.482)"/><circle cx="15.956" cy="94.108" r=".142" transform="rotate(-138.737 15.956 94.108)"/><circle cx="20.586" cy="97.417" r=".142" transform="rotate(-138.737 20.586 97.417)"/><circle cx="20.16" cy="97.044" r=".142" transform="rotate(-138.737 20.16 97.044)"/><circle cx="19.735" cy="96.67" r=".142" transform="rotate(-138.737 19.735 96.67)"/><circle cx="19.309" cy="96.297" r=".142" transform="rotate(-138.737 19.31 96.297)"/><circle cx="18.884" cy="95.924" r=".142" transform="rotate(-138.737 18.884 95.924)"/><circle cx="18.458" cy="95.55" r=".142" transform="rotate(-138.737 18.458 95.55)"/><circle cx="18.032" cy="95.177" r=".142" transform="rotate(-138.737 18.032 95.177)"/><circle cx="17.607" cy="94.803" r=".142" transform="rotate(-138.737 17.607 94.803)"/><circle cx="17.181" cy="94.43" r=".142" transform="rotate(-138.737 17.181 94.43)"/><circle cx="16.755" cy="94.056" r=".142" transform="rotate(-138.737 16.755 94.056)"/><circle cx="16.329" cy="93.683" r=".142" transform="rotate(-138.737 16.33 93.683)"/><circle cx="20.96" cy="96.992" r=".142" transform="rotate(-138.737 20.96 96.992)"/><circle cx="20.534" cy="96.618" r=".142" transform="rotate(-138.737 20.534 96.618)"/><circle cx="20.108" cy="96.245" r=".142" transform="rotate(-138.737 20.108 96.245)"/><circle cx="19.683" cy="95.871" r=".142" transform="rotate(-138.737 19.683 95.871)"/><circle cx="19.257" cy="95.498" r=".142" transform="rotate(-138.737 19.257 95.498)"/><circle cx="18.831" cy="95.124" r=".142" transform="rotate(-138.737 18.831 95.124)"/><circle cx="18.406" cy="94.751" r=".142" transform="rotate(-138.737 18.406 94.75)"/><circle cx="17.98" cy="94.378" r=".142" transform="rotate(-138.737 17.98 94.378)"/><circle cx="17.554" cy="94.004" r=".142" transform="rotate(-138.737 17.554 94.004)"/><circle cx="17.129" cy="93.631" r=".142" transform="rotate(-138.737 17.129 93.63)"/><circle cx="16.703" cy="93.257" r=".142" transform="rotate(-138.737 16.703 93.257)"/><circle cx="21.333" cy="96.566" r=".142" transform="rotate(-138.737 21.333 96.566)"/><circle cx="20.907" cy="96.193" r=".142" transform="rotate(-138.737 20.907 96.193)"/><circle cx="20.482" cy="95.819" r=".142" transform="rotate(-138.737 20.482 95.82)"/><circle cx="20.056" cy="95.446" r=".142" transform="rotate(-138.737 20.056 95.446)"/><circle cx="19.63" cy="95.073" r=".142" transform="rotate(-138.737 19.63 95.073)"/><circle cx="19.205" cy="94.699" r=".142" transform="rotate(-138.737 19.205 94.7)"/><circle cx="18.779" cy="94.326" r=".142" transform="rotate(-138.737 18.779 94.326)"/><circle cx="18.353" cy="93.953" r=".142" transform="rotate(-138.737 18.353 93.953)"/><circle cx="17.928" cy="93.579" r=".142" transform="rotate(-138.737 17.928 93.579)"/><circle cx="17.502" cy="93.206" r=".142" transform="rotate(-138.737 17.502 93.206)"/><circle cx="17.076" cy="92.832" r=".142" transform="rotate(-138.737 17.076 92.832)"/><circle cx="21.706" cy="96.141" r=".142" transform="rotate(-138.737 21.706 96.14)"/><circle cx="21.281" cy="95.767" r=".142" transform="rotate(-138.737 21.28 95.767)"/><circle cx="20.855" cy="95.394" r=".142" transform="rotate(-138.737 20.855 95.394)"/><circle cx="20.43" cy="95.02" r=".142" transform="rotate(-138.737 20.43 95.02)"/><circle cx="20.004" cy="94.647" r=".142" transform="rotate(-138.737 20.004 94.647)"/><circle cx="19.578" cy="94.273" r=".142" transform="rotate(-138.737 19.578 94.273)"/><circle cx="19.152" cy="93.9" r=".142" transform="rotate(-138.737 19.152 93.9)"/><circle cx="18.727" cy="93.526" r=".142" transform="rotate(-138.737 18.727 93.526)"/><circle cx="18.301" cy="93.153" r=".142" transform="rotate(-138.737 18.301 93.153)"/><circle cx="17.876" cy="92.779" r=".142" transform="rotate(-138.737 17.876 92.78)"/><circle cx="17.45" cy="92.406" r=".142" transform="rotate(-138.737 17.45 92.406)"/><circle cx="9.182" cy="100.971" r=".142" transform="rotate(-138.737 9.182 100.971)"/><circle cx="8.756" cy="100.598" r=".142" transform="rotate(-138.737 8.756 100.598)"/><circle cx="8.33" cy="100.224" r=".142" transform="rotate(-138.737 8.33 100.224)"/><circle cx="7.905" cy="99.85" r=".142" transform="rotate(-138.737 7.905 99.85)"/><circle cx="7.479" cy="99.478" r=".142" transform="rotate(-138.737 7.48 99.478)"/><circle cx="7.054" cy="99.104" r=".142" transform="rotate(-138.737 7.054 99.104)"/><circle cx="6.628" cy="98.73" r=".142" transform="rotate(-138.737 6.628 98.73)"/><circle cx="6.202" cy="98.357" r=".142" transform="rotate(-138.737 6.202 98.357)"/><circle cx="5.777" cy="97.983" r=".142" transform="rotate(-138.737 5.777 97.983)"/><circle cx="5.351" cy="97.61" r=".142" transform="rotate(-138.737 5.351 97.61)"/><circle cx="4.925" cy="97.236" r=".142" transform="rotate(-138.737 4.925 97.236)"/><circle cx="9.556" cy="100.545" r=".142" transform="rotate(-138.737 9.556 100.545)"/><circle cx="9.13" cy="100.172" r=".142" transform="rotate(-138.737 9.13 100.172)"/><circle cx="8.704" cy="99.798" r=".142" transform="rotate(-138.737 8.704 99.798)"/><circle cx="8.279" cy="99.425" r=".142" transform="rotate(-138.737 8.279 99.425)"/><circle cx="7.853" cy="99.051" r=".142" transform="rotate(-138.737 7.853 99.051)"/><circle cx="7.427" cy="98.678" r=".142" transform="rotate(-138.737 7.427 98.678)"/><circle cx="7.002" cy="98.305" r=".142" transform="rotate(-138.737 7.002 98.305)"/><circle cx="6.576" cy="97.931" r=".142" transform="rotate(-138.737 6.576 97.931)"/><circle cx="6.15" cy="97.558" r=".142" transform="rotate(-138.737 6.15 97.558)"/><circle cx="5.724" cy="97.184" r=".142" transform="rotate(-138.737 5.724 97.184)"/><circle cx="5.299" cy="96.811" r=".142" transform="rotate(-138.737 5.299 96.81)"/><circle cx="9.929" cy="100.12" r=".142" transform="rotate(-138.737 9.929 100.12)"/><circle cx="9.503" cy="99.746" r=".142" transform="rotate(-138.737 9.503 99.746)"/><circle cx="9.078" cy="99.373" r=".142" transform="rotate(-138.737 9.078 99.373)"/><circle cx="8.652" cy="98.999" r=".142" transform="rotate(-138.737 8.652 99)"/><circle cx="8.226" cy="98.626" r=".142" transform="rotate(-138.737 8.226 98.626)"/><circle cx="7.8" cy="98.252" r=".142" transform="rotate(-138.737 7.8 98.252)"/><circle cx="7.375" cy="97.879" r=".142" transform="rotate(-138.737 7.375 97.879)"/><circle cx="6.949" cy="97.506" r=".142" transform="rotate(-138.737 6.95 97.506)"/><circle cx="6.524" cy="97.132" r=".142" transform="rotate(-138.737 6.524 97.132)"/><circle cx="6.098" cy="96.759" r=".142" transform="rotate(-138.737 6.098 96.759)"/><circle cx="5.672" cy="96.385" r=".142" transform="rotate(-138.737 5.672 96.385)"/><circle cx="10.302" cy="99.694" r=".142" transform="rotate(-138.737 10.302 99.694)"/><circle cx="9.877" cy="99.32" r=".142" transform="rotate(-138.737 9.877 99.32)"/><circle cx="9.451" cy="98.947" r=".142" transform="rotate(-138.737 9.451 98.947)"/><circle cx="9.026" cy="98.574" r=".142" transform="rotate(-138.737 9.026 98.574)"/><circle cx="8.6" cy="98.2" r=".142" transform="rotate(-138.737 8.6 98.2)"/><circle cx="8.174" cy="97.827" r=".142" transform="rotate(-138.737 8.174 97.827)"/><circle cx="7.748" cy="97.453" r=".142" transform="rotate(-138.737 7.748 97.453)"/><circle cx="7.323" cy="97.079" r=".142" transform="rotate(-138.737 7.323 97.08)"/><circle cx="6.897" cy="96.707" r=".142" transform="rotate(-138.737 6.897 96.707)"/><circle cx="6.472" cy="96.333" r=".142" transform="rotate(-138.737 6.472 96.333)"/><circle cx="6.046" cy="95.959" r=".142" transform="rotate(-138.737 6.046 95.96)"/><circle cx="10.675" cy="99.269" r=".142" transform="rotate(-138.737 10.675 99.269)"/><circle cx="10.25" cy="98.895" r=".142" transform="rotate(-138.737 10.25 98.895)"/><circle cx="9.824" cy="98.522" r=".142" transform="rotate(-138.737 9.824 98.522)"/><circle cx="9.399" cy="98.148" r=".142" transform="rotate(-138.737 9.399 98.148)"/><circle cx="8.973" cy="97.775" r=".142" transform="rotate(-138.737 8.973 97.775)"/><circle cx="8.547" cy="97.401" r=".142" transform="rotate(-138.737 8.547 97.401)"/><circle cx="8.122" cy="97.028" r=".142" transform="rotate(-138.737 8.122 97.028)"/><circle cx="7.696" cy="96.654" r=".142" transform="rotate(-138.737 7.696 96.654)"/><circle cx="7.27" cy="96.281" r=".142" transform="rotate(-138.737 7.27 96.281)"/><circle cx="6.845" cy="95.908" r=".142" transform="rotate(-138.737 6.845 95.908)"/><circle cx="6.419" cy="95.534" r=".142" transform="rotate(-138.737 6.42 95.534)"/><circle cx="11.049" cy="98.843" r=".142" transform="rotate(-138.737 11.05 98.843)"/><circle cx="10.624" cy="98.469" r=".142" transform="rotate(-138.737 10.624 98.47)"/><circle cx="10.198" cy="98.096" r=".142" transform="rotate(-138.737 10.198 98.096)"/><circle cx="9.772" cy="97.723" r=".142" transform="rotate(-138.737 9.772 97.723)"/><circle cx="9.347" cy="97.349" r=".142" transform="rotate(-138.737 9.347 97.35)"/><circle cx="8.921" cy="96.975" r=".142" transform="rotate(-138.737 8.921 96.975)"/><circle cx="8.495" cy="96.602" r=".142" transform="rotate(-138.737 8.495 96.602)"/><circle cx="8.07" cy="96.228" r=".142" transform="rotate(-138.737 8.07 96.228)"/><circle cx="7.644" cy="95.855" r=".142" transform="rotate(-138.737 7.644 95.855)"/><circle cx="7.218" cy="95.481" r=".142" transform="rotate(-138.737 7.218 95.481)"/><circle cx="6.793" cy="95.108" r=".142" transform="rotate(-138.737 6.793 95.108)"/><circle cx="11.422" cy="98.417" r=".142" transform="rotate(-138.737 11.422 98.417)"/><circle cx="10.997" cy="98.044" r=".142" transform="rotate(-138.737 10.997 98.044)"/><circle cx="10.571" cy="97.67" r=".142" transform="rotate(-138.737 10.571 97.67)"/><circle cx="10.146" cy="97.297" r=".142" transform="rotate(-138.737 10.146 97.297)"/><circle cx="9.72" cy="96.924" r=".142" transform="rotate(-138.737 9.72 96.924)"/><circle cx="9.294" cy="96.55" r=".142" transform="rotate(-138.737 9.294 96.55)"/><circle cx="8.869" cy="96.177" r=".142" transform="rotate(-138.737 8.869 96.177)"/><circle cx="8.443" cy="95.803" r=".142" transform="rotate(-138.737 8.443 95.803)"/><circle cx="8.017" cy="95.43" r=".142" transform="rotate(-138.737 8.017 95.43)"/><circle cx="7.591" cy="95.056" r=".142" transform="rotate(-138.737 7.591 95.056)"/><circle cx="7.166" cy="94.683" r=".142" transform="rotate(-138.737 7.166 94.683)"/><circle cx="11.796" cy="97.992" r=".142" transform="rotate(-138.737 11.796 97.992)"/><circle cx="11.37" cy="97.618" r=".142" transform="rotate(-138.737 11.37 97.618)"/><circle cx="10.945" cy="97.245" r=".142" transform="rotate(-138.737 10.945 97.245)"/><circle cx="10.519" cy="96.871" r=".142" transform="rotate(-138.737 10.52 96.871)"/><circle cx="10.094" cy="96.498" r=".142" transform="rotate(-138.737 10.094 96.498)"/><circle cx="9.668" cy="96.124" r=".142" transform="rotate(-138.737 9.668 96.124)"/><circle cx="9.242" cy="95.751" r=".142" transform="rotate(-138.737 9.242 95.75)"/><circle cx="8.817" cy="95.377" r=".142" transform="rotate(-138.737 8.817 95.377)"/><circle cx="8.391" cy="95.004" r=".142" transform="rotate(-138.737 8.391 95.004)"/><circle cx="7.965" cy="94.63" r=".142" transform="rotate(-138.737 7.965 94.63)"/><circle cx="7.54" cy="94.257" r=".142" transform="rotate(-138.737 7.54 94.257)"/><circle cx="12.17" cy="97.566" r=".142" transform="rotate(-138.737 12.17 97.566)"/><circle cx="11.744" cy="97.192" r=".142" transform="rotate(-138.737 11.744 97.192)"/><circle cx="11.318" cy="96.819" r=".142" transform="rotate(-138.737 11.318 96.819)"/><circle cx="10.893" cy="96.446" r=".142" transform="rotate(-138.737 10.893 96.446)"/><circle cx="10.467" cy="96.072" r=".142" transform="rotate(-138.737 10.467 96.072)"/><circle cx="10.041" cy="95.699" r=".142" transform="rotate(-138.737 10.041 95.699)"/><circle cx="9.616" cy="95.325" r=".142" transform="rotate(-138.737 9.616 95.325)"/><circle cx="9.19" cy="94.952" r=".142" transform="rotate(-138.737 9.19 94.952)"/><circle cx="8.764" cy="94.578" r=".142" transform="rotate(-138.737 8.764 94.578)"/><circle cx="8.339" cy="94.204" r=".142" transform="rotate(-138.737 8.339 94.204)"/><circle cx="7.913" cy="93.831" r=".142" transform="rotate(-138.737 7.913 93.831)"/><circle cx="12.543" cy="97.14" r=".142" transform="rotate(-138.737 12.543 97.14)"/><circle cx="12.117" cy="96.766" r=".142" transform="rotate(-138.737 12.117 96.766)"/><circle cx="11.692" cy="96.394" r=".142" transform="rotate(-138.737 11.692 96.394)"/><circle cx="11.266" cy="96.02" r=".142" transform="rotate(-138.737 11.266 96.02)"/><circle cx="10.841" cy="95.646" r=".142" transform="rotate(-138.737 10.84 95.646)"/><circle cx="10.415" cy="95.273" r=".142" transform="rotate(-138.737 10.415 95.273)"/><circle cx="9.989" cy="94.899" r=".142" transform="rotate(-138.737 9.99 94.9)"/><circle cx="9.563" cy="94.526" r=".142" transform="rotate(-138.737 9.563 94.526)"/><circle cx="9.138" cy="94.153" r=".142" transform="rotate(-138.737 9.138 94.153)"/><circle cx="8.712" cy="93.779" r=".142" transform="rotate(-138.737 8.712 93.78)"/><circle cx="8.287" cy="93.406" r=".142" transform="rotate(-138.737 8.287 93.406)"/><circle cx="12.916" cy="96.715" r=".142" transform="rotate(-138.737 12.916 96.715)"/><circle cx="12.491" cy="96.341" r=".142" transform="rotate(-138.737 12.49 96.341)"/><circle cx="12.065" cy="95.968" r=".142" transform="rotate(-138.737 12.065 95.968)"/><circle cx="11.639" cy="95.594" r=".142" transform="rotate(-138.737 11.64 95.594)"/><circle cx="11.214" cy="95.221" r=".142" transform="rotate(-138.737 11.214 95.22)"/><circle cx="10.788" cy="94.847" r=".142" transform="rotate(-138.737 10.788 94.847)"/><circle cx="10.362" cy="94.474" r=".142" transform="rotate(-138.737 10.362 94.474)"/><circle cx="9.937" cy="94.1" r=".142" transform="rotate(-138.737 9.937 94.1)"/><circle cx="9.511" cy="93.727" r=".142" transform="rotate(-138.737 9.511 93.727)"/><circle cx="9.086" cy="93.353" r=".142" transform="rotate(-138.737 9.086 93.353)"/><circle cx="8.66" cy="92.98" r=".142" transform="rotate(-138.737 8.66 92.98)"/><circle cx="13.29" cy="96.289" r=".142" transform="rotate(-138.737 13.29 96.289)"/><circle cx="12.864" cy="95.915" r=".142" transform="rotate(-138.737 12.864 95.915)"/><circle cx="12.439" cy="95.542" r=".142" transform="rotate(-138.737 12.439 95.542)"/><circle cx="12.013" cy="95.168" r=".142" transform="rotate(-138.737 12.013 95.168)"/><circle cx="11.587" cy="94.795" r=".142" transform="rotate(-138.737 11.587 94.795)"/><circle cx="11.162" cy="94.422" r=".142" transform="rotate(-138.737 11.162 94.422)"/><circle cx="10.736" cy="94.048" r=".142" transform="rotate(-138.737 10.736 94.048)"/><circle cx="10.31" cy="93.675" r=".142" transform="rotate(-138.737 10.31 93.675)"/><circle cx="9.885" cy="93.301" r=".142" transform="rotate(-138.737 9.885 93.301)"/><circle cx="9.459" cy="92.928" r=".142" transform="rotate(-138.737 9.459 92.928)"/><circle cx="9.033" cy="92.554" r=".142" transform="rotate(-138.737 9.033 92.554)"/><circle cx="13.664" cy="95.863" r=".142" transform="rotate(-138.737 13.664 95.863)"/><circle cx="13.238" cy="95.49" r=".142" transform="rotate(-138.737 13.238 95.49)"/><circle cx="12.812" cy="95.116" r=".142" transform="rotate(-138.737 12.812 95.116)"/><circle cx="12.387" cy="94.743" r=".142" transform="rotate(-138.737 12.387 94.743)"/><circle cx="11.961" cy="94.369" r=".142" transform="rotate(-138.737 11.961 94.37)"/><circle cx="11.535" cy="93.996" r=".142" transform="rotate(-138.737 11.535 93.996)"/><circle cx="11.11" cy="93.623" r=".142" transform="rotate(-138.737 11.11 93.623)"/><circle cx="10.684" cy="93.249" r=".142" transform="rotate(-138.737 10.684 93.249)"/><circle cx="10.258" cy="92.875" r=".142" transform="rotate(-138.737 10.258 92.875)"/><circle cx="9.833" cy="92.502" r=".142" transform="rotate(-138.737 9.833 92.502)"/><circle cx="9.407" cy="92.128" r=".142" transform="rotate(-138.737 9.407 92.128)"/><circle cx="14.037" cy="95.438" r=".142" transform="rotate(-138.737 14.037 95.438)"/><circle cx="13.611" cy="95.064" r=".142" transform="rotate(-138.737 13.611 95.064)"/><circle cx="13.185" cy="94.691" r=".142" transform="rotate(-138.737 13.185 94.69)"/><circle cx="12.76" cy="94.317" r=".142" transform="rotate(-138.737 12.76 94.317)"/><circle cx="12.334" cy="93.944" r=".142" transform="rotate(-138.737 12.334 93.944)"/><circle cx="11.908" cy="93.57" r=".142" transform="rotate(-138.737 11.908 93.57)"/><circle cx="11.483" cy="93.197" r=".142" transform="rotate(-138.737 11.483 93.197)"/><circle cx="11.057" cy="92.824" r=".142" transform="rotate(-138.737 11.057 92.824)"/><circle cx="10.632" cy="92.45" r=".142" transform="rotate(-138.737 10.632 92.45)"/><circle cx="10.206" cy="92.077" r=".142" transform="rotate(-138.737 10.206 92.077)"/><circle cx="9.78" cy="91.703" r=".142" transform="rotate(-138.737 9.78 91.703)"/><circle cx="14.41" cy="95.012" r=".142" transform="rotate(-138.737 14.41 95.012)"/><circle cx="13.985" cy="94.639" r=".142" transform="rotate(-138.737 13.985 94.639)"/><circle cx="13.559" cy="94.265" r=".142" transform="rotate(-138.737 13.559 94.265)"/><circle cx="13.133" cy="93.891" r=".142" transform="rotate(-138.737 13.133 93.891)"/><circle cx="12.708" cy="93.519" r=".142" transform="rotate(-138.737 12.708 93.519)"/><circle cx="12.282" cy="93.145" r=".142" transform="rotate(-138.737 12.282 93.145)"/><circle cx="11.856" cy="92.771" r=".142" transform="rotate(-138.737 11.856 92.771)"/><circle cx="11.431" cy="92.398" r=".142" transform="rotate(-138.737 11.43 92.398)"/><circle cx="11.005" cy="92.024" r=".142" transform="rotate(-138.737 11.005 92.024)"/><circle cx="10.579" cy="91.651" r=".142" transform="rotate(-138.737 10.58 91.65)"/><circle cx="10.154" cy="91.277" r=".142" transform="rotate(-138.737 10.154 91.277)"/><circle cx="14.784" cy="94.586" r=".142" transform="rotate(-138.737 14.784 94.586)"/><circle cx="14.358" cy="94.213" r=".142" transform="rotate(-138.737 14.358 94.213)"/><circle cx="13.932" cy="93.84" r=".142" transform="rotate(-138.737 13.932 93.84)"/><circle cx="13.507" cy="93.466" r=".142" transform="rotate(-138.737 13.507 93.466)"/><circle cx="13.081" cy="93.093" r=".142" transform="rotate(-138.737 13.08 93.093)"/><circle cx="12.655" cy="92.719" r=".142" transform="rotate(-138.737 12.655 92.72)"/><circle cx="12.23" cy="92.346" r=".142" transform="rotate(-138.737 12.23 92.346)"/><circle cx="11.804" cy="91.972" r=".142" transform="rotate(-138.737 11.804 91.972)"/><circle cx="11.378" cy="91.599" r=".142" transform="rotate(-138.737 11.378 91.6)"/><circle cx="10.953" cy="91.225" r=".142" transform="rotate(-138.737 10.953 91.225)"/><circle cx="10.527" cy="90.852" r=".142" transform="rotate(-138.737 10.527 90.852)"/><circle cx="15.157" cy="94.161" r=".142" transform="rotate(-138.737 15.157 94.16)"/><circle cx="14.732" cy="93.787" r=".142" transform="rotate(-138.737 14.732 93.787)"/><circle cx="14.306" cy="93.413" r=".142" transform="rotate(-138.737 14.306 93.413)"/><circle cx="13.88" cy="93.04" r=".142" transform="rotate(-138.737 13.88 93.04)"/><circle cx="13.455" cy="92.667" r=".142" transform="rotate(-138.737 13.455 92.667)"/><circle cx="13.029" cy="92.293" r=".142" transform="rotate(-138.737 13.029 92.293)"/><circle cx="12.603" cy="91.92" r=".142" transform="rotate(-138.737 12.603 91.92)"/><circle cx="12.178" cy="91.546" r=".142" transform="rotate(-138.737 12.178 91.546)"/><circle cx="11.752" cy="91.173" r=".142" transform="rotate(-138.737 11.752 91.173)"/><circle cx="11.326" cy="90.799" r=".142" transform="rotate(-138.737 11.326 90.8)"/><circle cx="10.901" cy="90.426" r=".142" transform="rotate(-138.737 10.9 90.426)"/><circle cx="15.531" cy="93.735" r=".142" transform="rotate(-138.737 15.53 93.735)"/><circle cx="15.105" cy="93.361" r=".142" transform="rotate(-138.737 15.105 93.361)"/><circle cx="14.679" cy="92.988" r=".142" transform="rotate(-138.737 14.68 92.988)"/><circle cx="14.254" cy="92.615" r=".142" transform="rotate(-138.737 14.254 92.615)"/><circle cx="13.828" cy="92.241" r=".142" transform="rotate(-138.737 13.828 92.241)"/><circle cx="13.402" cy="91.868" r=".142" transform="rotate(-138.737 13.402 91.868)"/><circle cx="12.977" cy="91.494" r=".142" transform="rotate(-138.737 12.977 91.494)"/><circle cx="12.551" cy="91.121" r=".142" transform="rotate(-138.737 12.551 91.12)"/><circle cx="12.126" cy="90.748" r=".142" transform="rotate(-138.737 12.126 90.748)"/><circle cx="11.7" cy="90.374" r=".142" transform="rotate(-138.737 11.7 90.374)"/><circle cx="11.274" cy="90" r=".142" transform="rotate(-138.737 11.274 90)"/><circle cx="15.904" cy="93.309" r=".142" transform="rotate(-138.737 15.904 93.31)"/><circle cx="15.478" cy="92.936" r=".142" transform="rotate(-138.737 15.478 92.936)"/><circle cx="15.053" cy="92.562" r=".142" transform="rotate(-138.737 15.053 92.562)"/><circle cx="14.627" cy="92.189" r=".142" transform="rotate(-138.737 14.627 92.189)"/><circle cx="14.202" cy="91.815" r=".142" transform="rotate(-138.737 14.202 91.815)"/><circle cx="13.776" cy="91.442" r=".142" transform="rotate(-138.737 13.776 91.442)"/><circle cx="13.35" cy="91.069" r=".142" transform="rotate(-138.737 13.35 91.069)"/><circle cx="12.925" cy="90.695" r=".142" transform="rotate(-138.737 12.925 90.695)"/><circle cx="12.499" cy="90.322" r=".142" transform="rotate(-138.737 12.499 90.322)"/><circle cx="12.073" cy="89.948" r=".142" transform="rotate(-138.737 12.073 89.948)"/><circle cx="11.648" cy="89.575" r=".142" transform="rotate(-138.737 11.648 89.575)"/><circle cx="16.277" cy="92.884" r=".142" transform="rotate(-138.737 16.277 92.884)"/><circle cx="15.852" cy="92.51" r=".142" transform="rotate(-138.737 15.852 92.51)"/><circle cx="15.426" cy="92.137" r=".142" transform="rotate(-138.737 15.426 92.137)"/><circle cx="15.001" cy="91.764" r=".142" transform="rotate(-138.737 15 91.764)"/><circle cx="14.575" cy="91.39" r=".142" transform="rotate(-138.737 14.575 91.39)"/><circle cx="14.149" cy="91.016" r=".142" transform="rotate(-138.737 14.15 91.016)"/><circle cx="13.723" cy="90.643" r=".142" transform="rotate(-138.737 13.723 90.643)"/><circle cx="13.298" cy="90.269" r=".142" transform="rotate(-138.737 13.298 90.27)"/><circle cx="12.872" cy="89.896" r=".142" transform="rotate(-138.737 12.872 89.896)"/><circle cx="12.447" cy="89.522" r=".142" transform="rotate(-138.737 12.447 89.522)"/><circle cx="12.021" cy="89.149" r=".142" transform="rotate(-138.737 12.021 89.15)"/><circle cx="16.651" cy="92.458" r=".142" transform="rotate(-138.737 16.651 92.458)"/><circle cx="16.225" cy="92.084" r=".142" transform="rotate(-138.737 16.225 92.084)"/><circle cx="15.8" cy="91.711" r=".142" transform="rotate(-138.737 15.8 91.711)"/><circle cx="15.374" cy="91.338" r=".142" transform="rotate(-138.737 15.374 91.338)"/><circle cx="14.948" cy="90.964" r=".142" transform="rotate(-138.737 14.948 90.964)"/><circle cx="14.523" cy="90.591" r=".142" transform="rotate(-138.737 14.523 90.59)"/><circle cx="14.097" cy="90.217" r=".142" transform="rotate(-138.737 14.097 90.217)"/><circle cx="13.671" cy="89.844" r=".142" transform="rotate(-138.737 13.671 89.844)"/><circle cx="13.246" cy="89.471" r=".142" transform="rotate(-138.737 13.246 89.47)"/><circle cx="12.82" cy="89.097" r=".142" transform="rotate(-138.737 12.82 89.097)"/><circle cx="12.394" cy="88.724" r=".142" transform="rotate(-138.737 12.394 88.724)"/><circle cx="17.024" cy="92.033" r=".142" transform="rotate(-138.737 17.024 92.033)"/><circle cx="16.599" cy="91.659" r=".142" transform="rotate(-138.737 16.599 91.66)"/><circle cx="16.173" cy="91.286" r=".142" transform="rotate(-138.737 16.173 91.286)"/><circle cx="15.747" cy="90.912" r=".142" transform="rotate(-138.737 15.747 90.912)"/><circle cx="15.322" cy="90.538" r=".142" transform="rotate(-138.737 15.322 90.538)"/><circle cx="14.896" cy="90.165" r=".142" transform="rotate(-138.737 14.896 90.165)"/><circle cx="14.471" cy="89.792" r=".142" transform="rotate(-138.737 14.47 89.792)"/><circle cx="14.045" cy="89.418" r=".142" transform="rotate(-138.737 14.045 89.418)"/><circle cx="13.619" cy="89.045" r=".142" transform="rotate(-138.737 13.62 89.045)"/><circle cx="13.194" cy="88.671" r=".142" transform="rotate(-138.737 13.194 88.671)"/><circle cx="12.768" cy="88.298" r=".142" transform="rotate(-138.737 12.768 88.298)"/><circle cx="4.499" cy="96.863" r=".142" transform="rotate(-138.737 4.5 96.863)"/><circle cx="4.873" cy="96.437" r=".142" transform="rotate(-138.737 4.873 96.437)"/><circle cx="4.447" cy="96.064" r=".142" transform="rotate(-138.737 4.447 96.064)"/><circle cx="5.246" cy="96.012" r=".142" transform="rotate(-138.737 5.246 96.012)"/><circle cx="4.821" cy="95.639" r=".142" transform="rotate(-138.737 4.82 95.639)"/><circle cx="4.395" cy="95.265" r=".142" transform="rotate(-138.737 4.395 95.265)"/><circle cx="5.62" cy="95.586" r=".142" transform="rotate(-138.737 5.62 95.586)"/><circle cx="5.194" cy="95.212" r=".142" transform="rotate(-138.737 5.194 95.212)"/><circle cx="4.769" cy="94.839" r=".142" transform="rotate(-138.737 4.769 94.84)"/><circle cx="4.343" cy="94.466" r=".142" transform="rotate(-138.737 4.343 94.466)"/><circle cx="5.993" cy="95.161" r=".142" transform="rotate(-138.737 5.993 95.16)"/><circle cx="5.568" cy="94.787" r=".142" transform="rotate(-138.737 5.568 94.787)"/><circle cx="5.142" cy="94.414" r=".142" transform="rotate(-138.737 5.142 94.414)"/><circle cx="4.716" cy="94.04" r=".142" transform="rotate(-138.737 4.716 94.04)"/><circle cx="4.291" cy="93.667" r=".142" transform="rotate(-138.737 4.29 93.667)"/><circle cx="6.367" cy="94.735" r=".142" transform="rotate(-138.737 6.367 94.735)"/><circle cx="5.941" cy="94.361" r=".142" transform="rotate(-138.737 5.941 94.361)"/><circle cx="5.516" cy="93.988" r=".142" transform="rotate(-138.737 5.516 93.988)"/><circle cx="5.09" cy="93.615" r=".142" transform="rotate(-138.737 5.09 93.615)"/><circle cx="4.664" cy="93.241" r=".142" transform="rotate(-138.737 4.664 93.241)"/><circle cx="4.239" cy="92.868" r=".142" transform="rotate(-138.737 4.239 92.868)"/><circle cx="6.74" cy="94.309" r=".142" transform="rotate(-138.737 6.74 94.31)"/><circle cx="6.314" cy="93.936" r=".142" transform="rotate(-138.737 6.314 93.936)"/><circle cx="5.889" cy="93.562" r=".142" transform="rotate(-138.737 5.889 93.562)"/><circle cx="5.463" cy="93.189" r=".142" transform="rotate(-138.737 5.463 93.189)"/><circle cx="5.037" cy="92.816" r=".142" transform="rotate(-138.737 5.037 92.816)"/><circle cx="4.612" cy="92.442" r=".142" transform="rotate(-138.737 4.612 92.442)"/><circle cx="4.186" cy="92.069" r=".142" transform="rotate(-138.737 4.186 92.069)"/><circle cx="7.114" cy="93.884" r=".142" transform="rotate(-138.737 7.114 93.884)"/><circle cx="6.688" cy="93.51" r=".142" transform="rotate(-138.737 6.688 93.51)"/><circle cx="6.263" cy="93.137" r=".142" transform="rotate(-138.737 6.263 93.137)"/><circle cx="5.837" cy="92.763" r=".142" transform="rotate(-138.737 5.837 92.763)"/><circle cx="5.411" cy="92.39" r=".142" transform="rotate(-138.737 5.411 92.39)"/><circle cx="4.985" cy="92.016" r=".142" transform="rotate(-138.737 4.985 92.016)"/><circle cx="4.56" cy="91.643" r=".142" transform="rotate(-138.737 4.56 91.643)"/><circle cx="4.134" cy="91.269" r=".142" transform="rotate(-138.737 4.134 91.27)"/><circle cx="7.487" cy="93.458" r=".142" transform="rotate(-138.737 7.487 93.458)"/><circle cx="7.061" cy="93.084" r=".142" transform="rotate(-138.737 7.061 93.084)"/><circle cx="6.636" cy="92.711" r=".142" transform="rotate(-138.737 6.636 92.71)"/><circle cx="6.21" cy="92.338" r=".142" transform="rotate(-138.737 6.21 92.338)"/><circle cx="5.785" cy="91.964" r=".142" transform="rotate(-138.737 5.785 91.964)"/><circle cx="5.359" cy="91.591" r=".142" transform="rotate(-138.737 5.359 91.59)"/><circle cx="4.933" cy="91.217" r=".142" transform="rotate(-138.737 4.933 91.217)"/><circle cx="4.508" cy="90.844" r=".142" transform="rotate(-138.737 4.508 90.844)"/><circle cx="7.86" cy="93.032" r=".142" transform="rotate(-138.737 7.86 93.032)"/><circle cx="7.435" cy="92.659" r=".142" transform="rotate(-138.737 7.435 92.659)"/><circle cx="7.009" cy="92.286" r=".142" transform="rotate(-138.737 7.01 92.286)"/><circle cx="6.584" cy="91.912" r=".142" transform="rotate(-138.737 6.584 91.912)"/><circle cx="6.158" cy="91.538" r=".142" transform="rotate(-138.737 6.158 91.538)"/><circle cx="5.732" cy="91.165" r=".142" transform="rotate(-138.737 5.732 91.165)"/><circle cx="5.307" cy="90.791" r=".142" transform="rotate(-138.737 5.307 90.791)"/><circle cx="4.881" cy="90.418" r=".142" transform="rotate(-138.737 4.881 90.418)"/><circle cx="4.455" cy="90.045" r=".142" transform="rotate(-138.737 4.455 90.045)"/><circle cx="8.234" cy="92.607" r=".142" transform="rotate(-138.737 8.234 92.607)"/><circle cx="7.808" cy="92.233" r=".142" transform="rotate(-138.737 7.808 92.233)"/><circle cx="7.383" cy="91.86" r=".142" transform="rotate(-138.737 7.383 91.86)"/><circle cx="6.957" cy="91.486" r=".142" transform="rotate(-138.737 6.957 91.486)"/><circle cx="6.532" cy="91.113" r=".142" transform="rotate(-138.737 6.532 91.113)"/><circle cx="6.106" cy="90.739" r=".142" transform="rotate(-138.737 6.106 90.74)"/><circle cx="5.68" cy="90.366" r=".142" transform="rotate(-138.737 5.68 90.366)"/><circle cx="5.255" cy="89.993" r=".142" transform="rotate(-138.737 5.255 89.993)"/><circle cx="4.829" cy="89.619" r=".142" transform="rotate(-138.737 4.829 89.62)"/><circle cx="4.403" cy="89.246" r=".142" transform="rotate(-138.737 4.403 89.246)"/><circle cx="8.608" cy="92.181" r=".142" transform="rotate(-138.737 8.608 92.181)"/><circle cx="8.182" cy="91.808" r=".142" transform="rotate(-138.737 8.182 91.808)"/><circle cx="7.756" cy="91.434" r=".142" transform="rotate(-138.737 7.756 91.434)"/><circle cx="7.33" cy="91.061" r=".142" transform="rotate(-138.737 7.33 91.061)"/><circle cx="6.905" cy="90.687" r=".142" transform="rotate(-138.737 6.905 90.687)"/><circle cx="6.479" cy="90.314" r=".142" transform="rotate(-138.737 6.48 90.314)"/><circle cx="6.054" cy="89.94" r=".142" transform="rotate(-138.737 6.054 89.94)"/><circle cx="5.628" cy="89.567" r=".142" transform="rotate(-138.737 5.628 89.567)"/><circle cx="5.202" cy="89.193" r=".142" transform="rotate(-138.737 5.202 89.193)"/><circle cx="4.777" cy="88.82" r=".142" transform="rotate(-138.737 4.777 88.82)"/><circle cx="4.351" cy="88.447" r=".142" transform="rotate(-138.737 4.351 88.447)"/><circle cx="8.981" cy="91.755" r=".142" transform="rotate(-138.737 8.981 91.755)"/><circle cx="8.556" cy="91.382" r=".142" transform="rotate(-138.737 8.556 91.382)"/><circle cx="8.13" cy="91.008" r=".142" transform="rotate(-138.737 8.13 91.008)"/><circle cx="7.704" cy="90.635" r=".142" transform="rotate(-138.737 7.704 90.635)"/><circle cx="7.279" cy="90.261" r=".142" transform="rotate(-138.737 7.279 90.261)"/><circle cx="6.853" cy="89.888" r=".142" transform="rotate(-138.737 6.853 89.888)"/><circle cx="6.427" cy="89.515" r=".142" transform="rotate(-138.737 6.427 89.515)"/><circle cx="6.002" cy="89.141" r=".142" transform="rotate(-138.737 6.002 89.141)"/><circle cx="5.576" cy="88.767" r=".142" transform="rotate(-138.737 5.576 88.767)"/><circle cx="5.15" cy="88.394" r=".142" transform="rotate(-138.737 5.15 88.394)"/><circle cx="4.725" cy="88.02" r=".142" transform="rotate(-138.737 4.725 88.02)"/><circle cx="9.354" cy="91.33" r=".142" transform="rotate(-138.737 9.354 91.33)"/><circle cx="8.929" cy="90.957" r=".142" transform="rotate(-138.737 8.929 90.957)"/><circle cx="8.503" cy="90.583" r=".142" transform="rotate(-138.737 8.503 90.583)"/><circle cx="8.078" cy="90.209" r=".142" transform="rotate(-138.737 8.078 90.21)"/><circle cx="7.652" cy="89.836" r=".142" transform="rotate(-138.737 7.652 89.836)"/><circle cx="7.226" cy="89.462" r=".142" transform="rotate(-138.737 7.226 89.462)"/><circle cx="6.8" cy="89.089" r=".142" transform="rotate(-138.737 6.8 89.09)"/><circle cx="6.375" cy="88.716" r=".142" transform="rotate(-138.737 6.375 88.716)"/><circle cx="5.949" cy="88.342" r=".142" transform="rotate(-138.737 5.95 88.342)"/><circle cx="5.523" cy="87.969" r=".142" transform="rotate(-138.737 5.523 87.969)"/><circle cx="5.098" cy="87.595" r=".142" transform="rotate(-138.737 5.098 87.595)"/><circle cx="9.728" cy="90.904" r=".142" transform="rotate(-138.737 9.728 90.904)"/><circle cx="9.302" cy="90.531" r=".142" transform="rotate(-138.737 9.302 90.53)"/><circle cx="8.877" cy="90.157" r=".142" transform="rotate(-138.737 8.877 90.157)"/><circle cx="8.451" cy="89.784" r=".142" transform="rotate(-138.737 8.45 89.784)"/><circle cx="8.025" cy="89.411" r=".142" transform="rotate(-138.737 8.025 89.41)"/><circle cx="7.599" cy="89.037" r=".142" transform="rotate(-138.737 7.6 89.037)"/><circle cx="7.174" cy="88.663" r=".142" transform="rotate(-138.737 7.174 88.663)"/><circle cx="6.748" cy="88.29" r=".142" transform="rotate(-138.737 6.748 88.29)"/><circle cx="6.323" cy="87.916" r=".142" transform="rotate(-138.737 6.323 87.916)"/><circle cx="5.897" cy="87.543" r=".142" transform="rotate(-138.737 5.897 87.543)"/><circle cx="5.471" cy="87.17" r=".142" transform="rotate(-138.737 5.471 87.17)"/><circle cx="10.101" cy="90.478" r=".142" transform="rotate(-138.737 10.101 90.478)"/><circle cx="9.675" cy="90.105" r=".142" transform="rotate(-138.737 9.675 90.105)"/><circle cx="9.25" cy="89.732" r=".142" transform="rotate(-138.737 9.25 89.732)"/><circle cx="8.824" cy="89.358" r=".142" transform="rotate(-138.737 8.824 89.358)"/><circle cx="8.399" cy="88.985" r=".142" transform="rotate(-138.737 8.399 88.985)"/><circle cx="7.973" cy="88.611" r=".142" transform="rotate(-138.737 7.973 88.611)"/><circle cx="7.547" cy="88.238" r=".142" transform="rotate(-138.737 7.547 88.238)"/><circle cx="7.122" cy="87.864" r=".142" transform="rotate(-138.737 7.122 87.864)"/><circle cx="6.696" cy="87.491" r=".142" transform="rotate(-138.737 6.696 87.491)"/><circle cx="6.27" cy="87.118" r=".142" transform="rotate(-138.737 6.27 87.118)"/><circle cx="10.475" cy="90.053" r=".142" transform="rotate(-138.737 10.475 90.053)"/><circle cx="10.049" cy="89.679" r=".142" transform="rotate(-138.737 10.05 89.68)"/><circle cx="9.624" cy="89.306" r=".142" transform="rotate(-138.737 9.624 89.306)"/><circle cx="9.198" cy="88.933" r=".142" transform="rotate(-138.737 9.198 88.933)"/><circle cx="8.772" cy="88.559" r=".142" transform="rotate(-138.737 8.772 88.559)"/><circle cx="8.347" cy="88.186" r=".142" transform="rotate(-138.737 8.347 88.186)"/><circle cx="7.921" cy="87.812" r=".142" transform="rotate(-138.737 7.921 87.812)"/><circle cx="7.495" cy="87.438" r=".142" transform="rotate(-138.737 7.495 87.438)"/><circle cx="10.848" cy="89.627" r=".142" transform="rotate(-138.737 10.848 89.627)"/><circle cx="10.423" cy="89.254" r=".142" transform="rotate(-138.737 10.423 89.254)"/><circle cx="9.997" cy="88.88" r=".142" transform="rotate(-138.737 9.997 88.88)"/><circle cx="9.571" cy="88.507" r=".142" transform="rotate(-138.737 9.571 88.507)"/><circle cx="9.146" cy="88.133" r=".142" transform="rotate(-138.737 9.146 88.133)"/><circle cx="8.72" cy="87.76" r=".142" transform="rotate(-138.737 8.72 87.76)"/><circle cx="8.294" cy="87.386" r=".142" transform="rotate(-138.737 8.294 87.386)"/><circle cx="11.222" cy="89.202" r=".142" transform="rotate(-138.737 11.222 89.202)"/><circle cx="10.796" cy="88.828" r=".142" transform="rotate(-138.737 10.796 88.828)"/><circle cx="10.37" cy="88.454" r=".142" transform="rotate(-138.737 10.37 88.454)"/><circle cx="9.945" cy="88.081" r=".142" transform="rotate(-138.737 9.945 88.081)"/><circle cx="9.519" cy="87.707" r=".142" transform="rotate(-138.737 9.52 87.707)"/><circle cx="9.093" cy="87.334" r=".142" transform="rotate(-138.737 9.093 87.334)"/><circle cx="11.595" cy="88.776" r=".142" transform="rotate(-138.737 11.595 88.776)"/><circle cx="11.17" cy="88.402" r=".142" transform="rotate(-138.737 11.17 88.402)"/><circle cx="10.744" cy="88.029" r=".142" transform="rotate(-138.737 10.744 88.029)"/><circle cx="10.318" cy="87.656" r=".142" transform="rotate(-138.737 10.318 87.656)"/><circle cx="9.893" cy="87.282" r=".142" transform="rotate(-138.737 9.893 87.282)"/><circle cx="11.969" cy="88.35" r=".142" transform="rotate(-138.737 11.969 88.35)"/><circle cx="11.543" cy="87.977" r=".142" transform="rotate(-138.737 11.543 87.977)"/><circle cx="11.117" cy="87.603" r=".142" transform="rotate(-138.737 11.117 87.603)"/><circle cx="10.692" cy="87.23" r=".142" transform="rotate(-138.737 10.692 87.23)"/><circle cx="12.342" cy="87.925" r=".142" transform="rotate(-138.737 12.342 87.925)"/><circle cx="11.916" cy="87.551" r=".142" transform="rotate(-138.737 11.916 87.551)"/><circle cx="11.491" cy="87.178" r=".142" transform="rotate(-138.737 11.49 87.178)"/><circle cx="4.299" cy="87.647" r=".142" transform="rotate(-138.737 4.3 87.647)"/><circle cx="4.672" cy="87.222" r=".142" transform="rotate(-138.737 4.672 87.222)"/><circle cx="22.08" cy="95.715" r=".142" transform="rotate(-138.737 22.08 95.715)"/><circle cx="21.654" cy="95.341" r=".142" transform="rotate(-138.737 21.654 95.341)"/><circle cx="21.229" cy="94.968" r=".142" transform="rotate(-138.737 21.229 94.968)"/><circle cx="20.803" cy="94.595" r=".142" transform="rotate(-138.737 20.803 94.595)"/><circle cx="20.378" cy="94.221" r=".142" transform="rotate(-138.737 20.378 94.221)"/><circle cx="19.952" cy="93.848" r=".142" transform="rotate(-138.737 19.952 93.848)"/><circle cx="19.526" cy="93.474" r=".142" transform="rotate(-138.737 19.526 93.474)"/><circle cx="19.101" cy="93.1" r=".142" transform="rotate(-138.737 19.1 93.1)"/><circle cx="18.675" cy="92.727" r=".142" transform="rotate(-138.737 18.675 92.727)"/><circle cx="18.249" cy="92.354" r=".142" transform="rotate(-138.737 18.25 92.354)"/><circle cx="17.824" cy="91.98" r=".142" transform="rotate(-138.737 17.824 91.98)"/><circle cx="22.454" cy="95.289" r=".142" transform="rotate(-138.737 22.454 95.289)"/><circle cx="22.028" cy="94.915" r=".142" transform="rotate(-138.737 22.028 94.915)"/><circle cx="21.602" cy="94.542" r=".142" transform="rotate(-138.737 21.602 94.542)"/><circle cx="21.177" cy="94.168" r=".142" transform="rotate(-138.737 21.177 94.168)"/><circle cx="20.751" cy="93.795" r=".142" transform="rotate(-138.737 20.751 93.795)"/><circle cx="20.326" cy="93.422" r=".142" transform="rotate(-138.737 20.326 93.422)"/><circle cx="19.9" cy="93.048" r=".142" transform="rotate(-138.737 19.9 93.048)"/><circle cx="19.474" cy="92.675" r=".142" transform="rotate(-138.737 19.474 92.675)"/><circle cx="19.049" cy="92.301" r=".142" transform="rotate(-138.737 19.049 92.301)"/><circle cx="18.623" cy="91.928" r=".142" transform="rotate(-138.737 18.623 91.928)"/><circle cx="18.197" cy="91.554" r=".142" transform="rotate(-138.737 18.197 91.554)"/><circle cx="22.401" cy="94.49" r=".142" transform="rotate(-138.737 22.401 94.49)"/><circle cx="21.976" cy="94.117" r=".142" transform="rotate(-138.737 21.976 94.117)"/><circle cx="21.55" cy="93.743" r=".142" transform="rotate(-138.737 21.55 93.743)"/><circle cx="21.124" cy="93.37" r=".142" transform="rotate(-138.737 21.124 93.37)"/><circle cx="20.699" cy="92.996" r=".142" transform="rotate(-138.737 20.699 92.996)"/><circle cx="20.273" cy="92.623" r=".142" transform="rotate(-138.737 20.273 92.623)"/><circle cx="19.847" cy="92.249" r=".142" transform="rotate(-138.737 19.847 92.25)"/><circle cx="19.422" cy="91.876" r=".142" transform="rotate(-138.737 19.422 91.876)"/><circle cx="18.996" cy="91.502" r=".142" transform="rotate(-138.737 18.996 91.502)"/><circle cx="18.57" cy="91.129" r=".142" transform="rotate(-138.737 18.57 91.129)"/><circle cx="22.349" cy="93.691" r=".142" transform="rotate(-138.737 22.35 93.69)"/><circle cx="21.924" cy="93.317" r=".142" transform="rotate(-138.737 21.924 93.317)"/><circle cx="21.498" cy="92.944" r=".142" transform="rotate(-138.737 21.498 92.944)"/><circle cx="21.072" cy="92.57" r=".142" transform="rotate(-138.737 21.072 92.57)"/><circle cx="20.647" cy="92.197" r=".142" transform="rotate(-138.737 20.647 92.197)"/><circle cx="20.221" cy="91.824" r=".142" transform="rotate(-138.737 20.221 91.824)"/><circle cx="19.795" cy="91.45" r=".142" transform="rotate(-138.737 19.795 91.45)"/><circle cx="19.37" cy="91.077" r=".142" transform="rotate(-138.737 19.37 91.077)"/><circle cx="18.944" cy="90.703" r=".142" transform="rotate(-138.737 18.944 90.703)"/><circle cx="22.297" cy="92.892" r=".142" transform="rotate(-138.737 22.297 92.892)"/><circle cx="21.871" cy="92.519" r=".142" transform="rotate(-138.737 21.871 92.519)"/><circle cx="21.445" cy="92.145" r=".142" transform="rotate(-138.737 21.445 92.145)"/><circle cx="21.02" cy="91.771" r=".142" transform="rotate(-138.737 21.02 91.771)"/><circle cx="20.594" cy="91.398" r=".142" transform="rotate(-138.737 20.594 91.398)"/><circle cx="20.169" cy="91.025" r=".142" transform="rotate(-138.737 20.169 91.025)"/><circle cx="19.743" cy="90.651" r=".142" transform="rotate(-138.737 19.743 90.651)"/><circle cx="19.317" cy="90.278" r=".142" transform="rotate(-138.737 19.317 90.278)"/><circle cx="22.245" cy="92.093" r=".142" transform="rotate(-138.737 22.245 92.093)"/><circle cx="21.819" cy="91.719" r=".142" transform="rotate(-138.737 21.82 91.72)"/><circle cx="21.393" cy="91.346" r=".142" transform="rotate(-138.737 21.393 91.346)"/><circle cx="20.968" cy="90.972" r=".142" transform="rotate(-138.737 20.968 90.972)"/><circle cx="20.542" cy="90.599" r=".142" transform="rotate(-138.737 20.542 90.599)"/><circle cx="20.117" cy="90.225" r=".142" transform="rotate(-138.737 20.117 90.225)"/><circle cx="19.691" cy="89.852" r=".142" transform="rotate(-138.737 19.691 89.852)"/><circle cx="22.192" cy="91.294" r=".142" transform="rotate(-138.737 22.192 91.294)"/><circle cx="21.767" cy="90.92" r=".142" transform="rotate(-138.737 21.767 90.92)"/><circle cx="21.341" cy="90.547" r=".142" transform="rotate(-138.737 21.341 90.547)"/><circle cx="20.915" cy="90.173" r=".142" transform="rotate(-138.737 20.915 90.173)"/><circle cx="20.49" cy="89.8" r=".142" transform="rotate(-138.737 20.49 89.8)"/><circle cx="20.064" cy="89.427" r=".142" transform="rotate(-138.737 20.064 89.427)"/><circle cx="22.14" cy="90.495" r=".142" transform="rotate(-138.737 22.14 90.495)"/><circle cx="21.715" cy="90.121" r=".142" transform="rotate(-138.737 21.715 90.121)"/><circle cx="21.289" cy="89.748" r=".142" transform="rotate(-138.737 21.289 89.748)"/><circle cx="20.864" cy="89.374" r=".142" transform="rotate(-138.737 20.864 89.374)"/><circle cx="20.438" cy="89" r=".142" transform="rotate(-138.737 20.438 89)"/><circle cx="22.088" cy="89.695" r=".142" transform="rotate(-138.737 22.088 89.695)"/><circle cx="21.663" cy="89.322" r=".142" transform="rotate(-138.737 21.663 89.322)"/><circle cx="21.237" cy="88.949" r=".142" transform="rotate(-138.737 21.237 88.949)"/><circle cx="20.811" cy="88.575" r=".142" transform="rotate(-138.737 20.811 88.575)"/><circle cx="22.462" cy="89.27" r=".142" transform="rotate(-138.737 22.462 89.27)"/><circle cx="22.036" cy="88.896" r=".142" transform="rotate(-138.737 22.036 88.896)"/><circle cx="21.61" cy="88.523" r=".142" transform="rotate(-138.737 21.61 88.523)"/><circle cx="21.185" cy="88.149" r=".142" transform="rotate(-138.737 21.185 88.15)"/><circle cx="22.409" cy="88.471" r=".142" transform="rotate(-138.737 22.41 88.47)"/><circle cx="21.984" cy="88.097" r=".142" transform="rotate(-138.737 21.984 88.097)"/><circle cx="21.558" cy="87.724" r=".142" transform="rotate(-138.737 21.558 87.724)"/><circle cx="22.357" cy="87.672" r=".142" transform="rotate(-138.737 22.357 87.672)"/><circle cx="21.931" cy="87.298" r=".142" transform="rotate(-138.737 21.931 87.298)"/><circle cx="17.398" cy="91.607" r=".142" transform="rotate(-138.737 17.398 91.607)"/><circle cx="16.973" cy="91.233" r=".142" transform="rotate(-138.737 16.973 91.233)"/><circle cx="16.547" cy="90.86" r=".142" transform="rotate(-138.737 16.547 90.86)"/><circle cx="16.121" cy="90.487" r=".142" transform="rotate(-138.737 16.121 90.487)"/><circle cx="15.696" cy="90.113" r=".142" transform="rotate(-138.737 15.696 90.113)"/><circle cx="15.27" cy="89.74" r=".142" transform="rotate(-138.737 15.27 89.74)"/><circle cx="14.844" cy="89.366" r=".142" transform="rotate(-138.737 14.844 89.366)"/><circle cx="14.419" cy="88.993" r=".142" transform="rotate(-138.737 14.419 88.993)"/><circle cx="13.993" cy="88.619" r=".142" transform="rotate(-138.737 13.993 88.62)"/><circle cx="13.567" cy="88.246" r=".142" transform="rotate(-138.737 13.567 88.246)"/><circle cx="13.142" cy="87.873" r=".142" transform="rotate(-138.737 13.142 87.873)"/><circle cx="17.772" cy="91.181" r=".142" transform="rotate(-138.737 17.772 91.181)"/><circle cx="17.346" cy="90.808" r=".142" transform="rotate(-138.737 17.346 90.808)"/><circle cx="16.921" cy="90.434" r=".142" transform="rotate(-138.737 16.92 90.434)"/><circle cx="16.495" cy="90.061" r=".142" transform="rotate(-138.737 16.495 90.06)"/><circle cx="16.069" cy="89.687" r=".142" transform="rotate(-138.737 16.07 89.687)"/><circle cx="15.643" cy="89.314" r=".142" transform="rotate(-138.737 15.643 89.314)"/><circle cx="15.218" cy="88.94" r=".142" transform="rotate(-138.737 15.218 88.94)"/><circle cx="14.792" cy="88.567" r=".142" transform="rotate(-138.737 14.792 88.567)"/><circle cx="14.367" cy="88.193" r=".142" transform="rotate(-138.737 14.367 88.193)"/><circle cx="13.941" cy="87.82" r=".142" transform="rotate(-138.737 13.94 87.82)"/><circle cx="13.515" cy="87.446" r=".142" transform="rotate(-138.737 13.515 87.446)"/><circle cx="18.145" cy="90.756" r=".142" transform="rotate(-138.737 18.145 90.756)"/><circle cx="17.719" cy="90.382" r=".142" transform="rotate(-138.737 17.72 90.382)"/><circle cx="17.294" cy="90.009" r=".142" transform="rotate(-138.737 17.294 90.009)"/><circle cx="16.868" cy="89.635" r=".142" transform="rotate(-138.737 16.868 89.635)"/><circle cx="16.442" cy="89.262" r=".142" transform="rotate(-138.737 16.442 89.262)"/><circle cx="16.017" cy="88.888" r=".142" transform="rotate(-138.737 16.017 88.888)"/><circle cx="15.591" cy="88.515" r=".142" transform="rotate(-138.737 15.591 88.515)"/><circle cx="15.165" cy="88.141" r=".142" transform="rotate(-138.737 15.165 88.141)"/><circle cx="14.74" cy="87.768" r=".142" transform="rotate(-138.737 14.74 87.768)"/><circle cx="14.314" cy="87.394" r=".142" transform="rotate(-138.737 14.314 87.394)"/><circle cx="18.519" cy="90.329" r=".142" transform="rotate(-138.737 18.519 90.33)"/><circle cx="18.093" cy="89.957" r=".142" transform="rotate(-138.737 18.093 89.957)"/><circle cx="17.667" cy="89.583" r=".142" transform="rotate(-138.737 17.667 89.583)"/><circle cx="17.242" cy="89.209" r=".142" transform="rotate(-138.737 17.242 89.21)"/><circle cx="16.816" cy="88.836" r=".142" transform="rotate(-138.737 16.816 88.836)"/><circle cx="16.39" cy="88.462" r=".142" transform="rotate(-138.737 16.39 88.462)"/><circle cx="15.965" cy="88.089" r=".142" transform="rotate(-138.737 15.965 88.089)"/><circle cx="15.539" cy="87.716" r=".142" transform="rotate(-138.737 15.54 87.716)"/><circle cx="15.113" cy="87.342" r=".142" transform="rotate(-138.737 15.113 87.342)"/><circle cx="18.892" cy="89.904" r=".142" transform="rotate(-138.737 18.892 89.904)"/><circle cx="18.466" cy="89.531" r=".142" transform="rotate(-138.737 18.466 89.531)"/><circle cx="18.041" cy="89.158" r=".142" transform="rotate(-138.737 18.04 89.158)"/><circle cx="17.615" cy="88.784" r=".142" transform="rotate(-138.737 17.615 88.784)"/><circle cx="17.189" cy="88.411" r=".142" transform="rotate(-138.737 17.19 88.41)"/><circle cx="16.764" cy="88.037" r=".142" transform="rotate(-138.737 16.764 88.037)"/><circle cx="16.338" cy="87.663" r=".142" transform="rotate(-138.737 16.338 87.663)"/><circle cx="15.912" cy="87.29" r=".142" transform="rotate(-138.737 15.912 87.29)"/><circle cx="19.265" cy="89.478" r=".142" transform="rotate(-138.737 19.265 89.478)"/><circle cx="18.84" cy="89.105" r=".142" transform="rotate(-138.737 18.84 89.105)"/><circle cx="18.414" cy="88.731" r=".142" transform="rotate(-138.737 18.414 88.731)"/><circle cx="17.989" cy="88.358" r=".142" transform="rotate(-138.737 17.989 88.358)"/><circle cx="17.563" cy="87.985" r=".142" transform="rotate(-138.737 17.563 87.985)"/><circle cx="17.137" cy="87.611" r=".142" transform="rotate(-138.737 17.137 87.611)"/><circle cx="16.712" cy="87.238" r=".142" transform="rotate(-138.737 16.712 87.238)"/><circle cx="19.639" cy="89.053" r=".142" transform="rotate(-138.737 19.639 89.053)"/><circle cx="19.213" cy="88.68" r=".142" transform="rotate(-138.737 19.213 88.68)"/><circle cx="18.788" cy="88.306" r=".142" transform="rotate(-138.737 18.788 88.306)"/><circle cx="18.362" cy="87.933" r=".142" transform="rotate(-138.737 18.362 87.933)"/><circle cx="17.936" cy="87.559" r=".142" transform="rotate(-138.737 17.936 87.56)"/><circle cx="17.51" cy="87.186" r=".142" transform="rotate(-138.737 17.51 87.186)"/><circle cx="20.012" cy="88.627" r=".142" transform="rotate(-138.737 20.012 88.627)"/><circle cx="19.587" cy="88.254" r=".142" transform="rotate(-138.737 19.587 88.254)"/><circle cx="19.161" cy="87.88" r=".142" transform="rotate(-138.737 19.161 87.88)"/><circle cx="18.735" cy="87.507" r=".142" transform="rotate(-138.737 18.735 87.507)"/><circle cx="18.31" cy="87.134" r=".142" transform="rotate(-138.737 18.31 87.134)"/><circle cx="20.386" cy="88.202" r=".142" transform="rotate(-138.737 20.386 88.202)"/><circle cx="19.96" cy="87.828" r=".142" transform="rotate(-138.737 19.96 87.828)"/><circle cx="19.535" cy="87.454" r=".142" transform="rotate(-138.737 19.535 87.454)"/><circle cx="20.759" cy="87.776" r=".142" transform="rotate(-138.737 20.76 87.776)"/><circle cx="20.334" cy="87.403" r=".142" transform="rotate(-138.737 20.334 87.403)"/><circle cx="21.133" cy="87.35" r=".142" transform="rotate(-138.737 21.133 87.35)"/><circle cx="12.716" cy="87.499" r=".142" transform="rotate(-138.737 12.716 87.499)"/><circle cx="12.29" cy="87.125" r=".142" transform="rotate(-138.737 12.29 87.125)"/></g><path d="M1 9.666v.001V9a.333.333 0 010 .666zm1.333 0a.333.333 0 01-.166-.622c.128.01.255.022.38.035a.333.333 0 01-.215.587zm1.334 0a.333.333 0 01-.3-.48c.212.034.422.071.63.113L4 9.333c0 .184-.15.333-.333.333zm1.333 0a.333.333 0 01-.31-.208c.173.043.344.09.513.139a.328.328 0 01-.203.07zm1.333 1.335a.333.333 0 110-.667.333.333 0 010 .667zM5 11a.333.333 0 110-.667A.333.333 0 015 11zm-1.333 0a.333.333 0 110-.667.333.333 0 010 .667zm-1.334 0a.333.333 0 110-.667.333.333 0 010 .667zM1 11v-.667A.333.333 0 011 11zm6.667 0a.333.333 0 01-.245-.56c.194.091.384.187.573.286l.005-.06c0 .184-.15.334-.333.334zM9 12.334a.333.333 0 110-.667.333.333 0 010 .667zm-1.333 0a.333.333 0 110-.667.333.333 0 010 .667zm-1.334 0a.333.333 0 110-.667.333.333 0 010 .667zm-1.333 0a.333.333 0 110-.667.333.333 0 010 .667zm-1.333 0a.333.333 0 110-.667.333.333 0 010 .667zm-1.334 0a.333.333 0 110-.667.333.333 0 010 .667zm-1.333 0v-.667a.333.333 0 010 .667zm9.333 0A.333.333 0 0110 12l.185.14.23.182-.015.005a.33.33 0 01-.067.007zm0 1.332a.333.333 0 110-.666.333.333 0 010 .666zm-1.333 0A.333.333 0 119 13a.333.333 0 010 .666zm-1.333 0a.333.333 0 110-.666.333.333 0 010 .666zm-1.334 0a.333.333 0 110-.666.333.333 0 010 .666zm-1.333 0A.333.333 0 115 13a.333.333 0 010 .666zm-1.333 0a.333.333 0 110-.666.333.333 0 010 .666zm-1.334 0a.333.333 0 110-.666.333.333 0 010 .666zm-1.333 0V13a.333.333 0 010 .666zm10.667 0a.333.333 0 01-.291-.496c.156.148.307.298.454.452a.311.311 0 01-.163.044zm-8 1.335a.333.333 0 110-.667.333.333 0 010 .667zm-1.334 0a.333.333 0 110-.667.333.333 0 010 .667zm9.334 0a.333.333 0 110-.667.333.333 0 010 .667zm-1.334 0a.333.333 0 110-.667.333.333 0 010 .667zM9 15a.333.333 0 110-.667A.333.333 0 019 15zm-1.333 0a.333.333 0 110-.667.333.333 0 010 .667zm-1.334 0a.333.333 0 110-.667.333.333 0 010 .667zM5 15a.333.333 0 110-.667A.333.333 0 015 15zm-4 0v-.667A.333.333 0 011 15zm12 0a.333.333 0 01-.323-.416c.111.137.22.275.325.416H13zm-1.333 1.333a.333.333 0 110-.667.333.333 0 010 .667zm-2.667 0a.333.333 0 110-.667.333.333 0 010 .667zm1.333 0a.333.333 0 110-.667.333.333 0 010 .667zm-8 0a.333.333 0 110-.667.333.333 0 010 .667zm5.334 0a.333.333 0 110-.667.333.333 0 010 .667zm-1.334 0a.333.333 0 110-.667.333.333 0 010 .667zm-1.333 0a.333.333 0 110-.667.333.333 0 010 .667zm-1.333 0a.333.333 0 110-.667.333.333 0 010 .667zm-2.667 0v-.667a.333.333 0 010 .667zm12 0a.333.333 0 110-.667.333.333 0 010 .667zm0 1.332A.333.333 0 1113 17a.333.333 0 010 .666zm-5.333 0a.333.333 0 110-.666.333.333 0 010 .666zm-1.334 0a.333.333 0 110-.666.333.333 0 010 .666zm-1.333 0A.333.333 0 115 17a.333.333 0 010 .666zm6.667 0a.333.333 0 110-.666.333.333 0 010 .666zM1 17.666V17a.333.333 0 010 .666zm2.667 0a.333.333 0 110-.666.333.333 0 010 .666zm6.666 0a.333.333 0 110-.666.333.333 0 010 .666zm-8 0a.333.333 0 110-.666.333.333 0 010 .666zm6.667 0A.333.333 0 119 17a.333.333 0 010 .666zm5.333 0a.333.333 0 01-.061-.66c.1.188.196.379.288.572a.333.333 0 01-.227.088zM7.667 19a.333.333 0 110-.666.333.333 0 010 .666zM1 19v-.666A.333.333 0 011 19zm4 0a.333.333 0 110-.666A.333.333 0 015 19zm9.333 0a.333.333 0 110-.666.333.333 0 010 .666zm-2.666 0a.333.333 0 110-.666.333.333 0 010 .666zm-9.334 0a.333.333 0 110-.666.333.333 0 010 .666zm4 0a.333.333 0 110-.666.333.333 0 010 .666zM13 19a.333.333 0 110-.666.333.333 0 010 .666zm-2.667 0a.333.333 0 110-.666.333.333 0 010 .666zM9 19a.333.333 0 110-.666A.333.333 0 019 19zm-5.333 0a.333.333 0 110-.666.333.333 0 010 .666zm8 1.334a.333.333 0 110-.667.333.333 0 010 .666zm-5.334 0a.333.333 0 110-.667.333.333 0 010 .666zm-5.333 0v-.667a.333.333 0 010 .666zm12 0a.333.333 0 110-.667.333.333 0 010 .666zm-5.333 0a.333.333 0 110-.667.333.333 0 010 .666zm1.333 0a.333.333 0 110-.667.333.333 0 010 .666zm-5.333 0a.333.333 0 110-.667.333.333 0 010 .666zm6.666 0a.333.333 0 110-.667.333.333 0 010 .666zm-8 0a.333.333 0 110-.667.333.333 0 010 .666zm2.667 0a.333.333 0 110-.667.333.333 0 010 .666zm9.333 0a.333.333 0 110-.667.333.333 0 010 .666zm1-.334c0-.076.026-.147.07-.203.05.17.096.34.14.511a.331.331 0 01-.21-.308zM9 21.666A.333.333 0 119 21a.333.333 0 010 .666zm6.667 0a.333.333 0 010-.666l.034.004c.042.207.08.416.113.627a.312.312 0 01-.147.035zm-5.334 0a.333.333 0 110-.666.333.333 0 010 .666zm-2.666 0a.333.333 0 110-.666.333.333 0 010 .666zm-6.667 0V21a.333.333 0 010 .666zm13.333 0a.333.333 0 110-.666.333.333 0 010 .666zm-9.333 0A.333.333 0 115 21a.333.333 0 010 .666zm8 0A.333.333 0 1113 21a.333.333 0 010 .666zm-9.333 0a.333.333 0 110-.666.333.333 0 010 .666zm-1.334 0a.333.333 0 110-.666.333.333 0 010 .666zm4 0a.333.333 0 110-.666.333.333 0 010 .666zm5.334 0a.333.333 0 110-.666.333.333 0 010 .666zM13 23a.333.333 0 110-.666.333.333 0 010 .666zM1 23v-.666A.333.333 0 011 23zm5.333 0a.333.333 0 110-.666.333.333 0 010 .666zm1.334 0a.333.333 0 110-.666.333.333 0 010 .666zm6.666 0a.333.333 0 110-.666.333.333 0 010 .666zm1.334 0a.333.333 0 11.255-.547c.012.127.023.253.033.38a.331.331 0 01-.288.168zm-12 0a.333.333 0 110-.666.333.333 0 010 .666zm-1.334 0a.333.333 0 110-.666.333.333 0 010 .666zM5 23a.333.333 0 110-.666A.333.333 0 015 23zm4 0a.333.333 0 110-.666A.333.333 0 019 23zm1.333 0a.333.333 0 110-.666.333.333 0 010 .666zm1.334 0a.333.333 0 110-.666.333.333 0 010 .666zM13 24.334a.333.333 0 110-.667.333.333 0 010 .666zm-4 0a.333.333 0 110-.667.333.333 0 010 .666zm5.333 0a.333.333 0 110-.667.333.333 0 010 .666zm-6.666 0a.333.333 0 110-.667.333.333 0 010 .666zm-1.334 0a.333.333 0 110-.667.333.333 0 010 .666zm9.334 0a.333.333 0 110-.667.333.333 0 010 .666zM5 24.334a.333.333 0 110-.667.333.333 0 010 .666zm-1.333 0a.333.333 0 110-.667.333.333 0 010 .666zm8 0a.333.333 0 110-.667.333.333 0 010 .666zm-9.334 0a.333.333 0 110-.667.333.333 0 010 .666zm8 0a.333.333 0 110-.667.333.333 0 010 .666zm-9.333 0v-.667a.333.333 0 010 .666zm13.333 1.332a.333.333 0 110-.666.333.333 0 010 .666zm-4 0a.333.333 0 110-.666.333.333 0 010 .666zm-5.333 0A.333.333 0 115 25a.333.333 0 010 .666zm2.667 0a.333.333 0 110-.666.333.333 0 010 .666zm5.333 0A.333.333 0 1113 25a.333.333 0 010 .666zm-12 0V25a.333.333 0 010 .666zm8 0A.333.333 0 119 25a.333.333 0 010 .666zm6.667 0a.333.333 0 11.288-.5c-.01.128-.02.255-.034.381a.33.33 0 01-.254.12zm-12 0a.333.333 0 110-.666.333.333 0 010 .666zm-1.334 0a.333.333 0 110-.666.333.333 0 010 .666zm9.334 0a.333.333 0 110-.666.333.333 0 010 .666zm-5.334 0a.333.333 0 110-.666.333.333 0 010 .666zM5 27a.333.333 0 110-.666A.333.333 0 015 27zm-1.333 0a.333.333 0 110-.666.333.333 0 010 .666zm8 0a.333.333 0 110-.666.333.333 0 010 .666zM1 27v-.666A.333.333 0 011 27zm13.333 0a.333.333 0 110-.666.333.333 0 010 .666zM9 27a.333.333 0 110-.666A.333.333 0 019 27zm1.333 0a.333.333 0 110-.666.333.333 0 010 .666zm5.334 0a.333.333 0 11.147-.632c-.034.213-.072.422-.114.63l-.033.002zm-8 0a.333.333 0 110-.666.333.333 0 010 .666zm-1.334 0a.333.333 0 110-.666.333.333 0 010 .666zm-4 0a.333.333 0 110-.666.333.333 0 010 .666zM13 27a.333.333 0 110-.666.333.333 0 010 .666zm0 1.334a.333.333 0 110-.667.333.333 0 010 .666zm-9.333 0a.333.333 0 110-.667.333.333 0 010 .666zm6.666 0a.333.333 0 110-.667.333.333 0 010 .666zm-1.333 0a.333.333 0 110-.667.333.333 0 010 .666zm-8 0v-.667a.333.333 0 010 .666zm10.667 0a.333.333 0 110-.667.333.333 0 010 .666zm-5.334 0a.333.333 0 110-.667.333.333 0 010 .666zm-1.333 0a.333.333 0 110-.667.333.333 0 010 .666zm9.333 0a.333.333 0 110-.667.333.333 0 010 .666zm-6.666 0a.333.333 0 110-.667.333.333 0 010 .666zm-5.334 0a.333.333 0 110-.667.333.333 0 010 .666zm13-.334c0-.14.087-.26.21-.31-.044.172-.09.343-.14.512a.32.32 0 01-.07-.202zm-1 1.666a.333.333 0 110-.666.333.333 0 010 .666zm-4 0a.333.333 0 110-.666.333.333 0 010 .666zm-6.666 0a.333.333 0 110-.666.333.333 0 010 .666zm9.333 0A.333.333 0 1113 29a.333.333 0 010 .666zm-12 0V29a.333.333 0 010 .666zm10.667 0a.333.333 0 110-.666.333.333 0 010 .666zm-4 0a.333.333 0 110-.666.333.333 0 010 .666zm1.333 0A.333.333 0 119 29a.333.333 0 010 .666zm-4 0A.333.333 0 115 29a.333.333 0 010 .666zm-2.667 0a.333.333 0 110-.666.333.333 0 010 .666zm4 0a.333.333 0 110-.666.333.333 0 010 .666zM13 31a.333.333 0 110-.666.333.333 0 010 .666zm1.273-.005l.06.005a.333.333 0 11.226-.578c-.091.194-.187.385-.286.573zM6.333 31a.333.333 0 110-.666.333.333 0 010 .666zm-2.666 0a.333.333 0 110-.666.333.333 0 010 .666zM9 31a.333.333 0 110-.666A.333.333 0 019 31zm-6.667 0a.333.333 0 110-.666.333.333 0 010 .666zm8 0a.333.333 0 110-.666.333.333 0 010 .666zM1 31v-.666A.333.333 0 011 31zm4 0a.333.333 0 110-.666A.333.333 0 015 31zm2.667 0a.333.333 0 110-.666.333.333 0 010 .666zm4 0a.333.333 0 110-.666.333.333 0 010 .666zm-8 1.334a.333.333 0 110-.667.333.333 0 010 .666zm6.666 0a.333.333 0 110-.667.333.333 0 010 .666zm-4 0a.333.333 0 110-.667.333.333 0 010 .666zm2.667 0a.333.333 0 110-.667.333.333 0 010 .666zm-1.333 0a.333.333 0 110-.667.333.333 0 010 .666zm-6.667 0v-.667a.333.333 0 010 .666zm12 0a.333.333 0 110-.667.333.333 0 010 .666zm-1.333 0a.333.333 0 110-.667.333.333 0 010 .666zm-9.334 0a.333.333 0 110-.667.333.333 0 010 .666zm2.667 0a.333.333 0 110-.667.333.333 0 010 .666zm0 1.332A.333.333 0 115 33a.333.333 0 010 .666zm5.333 0a.333.333 0 110-.666.333.333 0 010 .666zm-9.333 0V33a.333.333 0 010 .666zm11.667-.333c0-.184.149-.333.333-.333-.104.14-.212.279-.322.415a.298.298 0 01-.011-.082zm-10.334.334a.333.333 0 110-.667.333.333 0 010 .666zm9.334 0a.333.333 0 110-.667.333.333 0 010 .666zm-8 0a.333.333 0 110-.667.333.333 0 010 .666zm5.333 0A.333.333 0 119 33a.333.333 0 010 .666zm-1.333 0a.333.333 0 110-.667.333.333 0 010 .666zm-1.334 0a.333.333 0 110-.667.333.333 0 010 .666zm4 1.334a.333.333 0 110-.667.333.333 0 010 .666zm1-.334a.333.333 0 01.497-.29c-.147.155-.298.306-.452.453a.308.308 0 01-.045-.163zM9 35.001a.333.333 0 110-.667A.333.333 0 019 35zm-1.333 0a.333.333 0 110-.667.333.333 0 010 .666zm-5.334 0a.333.333 0 110-.667.333.333 0 010 .666zm4 0a.333.333 0 110-.667.333.333 0 010 .666zM5 35a.333.333 0 110-.667A.333.333 0 015 35zm-4 0v-.667A.333.333 0 011 35zm2.667 0a.333.333 0 110-.667.333.333 0 010 .666zM1 36.334v-.667a.333.333 0 010 .666zm2.667 0a.333.333 0 110-.667.333.333 0 010 .666zm4 0a.333.333 0 110-.667.333.333 0 010 .666zm-5.334 0a.333.333 0 110-.667.333.333 0 010 .666zm4 0a.333.333 0 110-.667.333.333 0 010 .666zm-1.333 0a.333.333 0 110-.667.333.333 0 010 .666zm4 0a.333.333 0 110-.667.333.333 0 010 .666zM10 36a.333.333 0 01.416-.323c-.137.111-.276.219-.416.324zm-7.667 1.666a.333.333 0 110-.666.333.333 0 010 .666zm5-.333a.333.333 0 01.662-.06c-.189.1-.38.195-.572.286a.328.328 0 01-.09-.226zm-1 .334a.333.333 0 110-.667.333.333 0 010 .666zm-1.333 0A.333.333 0 115 37a.333.333 0 010 .666zm-1.333 0a.333.333 0 110-.667.333.333 0 010 .666zm-2.667 0V37a.333.333 0 010 .666zm4 .667a.33.33 0 01.202.068c-.17.05-.34.097-.511.14A.334.334 0 015 38.335zm-1.667.333a.333.333 0 11.667 0l-.004.034c-.207.042-.417.08-.628.113a.318.318 0 01-.035-.147zm-1.333 0a.333.333 0 11.548.255c-.127.012-.254.024-.381.033A.332.332 0 012 38.667zm-1 .334v-.667A.333.333 0 011 39z" fill="#A6A6A6"/><path fill-rule="evenodd" clip-rule="evenodd" d="M1.825 52a6.057 6.057 0 00-.002-12H1v.945a5.056 5.056 0 110 10.11V52h.825zM1 39c5.523 0 10-4.477 10-10S6.523 19 1 19v20z" fill="#fff"/><defs><linearGradient id="paint0_linear" x1="39.434" y1="33.792" x2="24.709" y2="55.929" gradientUnits="userSpaceOnUse"><stop stop-color="#FF3D00"/><stop offset="1" stop-color="#77178E"/></linearGradient><linearGradient id="paint1_linear" x1="32.788" y1="29.549" x2="24.866" y2="42.41" gradientUnits="userSpaceOnUse"><stop stop-color="#FF3D00"/><stop offset="1" stop-color="#77178E"/></linearGradient><linearGradient id="paint2_linear" x1="43.177" y1="32.882" x2="33.002" y2="46.648" gradientUnits="userSpaceOnUse"><stop stop-color="#FF3D00"/><stop offset="1" stop-color="#77178E"/></linearGradient><linearGradient id="paint3_linear" x1="47.235" y1="18.267" x2="43.682" y2="27.881" gradientUnits="userSpaceOnUse"><stop stop-color="#FF3D00"/><stop offset="1" stop-color="#77178E"/></linearGradient><linearGradient id="paint4_linear" x1="56.353" y1="21.4" x2="51.023" y2="35.822" gradientUnits="userSpaceOnUse"><stop stop-color="#FF3D00"/><stop offset="1" stop-color="#77178E"/></linearGradient><linearGradient id="paint5_linear" x1="55.118" y1="19.133" x2="53.341" y2="23.941" gradientUnits="userSpaceOnUse"><stop stop-color="#FF3D00"/><stop offset="1" stop-color="#77178E"/></linearGradient></defs></svg>