<svg width="201" height="58" fill="none" xmlns="http://www.w3.org/2000/svg"><path d="M109.831.709H0v56.426h109.831V.709z" fill="#E51F1F"/><path d="M12.312 13.431H25.54c6.951 0 11.02 3.813 11.02 9.662 0 4.983-2.924 7.973-7.078 9.184l8.011 11.483h-6.146L23.97 33.187h-6.443V43.76h-5.216V13.431zm12.844 15.04c3.73 0 6.104-1.997 6.104-5.158 0-3.249-2.29-5.025-6.147-5.025h-7.585V28.47h7.628zm15.559 3.853c0-6.545 4.536-11.917 10.937-11.917 7.12 0 10.724 5.723 10.724 12.305 0 .348-.043 1.214-.085 1.473H45.845c.55 3.727 3.136 5.807 6.442 5.807 2.501 0 4.282-.953 6.062-2.73l3.009 2.73c-2.12 2.601-5.044 4.29-9.156 4.29-6.484 0-11.487-4.809-11.487-11.958zM57.29 30.72c-.34-3.38-2.289-6.024-5.68-6.024-3.137 0-5.338 2.47-5.807 6.024H57.29zm23.949 13.043v-2.818c-1.526 1.863-3.858 3.294-7.248 3.294-4.24 0-7.97-2.47-7.97-7.15 0-5.069 3.858-7.497 9.071-7.497 2.714 0 4.452.39 6.19.953v-.432c0-3.162-1.953-4.897-5.511-4.897-2.5 0-4.366.563-6.4 1.431l-1.399-4.202c2.458-1.126 4.875-1.906 8.52-1.906 6.612 0 9.834 3.554 9.834 9.663v13.563l-5.087-.002zm.13-9.583c-1.315-.519-3.136-.909-5.13-.909-3.22 0-5.128 1.343-5.128 3.639 0 2.167 1.907 3.38 4.324 3.38 3.385 0 5.934-1.95 5.934-4.81v-1.3zm11.357-22.05h5.124v31.633h-5.13l.006-31.632zm41.034 2.32h-10.343v-2.081h22.89v2.08h-10.343v28.252h-2.204V14.449zm11.277 21.75c0-4.593 3.857-7.187 9.452-7.187a25.48 25.48 0 017.16.953v-.953c0-4.463-2.67-6.76-7.12-6.76-2.629 0-4.79.737-6.782 1.777l-.763-1.863c2.374-1.127 4.705-1.907 7.671-1.907 2.926 0 5.257.824 6.825 2.428 1.441 1.472 2.204 3.51 2.204 6.239v13.779h-2.035v-3.684c-1.483 2.13-4.153 4.204-8.264 4.204-4.025-.005-8.348-2.346-8.348-7.026zm16.664-1.776V31.91a28.078 28.078 0 00-7.333-.997c-4.578 0-7.121 2.08-7.121 5.244 0 3.206 2.967 5.07 6.273 5.07 4.402 0 8.175-2.774 8.175-6.804h.006zm9.744-23.355h2.083V42.7h-2.083V11.069zm10.257 0h2.083V34.77l13.394-14.169h2.755l-9.452 9.793 9.749 12.306h-2.629l-8.561-10.79-5.256 5.417V42.7h-2.083V11.069z" fill="#fff"/></svg>