<svg width="92" height="110" viewBox="0 0 92 110" fill="none" xmlns="http://www.w3.org/2000/svg">
<rect x="1" y="1" width="90" height="108" fill="#E6DEFF"/>
<path fill-rule="evenodd" clip-rule="evenodd" d="M91 54.9251L91 34.3438C89.9295 34.4585 88.8423 34.5173 87.7414 34.5173C71.03 34.5173 57.4827 20.97 57.4827 4.25865C57.4827 3.15771 57.5415 2.0705 57.6562 0.999999L37.0749 0.999998C37.0255 1.91815 37.0004 2.84274 37 3.77312C37 3.77978 37 3.78644 37 3.7931C37 3.79976 37 3.80642 37 3.81308C37.0108 32.078 59.922 54.9892 88.1869 55C88.1936 55 88.2002 55 88.2069 55C88.2136 55 88.2202 55 88.2269 55C89.1573 54.9996 90.0818 54.9745 91 54.9251Z" fill="#5119FF"/>
<rect x="16" y="55" width="29" height="35" rx="2" transform="rotate(-90 16 55)" fill="#26296F"/>
<path d="M16 29.3145L16 28.0002C16 26.8956 16.8954 26.0002 18 26.0002L49 26.0002C50.1046 26.0002 51 26.8956 51 28.0002L51 29.3145L16 29.3145Z" fill="#9093D7"/>
<rect x="19.8889" y="43.3999" width="17.1111" height="1.65714" fill="#EBDDFF"/>
<rect x="19.8889" y="45.8857" width="17.1111" height="1.65714" fill="#EBDDFF"/>
<rect x="19.8889" y="48.3711" width="17.1111" height="1.65714" fill="#EBDDFF"/>
<rect x="29.2222" y="35.1143" width="7.77778" height="6.62857" fill="#EBDDFF"/>
<rect x="19.8889" y="35.1143" width="7.77778" height="6.62857" fill="#EBDDFF"/>
<rect x="38.5557" y="35.1143" width="8.55555" height="14.9143" fill="#EBDDFF"/>
<circle cx="18.5" cy="28" r="0.5" fill="#26296F"/>
<circle cx="20.5" cy="28" r="0.5" fill="#26296F"/>
<circle cx="22.5" cy="28" r="0.5" fill="#26296F"/>
<g filter="url(#filter0_d)">
<path fill-rule="evenodd" clip-rule="evenodd" d="M25.2581 46.3226H26.7097L22.3549 41L18 46.3226H19.4516V56H25.2581V46.3226Z" fill="url(#paint0_linear)"/>
</g>
<g filter="url(#filter1_d)">
<path fill-rule="evenodd" clip-rule="evenodd" d="M58.0968 35.871H60.5161L53.2581 27L46 35.871H48.4194V52H58.0968V35.871Z" fill="url(#paint1_linear)"/>
</g>
<g filter="url(#filter2_d)">
<path fill-rule="evenodd" clip-rule="evenodd" d="M49.9032 43.7957H51.4839L46.7419 38L42 43.7957H43.5807V54.3333H49.9032V43.7957Z" fill="url(#paint2_linear)"/>
</g>
<mask id="mask0" mask-type="alpha" maskUnits="userSpaceOnUse" x="1" y="62" width="90" height="47">
<rect x="91" y="109" width="90" height="47" transform="rotate(-180 91 109)" fill="#C4C4C4"/>
</mask>
<g mask="url(#mask0)">
<rect x="91" y="154" width="90" height="90" rx="45" transform="rotate(-180 91 154)" stroke="white"/>
<rect x="67.8572" y="130.857" width="43.7143" height="43.7143" rx="21.8571" transform="rotate(-180 67.8572 130.857)" fill="white"/>
<rect x="52.4287" y="115.429" width="12.8571" height="12.8571" rx="6.42857" transform="rotate(-180 52.4287 115.429)" fill="#26296F"/>
</g>
<rect x="1" y="1" width="90" height="108" stroke="white"/>
<path fill-rule="evenodd" clip-rule="evenodd" d="M89.6 25.9999C89.9314 25.9999 90.2 26.2685 90.2 26.5999C90.2 26.8686 90.0234 27.096 89.7799 27.1725C89.6417 27.1667 89.504 27.1595 89.3665 27.1513C89.1506 27.061 89 26.848 89 26.5999C89 26.2685 89.2686 25.9999 89.6 25.9999ZM87.2 25.9999C87.5314 25.9999 87.8 26.2685 87.8 26.5999C87.8 26.7509 87.7442 26.8889 87.6521 26.9944C87.3175 26.953 86.9859 26.9056 86.6563 26.8523C86.62 26.7763 86.6 26.6904 86.6 26.5999C86.6 26.2685 86.8686 25.9999 87.2 25.9999ZM84.8 25.9999C85.1314 25.9999 85.4 26.2685 85.4 26.5999L85.3988 26.6182C85.0145 26.5371 84.6331 26.4478 84.255 26.3506C84.3495 26.1431 84.558 25.9999 84.8 25.9999ZM80 23.6C80.3314 23.6 80.6 23.8686 80.6 24.2C80.6 24.5314 80.3314 24.8 80 24.8C79.6686 24.8 79.4 24.5314 79.4 24.2C79.4 23.8686 79.6686 23.6 80 23.6ZM82.4 23.6C82.7314 23.6 83 23.8686 83 24.2C83 24.5314 82.7314 24.8 82.4 24.8C82.0686 24.8 81.8 24.5314 81.8 24.2C81.8 23.8686 82.0686 23.6 82.4 23.6ZM84.8 23.6C85.1314 23.6 85.4 23.8686 85.4 24.2C85.4 24.5314 85.1314 24.8 84.8 24.8C84.4686 24.8 84.2 24.5314 84.2 24.2C84.2 23.8686 84.4686 23.6 84.8 23.6ZM87.2 23.6C87.5314 23.6 87.8 23.8686 87.8 24.2C87.8 24.5314 87.5314 24.8 87.2 24.8C86.8686 24.8 86.6 24.5314 86.6 24.2C86.6 23.8686 86.8686 23.6 87.2 23.6ZM89.6 23.6C89.9314 23.6 90.2 23.8686 90.2 24.2C90.2 24.5314 89.9314 24.8 89.6 24.8C89.2686 24.8 89 24.5314 89 24.2C89 23.8686 89.2686 23.6 89.6 23.6ZM77.6 23.6C77.8404 23.6 78.0478 23.7414 78.1436 23.9456C77.9369 23.8363 77.7334 23.7224 77.5316 23.606L77.6 23.6ZM77.6 21.1998C77.9314 21.1998 78.2 21.4684 78.2 21.7998C78.2 22.1312 77.9314 22.3998 77.6 22.3998C77.2686 22.3998 77 22.1312 77 21.7998C77 21.4684 77.2686 21.1998 77.6 21.1998ZM80 21.1998C80.3314 21.1998 80.6 21.4684 80.6 21.7998C80.6 22.1312 80.3314 22.3998 80 22.3998C79.6686 22.3998 79.4 22.1312 79.4 21.7998C79.4 21.4684 79.6686 21.1998 80 21.1998ZM82.4 21.1998C82.7314 21.1998 83 21.4684 83 21.7998C83 22.1312 82.7314 22.3998 82.4 22.3998C82.0686 22.3998 81.8 22.1312 81.8 21.7998C81.8 21.4684 82.0686 21.1998 82.4 21.1998ZM84.8 21.1998C85.1314 21.1998 85.4 21.4684 85.4 21.7998C85.4 22.1312 85.1314 22.3998 84.8 22.3998C84.4686 22.3998 84.2 22.1312 84.2 21.7998C84.2 21.4684 84.4686 21.1998 84.8 21.1998ZM87.2 21.1998C87.5314 21.1998 87.8 21.4684 87.8 21.7998C87.8 22.1312 87.5314 22.3998 87.2 22.3998C86.8686 22.3998 86.6 22.1312 86.6 21.7998C86.6 21.4684 86.8686 21.1998 87.2 21.1998ZM89.6 21.1998C89.9314 21.1998 90.2 21.4684 90.2 21.7998C90.2 22.1312 89.9314 22.3998 89.6 22.3998C89.2686 22.3998 89 22.1312 89 21.7998C89 21.4684 89.2686 21.1998 89.6 21.1998ZM75.2 21.1998C75.5314 21.1998 75.8 21.4684 75.8 21.7998C75.8 22.0188 75.6827 22.2103 75.5075 22.3151C75.2049 22.1032 74.9085 21.8861 74.6168 21.6631C74.6784 21.3969 74.9162 21.1998 75.2 21.1998ZM72.8 18.7999C73.1314 18.7999 73.4 19.0685 73.4 19.3999C73.4 19.7313 73.1314 19.9999 72.8 19.9999C72.7344 19.9999 72.6714 19.9894 72.6123 19.97C72.4879 19.8553 72.365 19.7388 72.2432 19.6211C72.215 19.5528 72.2 19.4781 72.2 19.3999C72.2 19.0685 72.4686 18.7999 72.8 18.7999ZM75.2 18.7999C75.5314 18.7999 75.8 19.0685 75.8 19.3999C75.8 19.7313 75.5314 19.9999 75.2 19.9999C74.8686 19.9999 74.6 19.7313 74.6 19.3999C74.6 19.0685 74.8686 18.7999 75.2 18.7999ZM77.6 18.7999C77.9314 18.7999 78.2 19.0685 78.2 19.3999C78.2 19.7313 77.9314 19.9999 77.6 19.9999C77.2686 19.9999 77 19.7313 77 19.3999C77 19.0685 77.2686 18.7999 77.6 18.7999ZM80 18.7999C80.3314 18.7999 80.6 19.0685 80.6 19.3999C80.6 19.7313 80.3314 19.9999 80 19.9999C79.6686 19.9999 79.4 19.7313 79.4 19.3999C79.4 19.0685 79.6686 18.7999 80 18.7999ZM82.4 18.7999C82.7314 18.7999 83 19.0685 83 19.3999C83 19.7313 82.7314 19.9999 82.4 19.9999C82.0686 19.9999 81.8 19.7313 81.8 19.3999C81.8 19.0685 82.0686 18.7999 82.4 18.7999ZM84.8 18.7999C85.1314 18.7999 85.4 19.0685 85.4 19.3999C85.4 19.7313 85.1314 19.9999 84.8 19.9999C84.4686 19.9999 84.2 19.7313 84.2 19.3999C84.2 19.0685 84.4686 18.7999 84.8 18.7999ZM87.2 18.7999C87.5314 18.7999 87.8 19.0685 87.8 19.3999C87.8 19.7313 87.5314 19.9999 87.2 19.9999C86.8686 19.9999 86.6 19.7313 86.6 19.3999C86.6 19.0685 86.8686 18.7999 87.2 18.7999ZM89.6 18.7999C89.9314 18.7999 90.2 19.0685 90.2 19.3999C90.2 19.7313 89.9314 19.9999 89.6 19.9999C89.2686 19.9999 89 19.7313 89 19.3999C89 19.0685 89.2686 18.7999 89.6 18.7999ZM72.8 16.3999C73.1314 16.3999 73.4 16.6685 73.4 16.9999C73.4 17.3313 73.1314 17.5999 72.8 17.5999C72.4686 17.5999 72.2 17.3313 72.2 16.9999C72.2 16.6685 72.4686 16.3999 72.8 16.3999ZM77.6 16.3999C77.9314 16.3999 78.2 16.6685 78.2 16.9999C78.2 17.3313 77.9314 17.5999 77.6 17.5999C77.2686 17.5999 77 17.3313 77 16.9999C77 16.6685 77.2686 16.3999 77.6 16.3999ZM70.4 16.3999C70.7314 16.3999 71 16.6685 71 16.9999C71 17.3313 70.7314 17.5999 70.4 17.5999L70.3502 17.5958C70.1651 17.3763 69.9835 17.1539 69.8054 16.9286L69.8 16.9999C69.8 16.6685 70.0686 16.3999 70.4 16.3999ZM89.6 16.3999C89.9314 16.3999 90.2 16.6685 90.2 16.9999C90.2 17.3313 89.9314 17.5999 89.6 17.5999C89.2686 17.5999 89 17.3313 89 16.9999C89 16.6685 89.2686 16.3999 89.6 16.3999ZM80 16.3999C80.3314 16.3999 80.6 16.6685 80.6 16.9999C80.6 17.3313 80.3314 17.5999 80 17.5999C79.6686 17.5999 79.4 17.3313 79.4 16.9999C79.4 16.6685 79.6686 16.3999 80 16.3999ZM82.4 16.3999C82.7314 16.3999 83 16.6685 83 16.9999C83 17.3313 82.7314 17.5999 82.4 17.5999C82.0686 17.5999 81.8 17.3313 81.8 16.9999C81.8 16.6685 82.0686 16.3999 82.4 16.3999ZM84.8 16.3999C85.1314 16.3999 85.4 16.6685 85.4 16.9999C85.4 17.3313 85.1314 17.5999 84.8 17.5999C84.4686 17.5999 84.2 17.3313 84.2 16.9999C84.2 16.6685 84.4686 16.3999 84.8 16.3999ZM87.2 16.3999C87.5314 16.3999 87.8 16.6685 87.8 16.9999C87.8 17.3313 87.5314 17.5999 87.2 17.5999C86.8686 17.5999 86.6 17.3313 86.6 16.9999C86.6 16.6685 86.8686 16.3999 87.2 16.3999ZM75.2 16.3999C75.5314 16.3999 75.8 16.6685 75.8 16.9999C75.8 17.3313 75.5314 17.5999 75.2 17.5999C74.8686 17.5999 74.6 17.3313 74.6 16.9999C74.6 16.6685 74.8686 16.3999 75.2 16.3999ZM80 14C80.3314 14 80.6 14.2686 80.6 14.6C80.6 14.9314 80.3314 15.2 80 15.2C79.6686 15.2 79.4 14.9314 79.4 14.6C79.4 14.2686 79.6686 14 80 14ZM70.4 14C70.7314 14 71 14.2686 71 14.6C71 14.9314 70.7314 15.2 70.4 15.2C70.0686 15.2 69.8 14.9314 69.8 14.6C69.8 14.2686 70.0686 14 70.4 14ZM72.8 14C73.1314 14 73.4 14.2686 73.4 14.6C73.4 14.9314 73.1314 15.2 72.8 15.2C72.4686 15.2 72.2 14.9314 72.2 14.6C72.2 14.2686 72.4686 14 72.8 14ZM75.2 14C75.5314 14 75.8 14.2686 75.8 14.6C75.8 14.9314 75.5314 15.2 75.2 15.2C74.8686 15.2 74.6 14.9314 74.6 14.6C74.6 14.2686 74.8686 14 75.2 14ZM84.8 14C85.1314 14 85.4 14.2686 85.4 14.6C85.4 14.9314 85.1314 15.2 84.8 15.2C84.4686 15.2 84.2 14.9314 84.2 14.6C84.2 14.2686 84.4686 14 84.8 14ZM87.2 14C87.5314 14 87.8 14.2686 87.8 14.6C87.8 14.9314 87.5314 15.2 87.2 15.2C86.8686 15.2 86.6 14.9314 86.6 14.6C86.6 14.2686 86.8686 14 87.2 14ZM89.6 14C89.9314 14 90.2 14.2686 90.2 14.6C90.2 14.9314 89.9314 15.2 89.6 15.2C89.2686 15.2 89 14.9314 89 14.6C89 14.2686 89.2686 14 89.6 14ZM77.6 14C77.9314 14 78.2 14.2686 78.2 14.6C78.2 14.9314 77.9314 15.2 77.6 15.2C77.2686 15.2 77 14.9314 77 14.6C77 14.2686 77.2686 14 77.6 14ZM82.4 14C82.7314 14 83 14.2686 83 14.6C83 14.9314 82.7314 15.2 82.4 15.2C82.0686 15.2 81.8 14.9314 81.8 14.6C81.8 14.2686 82.0686 14 82.4 14ZM68 14C68.3314 14 68.6 14.2686 68.6 14.6C68.6 14.7638 68.5344 14.9123 68.428 15.0205C68.2139 14.6957 68.007 14.366 67.8072 14.0316C67.8677 14.0111 67.9326 14 68 14ZM68 11.6C68.3314 11.6 68.6 11.8686 68.6 12.2C68.6 12.5314 68.3314 12.8 68 12.8C67.6686 12.8 67.4 12.5314 67.4 12.2C67.4 11.8686 67.6686 11.6 68 11.6ZM77.6 11.6C77.9314 11.6 78.2 11.8686 78.2 12.2C78.2 12.5314 77.9314 12.8 77.6 12.8C77.2686 12.8 77 12.5314 77 12.2C77 11.8686 77.2686 11.6 77.6 11.6ZM80 11.6C80.3314 11.6 80.6 11.8686 80.6 12.2C80.6 12.5314 80.3314 12.8 80 12.8C79.6686 12.8 79.4 12.5314 79.4 12.2C79.4 11.8686 79.6686 11.6 80 11.6ZM89.6 11.6C89.9314 11.6 90.2 11.8686 90.2 12.2C90.2 12.5314 89.9314 12.8 89.6 12.8C89.2686 12.8 89 12.5314 89 12.2C89 11.8686 89.2686 11.6 89.6 11.6ZM82.4 11.6C82.7314 11.6 83 11.8686 83 12.2C83 12.5314 82.7314 12.8 82.4 12.8C82.0686 12.8 81.8 12.5314 81.8 12.2C81.8 11.8686 82.0686 11.6 82.4 11.6ZM84.8 11.6C85.1314 11.6 85.4 11.8686 85.4 12.2C85.4 12.5314 85.1314 12.8 84.8 12.8C84.4686 12.8 84.2 12.5314 84.2 12.2C84.2 11.8686 84.4686 11.6 84.8 11.6ZM72.8 11.6C73.1314 11.6 73.4 11.8686 73.4 12.2C73.4 12.5314 73.1314 12.8 72.8 12.8C72.4686 12.8 72.2 12.5314 72.2 12.2C72.2 11.8686 72.4686 11.6 72.8 11.6ZM75.2 11.6C75.5314 11.6 75.8 11.8686 75.8 12.2C75.8 12.5314 75.5314 12.8 75.2 12.8C74.8686 12.8 74.6 12.5314 74.6 12.2C74.6 11.8686 74.8686 11.6 75.2 11.6ZM87.2 11.6C87.5314 11.6 87.8 11.8686 87.8 12.2C87.8 12.5314 87.5314 12.8 87.2 12.8C86.8686 12.8 86.6 12.5314 86.6 12.2C86.6 11.8686 86.8686 11.6 87.2 11.6ZM70.4 11.6C70.7314 11.6 71 11.8686 71 12.2C71 12.5314 70.7314 12.8 70.4 12.8C70.0686 12.8 69.8 12.5314 69.8 12.2C69.8 11.8686 70.0686 11.6 70.4 11.6ZM68 9.1998C68.3314 9.1998 68.6 9.46843 68.6 9.7998C68.6 10.1312 68.3314 10.3998 68 10.3998C67.6686 10.3998 67.4 10.1312 67.4 9.7998C67.4 9.46843 67.6686 9.1998 68 9.1998ZM87.2 9.1998C87.5314 9.1998 87.8 9.46843 87.8 9.7998C87.8 10.1312 87.5314 10.3998 87.2 10.3998C86.8686 10.3998 86.6 10.1312 86.6 9.7998C86.6 9.46843 86.8686 9.1998 87.2 9.1998ZM70.4 9.1998C70.7314 9.1998 71 9.46843 71 9.7998C71 10.1312 70.7314 10.3998 70.4 10.3998C70.0686 10.3998 69.8 10.1312 69.8 9.7998C69.8 9.46843 70.0686 9.1998 70.4 9.1998ZM77.6 9.1998C77.9314 9.1998 78.2 9.46843 78.2 9.7998C78.2 10.1312 77.9314 10.3998 77.6 10.3998C77.2686 10.3998 77 10.1312 77 9.7998C77 9.46843 77.2686 9.1998 77.6 9.1998ZM80 9.1998C80.3314 9.1998 80.6 9.46843 80.6 9.7998C80.6 10.1312 80.3314 10.3998 80 10.3998C79.6686 10.3998 79.4 10.1312 79.4 9.7998C79.4 9.46843 79.6686 9.1998 80 9.1998ZM89.6 9.1998C89.9314 9.1998 90.2 9.46843 90.2 9.7998C90.2 10.1312 89.9314 10.3998 89.6 10.3998C89.2686 10.3998 89 10.1312 89 9.7998C89 9.46843 89.2686 9.1998 89.6 9.1998ZM82.4 9.1998C82.7314 9.1998 83 9.46843 83 9.7998C83 10.1312 82.7314 10.3998 82.4 10.3998C82.0686 10.3998 81.8 10.1312 81.8 9.7998C81.8 9.46843 82.0686 9.1998 82.4 9.1998ZM84.8 9.1998C85.1314 9.1998 85.4 9.46843 85.4 9.7998C85.4 10.1312 85.1314 10.3998 84.8 10.3998C84.4686 10.3998 84.2 10.1312 84.2 9.7998C84.2 9.46843 84.4686 9.1998 84.8 9.1998ZM72.8 9.1998C73.1314 9.1998 73.4 9.46843 73.4 9.7998C73.4 10.1312 73.1314 10.3998 72.8 10.3998C72.4686 10.3998 72.2 10.1312 72.2 9.7998C72.2 9.46843 72.4686 9.1998 72.8 9.1998ZM75.2 9.1998C75.5314 9.1998 75.8 9.46843 75.8 9.7998C75.8 10.1312 75.5314 10.3998 75.2 10.3998C74.8686 10.3998 74.6 10.1312 74.6 9.7998C74.6 9.46843 74.8686 9.1998 75.2 9.1998ZM65.6 9.1998C65.9314 9.1998 66.2 9.46843 66.2 9.7998C66.2 10.0016 66.1004 10.1801 65.9477 10.2888C65.8038 9.93102 65.6672 9.5698 65.5381 9.20498L65.6 9.1998ZM65.6 6.7999C65.9314 6.7999 66.2 7.06853 66.2 7.3999C66.2 7.73127 65.9314 7.9999 65.6 7.9999C65.2686 7.9999 65 7.73127 65 7.3999C65 7.06853 65.2686 6.7999 65.6 6.7999ZM87.2 6.7999C87.5314 6.7999 87.8 7.06853 87.8 7.3999C87.8 7.73127 87.5314 7.9999 87.2 7.9999C86.8686 7.9999 86.6 7.73127 86.6 7.3999C86.6 7.06853 86.8686 6.7999 87.2 6.7999ZM70.4 6.7999C70.7314 6.7999 71 7.06853 71 7.3999C71 7.73127 70.7314 7.9999 70.4 7.9999C70.0686 7.9999 69.8 7.73127 69.8 7.3999C69.8 7.06853 70.0686 6.7999 70.4 6.7999ZM77.6 6.7999C77.9314 6.7999 78.2 7.06853 78.2 7.3999C78.2 7.73127 77.9314 7.9999 77.6 7.9999C77.2686 7.9999 77 7.73127 77 7.3999C77 7.06853 77.2686 6.7999 77.6 6.7999ZM80 6.7999C80.3314 6.7999 80.6 7.06853 80.6 7.3999C80.6 7.73127 80.3314 7.9999 80 7.9999C79.6686 7.9999 79.4 7.73127 79.4 7.3999C79.4 7.06853 79.6686 6.7999 80 6.7999ZM89.6 6.7999C89.9314 6.7999 90.2 7.06853 90.2 7.3999C90.2 7.73127 89.9314 7.9999 89.6 7.9999C89.2686 7.9999 89 7.73127 89 7.3999C89 7.06853 89.2686 6.7999 89.6 6.7999ZM82.4 6.7999C82.7314 6.7999 83 7.06853 83 7.3999C83 7.73127 82.7314 7.9999 82.4 7.9999C82.0686 7.9999 81.8 7.73127 81.8 7.3999C81.8 7.06853 82.0686 6.7999 82.4 6.7999ZM84.8 6.7999C85.1314 6.7999 85.4 7.06853 85.4 7.3999C85.4 7.73127 85.1314 7.9999 84.8 7.9999C84.4686 7.9999 84.2 7.73127 84.2 7.3999C84.2 7.06853 84.4686 6.7999 84.8 6.7999ZM72.8 6.7999C73.1314 6.7999 73.4 7.06853 73.4 7.3999C73.4 7.73127 73.1314 7.9999 72.8 7.9999C72.4686 7.9999 72.2 7.73127 72.2 7.3999C72.2 7.06853 72.4686 6.7999 72.8 6.7999ZM75.2 6.7999C75.5314 6.7999 75.8 7.06853 75.8 7.3999C75.8 7.73127 75.5314 7.9999 75.2 7.9999C74.8686 7.9999 74.6 7.73127 74.6 7.3999C74.6 7.06853 74.8686 6.7999 75.2 6.7999ZM68 6.7999C68.3314 6.7999 68.6 7.06853 68.6 7.3999C68.6 7.73127 68.3314 7.9999 68 7.9999C67.6686 7.9999 67.4 7.73127 67.4 7.3999C67.4 7.06853 67.6686 6.7999 68 6.7999ZM84.8 4.4C85.1314 4.4 85.4 4.66863 85.4 5C85.4 5.33137 85.1314 5.6 84.8 5.6C84.4686 5.6 84.2 5.33137 84.2 5C84.2 4.66863 84.4686 4.4 84.8 4.4ZM75.2 4.4C75.5314 4.4 75.8 4.66863 75.8 5C75.8 5.33137 75.5314 5.6 75.2 5.6C74.8686 5.6 74.6 5.33137 74.6 5C74.6 4.66863 74.8686 4.4 75.2 4.4ZM89.6 4.4C89.9314 4.4 90.2 4.66863 90.2 5C90.2 5.33137 89.9314 5.6 89.6 5.6C89.2686 5.6 89 5.33137 89 5C89 4.66863 89.2686 4.4 89.6 4.4ZM72.8 4.4C73.1314 4.4 73.4 4.66863 73.4 5C73.4 5.33137 73.1314 5.6 72.8 5.6C72.4686 5.6 72.2 5.33137 72.2 5C72.2 4.66863 72.4686 4.4 72.8 4.4ZM77.6 4.4C77.9314 4.4 78.2 4.66863 78.2 5C78.2 5.33137 77.9314 5.6 77.6 5.6C77.2686 5.6 77 5.33137 77 5C77 4.66863 77.2686 4.4 77.6 4.4ZM82.4 4.4C82.7314 4.4 83 4.66863 83 5C83 5.33137 82.7314 5.6 82.4 5.6C82.0686 5.6 81.8 5.33137 81.8 5C81.8 4.66863 82.0686 4.4 82.4 4.4ZM65.6 4.4C65.9314 4.4 66.2 4.66863 66.2 5C66.2 5.33137 65.9314 5.6 65.6 5.6C65.2686 5.6 65 5.33137 65 5C65 4.66863 65.2686 4.4 65.6 4.4ZM68 4.4C68.3314 4.4 68.6 4.66863 68.6 5C68.6 5.33137 68.3314 5.6 68 5.6C67.6686 5.6 67.4 5.33137 67.4 5C67.4 4.66863 67.6686 4.4 68 4.4ZM70.4 4.4C70.7314 4.4 71 4.66863 71 5C71 5.33137 70.7314 5.6 70.4 5.6C70.0686 5.6 69.8 5.33137 69.8 5C69.8 4.66863 70.0686 4.4 70.4 4.4ZM87.2 4.4C87.5314 4.4 87.8 4.66863 87.8 5C87.8 5.33137 87.5314 5.6 87.2 5.6C86.8686 5.6 86.6 5.33137 86.6 5C86.6 4.66863 86.8686 4.4 87.2 4.4ZM80 4.4C80.3314 4.4 80.6 4.66863 80.6 5C80.6 5.33137 80.3314 5.6 80 5.6C79.6686 5.6 79.4 5.33137 79.4 5C79.4 4.66863 79.6686 4.4 80 4.4ZM65.6 2C65.9314 2 66.2 2.26863 66.2 2.6C66.2 2.93137 65.9314 3.2 65.6 3.2C65.2686 3.2 65 2.93137 65 2.6C65 2.26863 65.2686 2 65.6 2ZM68 2C68.3314 2 68.6 2.26863 68.6 2.6C68.6 2.93137 68.3314 3.2 68 3.2C67.6686 3.2 67.4 2.93137 67.4 2.6C67.4 2.26863 67.6686 2 68 2ZM70.4 2C70.7314 2 71 2.26863 71 2.6C71 2.93137 70.7314 3.2 70.4 3.2C70.0686 3.2 69.8 2.93137 69.8 2.6C69.8 2.26863 70.0686 2 70.4 2ZM72.8 2C73.1314 2 73.4 2.26863 73.4 2.6C73.4 2.93137 73.1314 3.2 72.8 3.2C72.4686 3.2 72.2 2.93137 72.2 2.6C72.2 2.26863 72.4686 2 72.8 2ZM75.2 2C75.5314 2 75.8 2.26863 75.8 2.6C75.8 2.93137 75.5314 3.2 75.2 3.2C74.8686 3.2 74.6 2.93137 74.6 2.6C74.6 2.26863 74.8686 2 75.2 2ZM77.6 2C77.9314 2 78.2 2.26863 78.2 2.6C78.2 2.93137 77.9314 3.2 77.6 3.2C77.2686 3.2 77 2.93137 77 2.6C77 2.26863 77.2686 2 77.6 2ZM80 2C80.3314 2 80.6 2.26863 80.6 2.6C80.6 2.93137 80.3314 3.2 80 3.2C79.6686 3.2 79.4 2.93137 79.4 2.6C79.4 2.26863 79.6686 2 80 2ZM82.4 2C82.7314 2 83 2.26863 83 2.6C83 2.93137 82.7314 3.2 82.4 3.2C82.0686 3.2 81.8 2.93137 81.8 2.6C81.8 2.26863 82.0686 2 82.4 2ZM84.8 2C85.1314 2 85.4 2.26863 85.4 2.6C85.4 2.93137 85.1314 3.2 84.8 3.2C84.4686 3.2 84.2 2.93137 84.2 2.6C84.2 2.26863 84.4686 2 84.8 2ZM87.2 2C87.5314 2 87.8 2.26863 87.8 2.6C87.8 2.93137 87.5314 3.2 87.2 3.2C86.8686 3.2 86.6 2.93137 86.6 2.6C86.6 2.26863 86.8686 2 87.2 2ZM89.6 2C89.9314 2 90.2 2.26863 90.2 2.6C90.2 2.93137 89.9314 3.2 89.6 3.2C89.2686 3.2 89 2.93137 89 2.6C89 2.26863 89.2686 2 89.6 2Z" fill="#A6A6A6"/>
<defs>
<filter id="filter0_d" x="15" y="39" width="16.7097" height="23" filterUnits="userSpaceOnUse" color-interpolation-filters="sRGB">
<feFlood flood-opacity="0" result="BackgroundImageFix"/>
<feColorMatrix in="SourceAlpha" type="matrix" values="0 0 0 0 0 0 0 0 0 0 0 0 0 0 0 0 0 0 127 0"/>
<feOffset dx="1" dy="2"/>
<feGaussianBlur stdDeviation="2"/>
<feColorMatrix type="matrix" values="0 0 0 0 0.678431 0 0 0 0 0.152941 0 0 0 0 0.337255 0 0 0 0.3 0"/>
<feBlend mode="normal" in2="BackgroundImageFix" result="effect1_dropShadow"/>
<feBlend mode="normal" in="SourceGraphic" in2="effect1_dropShadow" result="shape"/>
</filter>
<filter id="filter1_d" x="43" y="25" width="22.5161" height="33" filterUnits="userSpaceOnUse" color-interpolation-filters="sRGB">
<feFlood flood-opacity="0" result="BackgroundImageFix"/>
<feColorMatrix in="SourceAlpha" type="matrix" values="0 0 0 0 0 0 0 0 0 0 0 0 0 0 0 0 0 0 127 0"/>
<feOffset dx="1" dy="2"/>
<feGaussianBlur stdDeviation="2"/>
<feColorMatrix type="matrix" values="0 0 0 0 0.678431 0 0 0 0 0.152941 0 0 0 0 0.337255 0 0 0 0.3 0"/>
<feBlend mode="normal" in2="BackgroundImageFix" result="effect1_dropShadow"/>
<feBlend mode="normal" in="SourceGraphic" in2="effect1_dropShadow" result="shape"/>
</filter>
<filter id="filter2_d" x="39" y="36" width="17.4839" height="24.3333" filterUnits="userSpaceOnUse" color-interpolation-filters="sRGB">
<feFlood flood-opacity="0" result="BackgroundImageFix"/>
<feColorMatrix in="SourceAlpha" type="matrix" values="0 0 0 0 0 0 0 0 0 0 0 0 0 0 0 0 0 0 127 0"/>
<feOffset dx="1" dy="2"/>
<feGaussianBlur stdDeviation="2"/>
<feColorMatrix type="matrix" values="0 0 0 0 0.678431 0 0 0 0 0.152941 0 0 0 0 0.337255 0 0 0 0.3 0"/>
<feBlend mode="normal" in2="BackgroundImageFix" result="effect1_dropShadow"/>
<feBlend mode="normal" in="SourceGraphic" in2="effect1_dropShadow" result="shape"/>
</filter>
<linearGradient id="paint0_linear" x1="31.5769" y1="34.5" x2="13.0148" y2="63.6641" gradientUnits="userSpaceOnUse">
<stop stop-color="#FF3D00"/>
<stop offset="1" stop-color="#77178E"/>
</linearGradient>
<linearGradient id="paint1_linear" x1="68.6281" y1="16.1667" x2="37.6913" y2="64.7733" gradientUnits="userSpaceOnUse">
<stop stop-color="#FF3D00"/>
<stop offset="1" stop-color="#77178E"/>
</linearGradient>
<linearGradient id="paint2_linear" x1="56.7837" y1="30.9223" x2="36.5718" y2="62.6785" gradientUnits="userSpaceOnUse">
<stop stop-color="#FF3D00"/>
<stop offset="1" stop-color="#77178E"/>
</linearGradient>
</defs>
</svg>
