<svg width="92" height="110" fill="none" xmlns="http://www.w3.org/2000/svg"><path fill="#E6DEFF" d="M1 1h90v108H1z"/><path fill-rule="evenodd" clip-rule="evenodd" d="M91 54.925V34.344a30.58 30.58 0 01-3.259.173c-16.711 0-30.258-13.547-30.258-30.258 0-1.101.059-2.189.173-3.259H37.075A52.03 52.03 0 0037 3.773v.04C37.01 32.078 59.922 54.99 88.187 55h.04c.93 0 1.855-.026 2.773-.075z" fill="#5119FF"/><rect x="16" y="55" width="29" height="35" rx="2" transform="rotate(-90 16 55)" fill="#26296F"/><path d="M16 29.314V28a2 2 0 012-2h31a2 2 0 012 2v1.314H16z" fill="#9093D7"/><path fill="#EBDDFF" d="M19.889 43.4H37v1.657H19.889zm0 2.486H37v1.657H19.889zm0 2.485H37v1.657H19.889zm9.333-13.257H37v6.629h-7.778zm-9.333 0h7.778v6.629h-7.778zm18.667 0h8.556v14.914h-8.556z"/><circle cx="18.5" cy="28" r=".5" fill="#26296F"/><circle cx="20.5" cy="28" r=".5" fill="#26296F"/><circle cx="22.5" cy="28" r=".5" fill="#26296F"/><g filter="url(#filter0_d)"><path fill-rule="evenodd" clip-rule="evenodd" d="M25.258 46.323h1.452L22.355 41 18 46.323h1.452V56h5.806v-9.677z" fill="url(#paint0_linear)"/></g><g filter="url(#filter1_d)"><path fill-rule="evenodd" clip-rule="evenodd" d="M58.097 35.871h2.42L53.257 27 46 35.871h2.42V52h9.677V35.871z" fill="url(#paint1_linear)"/></g><g filter="url(#filter2_d)"><path fill-rule="evenodd" clip-rule="evenodd" d="M49.903 43.796h1.58L46.743 38 42 43.796h1.58v10.537h6.323V43.796z" fill="url(#paint2_linear)"/></g><mask id="a" maskUnits="userSpaceOnUse" x="1" y="62" width="90" height="47"><path transform="rotate(-180 91 109)" fill="#C4C4C4" d="M91 109h90v47H91z"/></mask><g mask="url(#a)"><rect x="91" y="154" width="90" height="90" rx="45" transform="rotate(-180 91 154)" stroke="#fff"/><rect x="67.857" y="130.857" width="43.714" height="43.714" rx="21.857" transform="rotate(-180 67.857 130.857)" fill="#fff"/><rect x="52.429" y="115.429" width="12.857" height="12.857" rx="6.429" transform="rotate(-180 52.429 115.429)" fill="#26296F"/></g><path stroke="#fff" d="M1 1h90v108H1z"/><path fill-rule="evenodd" clip-rule="evenodd" d="M89.6 26a.6.6 0 01.18 1.172 23.479 23.479 0 01-.413-.02A.6.6 0 0189.6 26zm-2.4 0a.6.6 0 01.452.994 27.012 27.012 0 01-.996-.142A.6.6 0 0187.2 26zm-2.4 0a.6.6 0 01.6.6l-.001.018c-.385-.08-.766-.17-1.144-.267A.598.598 0 0184.8 26zM80 23.6a.6.6 0 110 1.2.6.6 0 010-1.2zm2.4 0a.6.6 0 110 1.2.6.6 0 010-1.2zm2.4 0a.6.6 0 110 1.2.6.6 0 010-1.2zm2.4 0a.6.6 0 110 1.2.6.6 0 010-1.2zm2.4 0a.6.6 0 110 1.2.6.6 0 010-1.2zm-12 0a.6.6 0 01.544.346 19.02 19.02 0 01-.612-.34l.068-.006zm0-2.4a.6.6 0 110 1.2.6.6 0 010-1.2zm2.4 0a.6.6 0 110 1.2.6.6 0 010-1.2zm2.4 0a.6.6 0 110 1.2.6.6 0 010-1.2zm2.4 0a.6.6 0 110 1.2.6.6 0 010-1.2zm2.4 0a.6.6 0 110 1.2.6.6 0 010-1.2zm2.4 0a.6.6 0 110 1.2.6.6 0 010-1.2zm-14.4 0a.6.6 0 01.307 1.115 26.385 26.385 0 01-.89-.652.598.598 0 01.583-.463zm-2.4-2.4a.6.6 0 11-.188 1.17 21.681 21.681 0 01-.369-.349.6.6 0 01.557-.821zm2.4 0a.6.6 0 110 1.2.6.6 0 010-1.2zm2.4 0a.6.6 0 110 1.2.6.6 0 010-1.2zm2.4 0a.6.6 0 110 1.2.6.6 0 010-1.2zm2.4 0a.6.6 0 110 1.2.6.6 0 010-1.2zm2.4 0a.6.6 0 110 1.2.6.6 0 010-1.2zm2.4 0a.6.6 0 110 1.2.6.6 0 010-1.2zm2.4 0a.6.6 0 110 1.2.6.6 0 010-1.2zm-16.8-2.4a.6.6 0 110 1.2.6.6 0 010-1.2zm4.8 0a.6.6 0 110 1.2.6.6 0 010-1.2zm-7.2 0a.6.6 0 110 1.2l-.05-.004c-.185-.22-.366-.442-.545-.667l-.005.07a.6.6 0 01.6-.6zm19.2 0a.6.6 0 110 1.2.6.6 0 010-1.2zm-9.6 0a.6.6 0 110 1.2.6.6 0 010-1.2zm2.4 0a.6.6 0 110 1.2.6.6 0 010-1.2zm2.4 0a.6.6 0 110 1.2.6.6 0 010-1.2zm2.4 0a.6.6 0 110 1.2.6.6 0 010-1.2zm-12 0a.6.6 0 110 1.2.6.6 0 010-1.2zM80 14a.6.6 0 110 1.2.6.6 0 010-1.2zm-9.6 0a.6.6 0 110 1.2.6.6 0 010-1.2zm2.4 0a.6.6 0 110 1.2.6.6 0 010-1.2zm2.4 0a.6.6 0 110 1.2.6.6 0 010-1.2zm9.6 0a.6.6 0 110 1.2.6.6 0 010-1.2zm2.4 0a.6.6 0 110 1.2.6.6 0 010-1.2zm2.4 0a.6.6 0 110 1.2.6.6 0 010-1.2zm-12 0a.6.6 0 110 1.2.6.6 0 010-1.2zm4.8 0a.6.6 0 110 1.2.6.6 0 010-1.2zM68 14a.6.6 0 01.428 1.02 26.4 26.4 0 01-.62-.988A.6.6 0 0168 14zm0-2.4a.6.6 0 110 1.2.6.6 0 010-1.2zm9.6 0a.6.6 0 110 1.2.6.6 0 010-1.2zm2.4 0a.6.6 0 110 1.2.6.6 0 010-1.2zm9.6 0a.6.6 0 110 1.2.6.6 0 010-1.2zm-7.2 0a.6.6 0 110 1.2.6.6 0 010-1.2zm2.4 0a.6.6 0 110 1.2.6.6 0 010-1.2zm-12 0a.6.6 0 110 1.2.6.6 0 010-1.2zm2.4 0a.6.6 0 110 1.2.6.6 0 010-1.2zm12 0a.6.6 0 110 1.2.6.6 0 010-1.2zm-16.8 0a.6.6 0 110 1.2.6.6 0 010-1.2zM68 9.2a.6.6 0 110 1.2.6.6 0 010-1.2zm19.2 0a.6.6 0 110 1.2.6.6 0 010-1.2zm-16.8 0a.6.6 0 110 1.2.6.6 0 010-1.2zm7.2 0a.6.6 0 110 1.2.6.6 0 010-1.2zm2.4 0a.6.6 0 110 1.2.6.6 0 010-1.2zm9.6 0a.6.6 0 110 1.2.6.6 0 010-1.2zm-7.2 0a.6.6 0 110 1.2.6.6 0 010-1.2zm2.4 0a.6.6 0 110 1.2.6.6 0 010-1.2zm-12 0a.6.6 0 110 1.2.6.6 0 010-1.2zm2.4 0a.6.6 0 110 1.2.6.6 0 010-1.2zm-9.6 0a.6.6 0 01.348 1.089 27.4 27.4 0 01-.41-1.084L65.6 9.2zm0-2.4a.6.6 0 110 1.2.6.6 0 010-1.2zm21.6 0a.6.6 0 110 1.2.6.6 0 010-1.2zm-16.8 0a.6.6 0 110 1.2.6.6 0 010-1.2zm7.2 0a.6.6 0 110 1.2.6.6 0 010-1.2zm2.4 0A.6.6 0 1180 8a.6.6 0 010-1.2zm9.6 0a.6.6 0 110 1.2.6.6 0 010-1.2zm-7.2 0a.6.6 0 110 1.2.6.6 0 010-1.2zm2.4 0a.6.6 0 110 1.2.6.6 0 010-1.2zm-12 0a.6.6 0 110 1.2.6.6 0 010-1.2zm2.4 0a.6.6 0 110 1.2.6.6 0 010-1.2zm-7.2 0A.6.6 0 1168 8a.6.6 0 010-1.2zm16.8-2.4a.6.6 0 110 1.2.6.6 0 010-1.2zm-9.6 0a.6.6 0 110 1.2.6.6 0 010-1.2zm14.4 0a.6.6 0 110 1.2.6.6 0 010-1.2zm-16.8 0a.6.6 0 110 1.2.6.6 0 010-1.2zm4.8 0a.6.6 0 110 1.2.6.6 0 010-1.2zm4.8 0a.6.6 0 110 1.2.6.6 0 010-1.2zm-16.8 0a.6.6 0 110 1.2.6.6 0 010-1.2zm2.4 0a.6.6 0 110 1.2.6.6 0 010-1.2zm2.4 0a.6.6 0 110 1.2.6.6 0 010-1.2zm16.8 0a.6.6 0 110 1.2.6.6 0 010-1.2zm-7.2 0a.6.6 0 110 1.2.6.6 0 010-1.2zM65.6 2a.6.6 0 110 1.2.6.6 0 010-1.2zM68 2a.6.6 0 110 1.2.6.6 0 010-1.2zm2.4 0a.6.6 0 110 1.2.6.6 0 010-1.2zm2.4 0a.6.6 0 110 1.2.6.6 0 010-1.2zm2.4 0a.6.6 0 110 1.2.6.6 0 010-1.2zm2.4 0a.6.6 0 110 1.2.6.6 0 010-1.2zM80 2a.6.6 0 110 1.2.6.6 0 010-1.2zm2.4 0a.6.6 0 110 1.2.6.6 0 010-1.2zm2.4 0a.6.6 0 110 1.2.6.6 0 010-1.2zm2.4 0a.6.6 0 110 1.2.6.6 0 010-1.2zm2.4 0a.6.6 0 110 1.2.6.6 0 010-1.2z" fill="#A6A6A6"/><defs><linearGradient id="paint0_linear" x1="31.577" y1="34.5" x2="13.015" y2="63.664" gradientUnits="userSpaceOnUse"><stop stop-color="#FF3D00"/><stop offset="1" stop-color="#77178E"/></linearGradient><linearGradient id="paint1_linear" x1="68.628" y1="16.167" x2="37.691" y2="64.773" gradientUnits="userSpaceOnUse"><stop stop-color="#FF3D00"/><stop offset="1" stop-color="#77178E"/></linearGradient><linearGradient id="paint2_linear" x1="56.784" y1="30.922" x2="36.572" y2="62.678" gradientUnits="userSpaceOnUse"><stop stop-color="#FF3D00"/><stop offset="1" stop-color="#77178E"/></linearGradient><filter id="filter0_d" x="15" y="39" width="16.71" height="23" filterUnits="userSpaceOnUse" color-interpolation-filters="sRGB"><feFlood flood-opacity="0" result="BackgroundImageFix"/><feColorMatrix in="SourceAlpha" values="0 0 0 0 0 0 0 0 0 0 0 0 0 0 0 0 0 0 127 0"/><feOffset dx="1" dy="2"/><feGaussianBlur stdDeviation="2"/><feColorMatrix values="0 0 0 0 0.678431 0 0 0 0 0.152941 0 0 0 0 0.337255 0 0 0 0.3 0"/><feBlend in2="BackgroundImageFix" result="effect1_dropShadow"/><feBlend in="SourceGraphic" in2="effect1_dropShadow" result="shape"/></filter><filter id="filter1_d" x="43" y="25" width="22.516" height="33" filterUnits="userSpaceOnUse" color-interpolation-filters="sRGB"><feFlood flood-opacity="0" result="BackgroundImageFix"/><feColorMatrix in="SourceAlpha" values="0 0 0 0 0 0 0 0 0 0 0 0 0 0 0 0 0 0 127 0"/><feOffset dx="1" dy="2"/><feGaussianBlur stdDeviation="2"/><feColorMatrix values="0 0 0 0 0.678431 0 0 0 0 0.152941 0 0 0 0 0.337255 0 0 0 0.3 0"/><feBlend in2="BackgroundImageFix" result="effect1_dropShadow"/><feBlend in="SourceGraphic" in2="effect1_dropShadow" result="shape"/></filter><filter id="filter2_d" x="39" y="36" width="17.484" height="24.333" filterUnits="userSpaceOnUse" color-interpolation-filters="sRGB"><feFlood flood-opacity="0" result="BackgroundImageFix"/><feColorMatrix in="SourceAlpha" values="0 0 0 0 0 0 0 0 0 0 0 0 0 0 0 0 0 0 127 0"/><feOffset dx="1" dy="2"/><feGaussianBlur stdDeviation="2"/><feColorMatrix values="0 0 0 0 0.678431 0 0 0 0 0.152941 0 0 0 0 0.337255 0 0 0 0.3 0"/><feBlend in2="BackgroundImageFix" result="effect1_dropShadow"/><feBlend in="SourceGraphic" in2="effect1_dropShadow" result="shape"/></filter></defs></svg>