<svg width="92" height="110" viewBox="0 0 92 110" fill="none" xmlns="http://www.w3.org/2000/svg">
<rect x="1" y="1" width="90" height="108" fill="#E6DEFF"/>
<rect x="71" y="109" width="108" height="20" transform="rotate(-90 71 109)" fill="#5119FF"/>
<rect x="51" y="109" width="108" height="20" transform="rotate(-90 51 109)" fill="#5119FF" fill-opacity="0.79"/>
<rect x="31" y="109" width="108" height="20" transform="rotate(-90 31 109)" fill="#5119FF" fill-opacity="0.62"/>
<rect x="1" y="1" width="50" height="50" rx="25" fill="white"/>
<rect x="16" y="61" width="35" height="45" rx="2" transform="rotate(-90 16 61)" fill="#26296F"/>
<path d="M16 30L16 28C16 26.8954 16.8954 26 18 26L59 26C60.1046 26 61 26.8954 61 28L61 30L16 30Z" fill="#9093D7"/>
<rect x="21" y="47" width="22" height="2" fill="url(#paint0_linear)"/>
<rect x="21" y="50" width="22" height="2" fill="url(#paint1_linear)"/>
<rect x="21" y="53" width="22" height="2" fill="url(#paint2_linear)"/>
<rect x="33" y="37" width="10" height="8" fill="url(#paint3_linear)"/>
<rect x="21" y="37" width="10" height="8" fill="url(#paint4_linear)"/>
<rect x="45" y="37" width="11" height="18" fill="url(#paint5_linear)"/>
<circle cx="19" cy="28" r="1" fill="#26296F"/>
<circle cx="22" cy="28" r="1" fill="#26296F"/>
<circle cx="25" cy="28" r="1" fill="#26296F"/>
<rect x="51" y="16" width="20" height="20" rx="10" stroke="white"/>
<rect x="71" y="79" width="20" height="20" rx="10" stroke="white"/>
<rect x="1" y="1" width="90" height="108" stroke="white"/>
<defs>
<linearGradient id="paint0_linear" x1="55.2941" y1="46.1333" x2="55.1108" y2="51.5909" gradientUnits="userSpaceOnUse">
<stop stop-color="#FF3D00"/>
<stop offset="1" stop-color="#77178E"/>
</linearGradient>
<linearGradient id="paint1_linear" x1="55.2941" y1="49.1333" x2="55.1108" y2="54.5909" gradientUnits="userSpaceOnUse">
<stop stop-color="#FF3D00"/>
<stop offset="1" stop-color="#77178E"/>
</linearGradient>
<linearGradient id="paint2_linear" x1="55.2941" y1="52.1333" x2="55.1108" y2="57.5909" gradientUnits="userSpaceOnUse">
<stop stop-color="#FF3D00"/>
<stop offset="1" stop-color="#77178E"/>
</linearGradient>
<linearGradient id="paint3_linear" x1="48.5882" y1="33.5333" x2="42.6461" y2="53.6316" gradientUnits="userSpaceOnUse">
<stop stop-color="#FF3D00"/>
<stop offset="1" stop-color="#77178E"/>
</linearGradient>
<linearGradient id="paint4_linear" x1="36.5882" y1="33.5333" x2="30.6461" y2="53.6316" gradientUnits="userSpaceOnUse">
<stop stop-color="#FF3D00"/>
<stop offset="1" stop-color="#77178E"/>
</linearGradient>
<linearGradient id="paint5_linear" x1="62.1471" y1="29.2" x2="40.3727" y2="65.206" gradientUnits="userSpaceOnUse">
<stop stop-color="#FF3D00"/>
<stop offset="1" stop-color="#77178E"/>
</linearGradient>
</defs>
</svg>
