<svg width="92" height="110" fill="none" xmlns="http://www.w3.org/2000/svg"><path fill="#E6DEFF" d="M1 1h90v108H1z"/><path fill="#5119FF" d="M71 109V1h20v108z"/><path fill="#5119FF" fill-opacity=".79" d="M51 109V1h20v108z"/><path fill="#5119FF" fill-opacity=".62" d="M31 109V1h20v108z"/><rect x="1" y="1" width="50" height="50" rx="25" fill="#fff"/><rect x="16" y="61" width="35" height="45" rx="2" transform="rotate(-90 16 61)" fill="#26296F"/><path d="M16 30v-2a2 2 0 012-2h41a2 2 0 012 2v2H16z" fill="#9093D7"/><path fill="url(#paint0_linear)" d="M21 47h22v2H21z"/><path fill="url(#paint1_linear)" d="M21 50h22v2H21z"/><path fill="url(#paint2_linear)" d="M21 53h22v2H21z"/><path fill="url(#paint3_linear)" d="M33 37h10v8H33z"/><path fill="url(#paint4_linear)" d="M21 37h10v8H21z"/><path fill="url(#paint5_linear)" d="M45 37h11v18H45z"/><circle cx="19" cy="28" r="1" fill="#26296F"/><circle cx="22" cy="28" r="1" fill="#26296F"/><circle cx="25" cy="28" r="1" fill="#26296F"/><rect x="51" y="16" width="20" height="20" rx="10" stroke="#fff"/><rect x="71" y="79" width="20" height="20" rx="10" stroke="#fff"/><path stroke="#fff" d="M1 1h90v108H1z"/><defs><linearGradient id="paint0_linear" x1="55.294" y1="46.133" x2="55.111" y2="51.591" gradientUnits="userSpaceOnUse"><stop stop-color="#FF3D00"/><stop offset="1" stop-color="#77178E"/></linearGradient><linearGradient id="paint1_linear" x1="55.294" y1="49.133" x2="55.111" y2="54.591" gradientUnits="userSpaceOnUse"><stop stop-color="#FF3D00"/><stop offset="1" stop-color="#77178E"/></linearGradient><linearGradient id="paint2_linear" x1="55.294" y1="52.133" x2="55.111" y2="57.591" gradientUnits="userSpaceOnUse"><stop stop-color="#FF3D00"/><stop offset="1" stop-color="#77178E"/></linearGradient><linearGradient id="paint3_linear" x1="48.588" y1="33.533" x2="42.646" y2="53.632" gradientUnits="userSpaceOnUse"><stop stop-color="#FF3D00"/><stop offset="1" stop-color="#77178E"/></linearGradient><linearGradient id="paint4_linear" x1="36.588" y1="33.533" x2="30.646" y2="53.632" gradientUnits="userSpaceOnUse"><stop stop-color="#FF3D00"/><stop offset="1" stop-color="#77178E"/></linearGradient><linearGradient id="paint5_linear" x1="62.147" y1="29.2" x2="40.373" y2="65.206" gradientUnits="userSpaceOnUse"><stop stop-color="#FF3D00"/><stop offset="1" stop-color="#77178E"/></linearGradient></defs></svg>