<svg width="92" height="110" fill="none" xmlns="http://www.w3.org/2000/svg"><path fill="#E6DEFF" d="M1 1h90v108H1z"/><path d="M29.463 30L1 59V1h58L29.463 30z" fill="#8A65FF"/><path d="M61.463 30L33 59V1h58L61.463 30z" fill="#8A65FF"/><rect x="16" y="61" width="35" height="25" rx="2" transform="rotate(-90 16 61)" fill="#26296F"/><path d="M16 28a2 2 0 012-2v35a2 2 0 01-2-2V28z" fill="url(#paint0_linear)"/><path fill-rule="evenodd" clip-rule="evenodd" d="M41 28l-4 4 4 4v-8z" fill="#fff"/><path fill="#26296F" d="M46 51h17v10H46z"/><path d="M46 51h2v10h-2V51z" fill="url(#paint1_linear)"/><path fill-rule="evenodd" clip-rule="evenodd" d="M63 52l-2 2 2 2v-4z" fill="#fff"/><path d="M46 27a1 1 0 112 0v20h-2V27z" fill="#26296F"/><path d="M45 28a2 2 0 012-2v8a2 2 0 01-2-2v-4z" fill="url(#paint2_linear)"/><path d="M48 27a1 1 0 01-1 1v-2a1 1 0 011 1z" fill="url(#paint3_linear)"/><path d="M51 27a1 1 0 112 0v20h-2V27z" fill="#26296F"/><path d="M50 28a2 2 0 012-2v8a2 2 0 01-2-2v-4z" fill="url(#paint4_linear)"/><path d="M53 27a1 1 0 01-1 1v-2a1 1 0 011 1z" fill="url(#paint5_linear)"/><path d="M56 27a1 1 0 112 0v20h-2V27z" fill="#26296F"/><path d="M55 28a2 2 0 012-2v8a2 2 0 01-2-2v-4z" fill="url(#paint6_linear)"/><path d="M58 27a1 1 0 01-1 1v-2a1 1 0 011 1z" fill="url(#paint7_linear)"/><path d="M61 27a1 1 0 112 0v20h-2V27z" fill="#26296F"/><path d="M60 28a2 2 0 012-2v8a2 2 0 01-2-2v-4z" fill="url(#paint8_linear)"/><path d="M63 27a1 1 0 01-1 1v-2a1 1 0 011 1z" fill="url(#paint9_linear)"/><path d="M50 101.87L57 95H43v14l7-7.13zm-14 .26L29 109h14V95l-7 7.13zm-14-.26L29 95H15v14l7-7.13zm-14 .26L1 109h14V95l-7 7.13z" fill="#572BE0"/><path stroke="#fff" d="M1 1h90v108H1z"/><defs><linearGradient id="paint0_linear" x1="19.118" y1="10.833" x2="4.679" y2="13.066" gradientUnits="userSpaceOnUse"><stop stop-color="#FF3D00"/><stop offset="1" stop-color="#77178E"/></linearGradient><linearGradient id="paint1_linear" x1="49.118" y1="46.667" x2="37.682" y2="52.855" gradientUnits="userSpaceOnUse"><stop stop-color="#FF3D00"/><stop offset="1" stop-color="#77178E"/></linearGradient><linearGradient id="paint2_linear" x1="48.118" y1="22.533" x2="37.975" y2="29.395" gradientUnits="userSpaceOnUse"><stop stop-color="#FF3D00"/><stop offset="1" stop-color="#77178E"/></linearGradient><linearGradient id="paint3_linear" x1="46.441" y1="28.867" x2="49.053" y2="25.333" gradientUnits="userSpaceOnUse"><stop stop-color="#77178E"/><stop offset="1" stop-color="#FF3D00"/></linearGradient><linearGradient id="paint4_linear" x1="53.118" y1="22.533" x2="42.975" y2="29.395" gradientUnits="userSpaceOnUse"><stop stop-color="#FF3D00"/><stop offset="1" stop-color="#77178E"/></linearGradient><linearGradient id="paint5_linear" x1="51.441" y1="28.867" x2="54.053" y2="25.333" gradientUnits="userSpaceOnUse"><stop stop-color="#77178E"/><stop offset="1" stop-color="#FF3D00"/></linearGradient><linearGradient id="paint6_linear" x1="58.118" y1="22.533" x2="47.975" y2="29.395" gradientUnits="userSpaceOnUse"><stop stop-color="#FF3D00"/><stop offset="1" stop-color="#77178E"/></linearGradient><linearGradient id="paint7_linear" x1="56.441" y1="28.867" x2="59.053" y2="25.333" gradientUnits="userSpaceOnUse"><stop stop-color="#77178E"/><stop offset="1" stop-color="#FF3D00"/></linearGradient><linearGradient id="paint8_linear" x1="63.118" y1="22.533" x2="52.975" y2="29.395" gradientUnits="userSpaceOnUse"><stop stop-color="#FF3D00"/><stop offset="1" stop-color="#77178E"/></linearGradient><linearGradient id="paint9_linear" x1="61.441" y1="28.867" x2="64.053" y2="25.333" gradientUnits="userSpaceOnUse"><stop stop-color="#77178E"/><stop offset="1" stop-color="#FF3D00"/></linearGradient></defs></svg>